<svg width="2560" height="300" viewBox="0 0 2560 300" fill="none" preserveAspectRatio="none" xmlns="http://www.w3.org/2000/svg">
<g clip-path="url(#clip0)">
<path d="M1632.02 78.6565C1424.67 80.5569 1183.69 65.3008 1148.84 62.9008C1146.98 62.7727 1145 62.6333 1142.92 62.4869C1105.93 59.8882 1037.55 55.083 1082.75 72.6565C1132.51 92.0007 999.006 136.001 787.006 143.001L781.255 143.191H781.253L781.251 143.191C624.03 148.387 278.708 159.8 0 136.096V219.586C566.875 357.315 1202.56 287.246 1669.01 235.829L1669.07 235.823C1708.69 231.456 1747.08 227.224 1784.11 223.265C2189.26 179.95 2470.18 169.121 2560 169.121V1.3579C2535.27 1.26025 2512.1 0.866206 2491.84 0.521357C2458.69 -0.0427299 2433.29 -0.474859 2421.45 0.738154C2403.42 2.58569 2402.25 6.90307 2400.67 12.7079C2398.99 18.8448 2396.87 26.6445 2373.9 34.9463C2329.19 51.1003 2069.53 33.0456 1965.86 18.7922C1862.19 4.53881 1824.14 13.0908 1877.41 42.5478C1930.67 72.0049 1839.36 76.756 1632.02 78.6565Z" fill="url(#paint0_linear)"/>
<path d="M2560 1.35797C2535.27 1.26036 2512.1 0.86622 2491.84 0.521367C2458.69 -0.042689 2433.29 -0.474879 2421.45 0.738103C2403.42 2.58568 2402.25 6.90297 2400.66 12.7078C2398.99 18.8448 2396.87 26.6445 2373.9 34.9462C2329.19 51.1003 2069.53 33.0455 1965.86 18.7922C1862.19 4.53876 1824.14 13.0908 1877.41 42.5478C1930.67 72.0048 1839.36 76.7559 1632.02 78.6564C1424.67 80.5568 1183.69 65.3007 1148.84 62.9007C1146.98 62.7727 1145 62.6333 1142.92 62.4868C1105.93 59.8881 1037.55 55.0829 1082.75 72.6564C1132.51 92.0007 999.006 136.001 787.005 143.001L781.255 143.191C624.035 148.387 278.71 159.801 0 136.096V146.09C304.162 173.737 715.69 161.497 879.24 156.447C1092.53 149.862 1170.85 101.114 1120.78 82.9156C1070.72 64.7175 1133.5 70.5007 1159.29 73.5676C1185.07 76.6344 1479.8 102.703 1688.41 100.916C1897.02 99.1278 1966.89 81.6582 1913.3 53.9466C1859.71 26.235 1890.99 13.1897 1995.29 26.5985C2099.6 40.0073 2373.84 61.9923 2418.82 46.7954C2441.76 39.0429 2444.56 32.0159 2446.74 26.5171C2448.84 21.237 2450.38 17.3658 2468.66 15.6142C2480.8 14.4519 2507.61 15.635 2542.59 17.178C2548.19 17.4253 2554 17.6817 2560 17.9392V1.35797Z" fill="#FFF6F2"/>
<path opacity="0.8" fill-rule="evenodd" clip-rule="evenodd" d="M512.488 94.4754C458.703 82.8236 214.425 86.5759 214.425 86.5759L210.732 87.2474C210.732 87.2474 525.974 87.4844 502.413 99.0967C478.852 110.709 377.665 116.989 337.848 115.725C299.437 114.501 144.304 95.9763 144.304 95.9763L134.751 97.0427C134.751 97.0427 291.61 111.064 269.775 118.174C247.94 125.284 79 131.129 79 131.129L89.7971 131.643C124.797 130.142 237.263 134.842 237.263 134.842H242.802C326.128 123.348 582.368 111.578 581.204 115.765C580.04 119.951 556.88 135 556.88 135H561.817C561.817 135 591.118 110.472 623.79 109.722C656.462 108.971 965.643 117.108 965.643 117.108L988 115.765C988 115.765 566.273 106.167 512.488 94.4754ZM539.46 113.079C506.949 113.434 458.262 115.567 458.262 115.567C463.961 110.709 512.809 96.4108 549.013 100.045C588.228 103.994 602.958 106.917 603.721 106.996C582.496 110.675 561.009 112.709 539.46 113.079Z" fill="#C9FDFF"/>
<path opacity="0.8" fill-rule="evenodd" clip-rule="evenodd" d="M1556.84 44.5349C1521.87 36.9256 1363.05 39.3761 1363.05 39.3761L1360.65 39.8146C1360.65 39.8146 1565.61 39.9694 1550.29 47.5529C1534.97 55.1365 1469.18 59.2378 1443.29 58.4123C1418.32 57.6127 1317.46 45.5151 1317.46 45.5151L1311.25 46.2116C1311.25 46.2116 1413.23 55.3686 1399.04 60.0116C1384.84 64.6546 1275 68.4721 1275 68.4721L1282.02 68.8075C1304.78 67.8273 1377.9 70.8968 1377.9 70.8968H1381.5C1435.67 63.3906 1602.27 55.7039 1601.52 58.4382C1600.76 61.1724 1585.7 71 1585.7 71H1588.91C1588.91 71 1607.96 54.9817 1629.2 54.4916C1650.45 54.0015 1851.46 59.3152 1851.46 59.3152L1866 58.4382C1866 58.4382 1591.81 52.1701 1556.84 44.5349ZM1574.38 56.6841C1553.24 56.9162 1521.58 58.3091 1521.58 58.3091C1525.29 55.1364 1557.05 45.7989 1580.59 48.172C1606.08 50.7514 1615.66 52.6602 1616.16 52.7118C1602.36 55.1145 1588.39 56.4426 1574.38 56.6841Z" fill="#C9FDFF"/>
</g>
<defs>
<linearGradient id="paint0_linear" x1="1215.5" y1="-65" x2="1215.5" y2="300" gradientUnits="userSpaceOnUse">
<stop stop-color="#FDB393"/>
<stop offset="1" stop-color="#F89F77"/>
</linearGradient>
<clipPath id="clip0">
<rect width="2560" height="300" fill="white"/>
</clipPath>
</defs>
</svg>
