<svg width="151" height="328" viewBox="0 0 151 328" fill="none" xmlns="http://www.w3.org/2000/svg">
<path opacity="0.2" d="M66.8662 256.282C90.1022 201.321 120.747 199.465 158.022 194.064C158.022 194.064 201.335 207.844 205.57 209.003C188.899 232.838 176.218 241.297 166.207 250.791L150.206 242.949L147.878 232.084L146.055 242.545L141.291 240.148L145.594 225.737L134.982 238.728C109.132 231.057 100.381 229.883 66.8662 256.282Z" fill="black"/>
<path d="M75.7925 154.347C119.777 133.472 164.221 152.183 224.788 182.501C224.752 202.178 217.57 237.622 189.126 221.981C160.682 206.34 127.059 195.235 113.802 191.637L116.271 179.085L109.85 190.284L104.388 189.785L108.616 173.649C107.391 175.006 102.865 179.689 94.5673 187.566C85.4081 184.614 64.9905 183.762 55.9266 183.705C50.6439 189.281 35.2336 205.959 15.8537 228.069C36.2847 179.267 31.8075 175.223 75.7925 154.347Z" fill="url(#paint0_linear)"/>
<mask id="mask0" mask-type="alpha" maskUnits="userSpaceOnUse" x="3" y="88" width="235" height="236">
<path d="M75.7925 154.347C119.777 133.472 164.221 152.183 224.788 182.501C224.752 202.178 217.57 237.622 189.126 221.981C160.682 206.34 127.059 195.235 113.802 191.637L116.271 179.085L109.85 190.284L104.388 189.785L108.616 173.649C107.391 175.006 102.865 179.689 94.5673 187.566C85.4081 184.614 64.9905 183.762 55.9266 183.705C50.6439 189.281 35.2336 205.959 15.8537 228.069C36.2847 179.267 31.8075 175.223 75.7925 154.347Z" fill="#C4C4C4"/>
</mask>
<g mask="url(#mask0)">
<path d="M25.5437 189.52C38.4765 184.203 46.9977 183.77 59.7992 183.508L18.5179 242.301L-4.6689 236.878C1.091 222.865 15.1974 193.774 25.5437 189.52Z" fill="url(#paint1_linear)"/>
</g>
<path d="M41.5504 25.1469C50.1773 -21.1247 95.6646 -2.30235 212.52 71.4185L232.126 180.431C208.598 220.952 160.287 289.287 155.268 238.467C150.249 187.646 120.238 132.591 105.859 111.416L115.271 85.5353L101.938 103.573L98.0168 98.0835L115.271 72.9871L92.527 90.2409C90.9585 87.8881 85.7823 80.8297 77.626 71.4185C73.2341 85.8488 56.4513 98.8677 48.6088 103.573C43.3804 92.8551 34.6489 62.1642 41.5504 25.1469Z" fill="url(#paint2_linear)"/>
<mask id="mask1" mask-type="alpha" maskUnits="userSpaceOnUse" x="39" y="0" width="194" height="257">
<path d="M41.5504 25.1469C50.1773 -21.1247 95.6646 -2.30235 212.52 71.4185L232.126 180.431C208.598 220.952 160.287 289.287 155.268 238.467C150.249 187.646 120.238 132.591 105.859 111.416L115.271 85.5353L101.938 103.573L98.0168 98.0835L115.271 72.9871L92.527 90.2409C90.9585 87.8881 85.7823 80.8297 77.626 71.4185C73.2341 85.8488 56.4513 98.8677 48.6088 103.573C43.3804 92.8551 34.6489 62.1642 41.5504 25.1469Z" fill="#C4C4C4"/>
</mask>
<g mask="url(#mask1)">
<path d="M84.6839 80.8302C76.057 68.282 60.3717 44.754 30.5697 7.10938L18.0215 68.282L50.9606 131.807C65.0773 118.998 91.5854 90.8688 84.6839 80.8302Z" fill="url(#paint3_linear)"/>
</g>
<defs>
<linearGradient id="paint0_linear" x1="111.922" y1="97.3933" x2="149.723" y2="202.99" gradientUnits="userSpaceOnUse">
<stop stop-color="#8AD1DB"/>
<stop offset="1" stop-color="#639574"/>
</linearGradient>
<linearGradient id="paint1_linear" x1="52.2342" y1="168.72" x2="64.4194" y2="196.141" gradientUnits="userSpaceOnUse">
<stop offset="0.311694" stop-color="#639574"/>
<stop offset="1" stop-color="#8AD1DB"/>
</linearGradient>
<linearGradient id="paint2_linear" x1="52.8823" y1="0.0765044" x2="153.001" y2="127.984" gradientUnits="userSpaceOnUse">
<stop stop-color="#8AD1DB"/>
<stop offset="1" stop-color="#639574"/>
</linearGradient>
<linearGradient id="paint3_linear" x1="22.8939" y1="7.14656" x2="72.8643" y2="53.2469" gradientUnits="userSpaceOnUse">
<stop stop-color="#8AD1DB"/>
<stop offset="1" stop-color="#639574"/>
</linearGradient>
</defs>
</svg>
