<svg width="223" height="391" viewBox="0 0 223 391" fill="none" xmlns="http://www.w3.org/2000/svg">
<path opacity="0.2" d="M172.216 164.159C99.222 118.412 61.4486 141.596 12.8974 166.08C12.8974 166.08 -26.9071 218.245 -30.9545 223.123C8.49805 237.501 -16.701 315.066 3 318.001C16.5 258.501 62.6249 217.413 62.6249 217.413L56.3805 202.637L67.1997 213.497L70.8472 206.717L53.8249 193.24L77.1323 199.813C101.346 169.334 110.722 160.699 172.216 164.159Z" fill="black"/>
<path d="M77.2399 51.015C7.94036 62.7577 -29.1174 121.69 -75.6277 207.7C-59.2898 230.938 -21.4437 266.902 -0.762683 224.851C19.9183 182.799 50.4803 141.82 63.1762 126.588L49.8619 113.79L66.7293 121.715L72.7747 116.602L54.4113 101.023C56.984 101.612 66.2135 103.401 82.5499 105.844C90.9359 94.7685 114.374 76.8514 125.044 69.2773C135.908 71.4954 167.943 78.4553 209.171 88.5499C144.595 47.7622 146.54 39.2723 77.2399 51.015Z" fill="url(#paint0_linear)"/>
<mask id="mask0" mask-type="alpha" maskUnits="userSpaceOnUse" x="-82" y="9" width="297" height="280">
<path d="M77.2399 51.015C7.94036 62.7577 -29.1174 121.69 -75.6277 207.7C-59.2898 230.938 -21.4437 266.902 -0.762683 224.851C19.9183 182.799 50.4803 141.82 63.1762 126.588L49.8619 113.79L66.7293 121.715L72.7747 116.602L54.4113 101.023C56.984 101.612 66.2135 103.401 82.5499 105.844C90.9359 94.7685 114.374 76.8514 125.044 69.2773C135.908 71.4954 167.943 78.4553 209.171 88.5499C144.595 47.7622 146.54 39.2723 77.2399 51.015Z" fill="#C4C4C4"/>
</mask>
<g mask="url(#mask0)">
<path d="M165.788 50.9925C146.091 55.4157 135.656 61.9606 120.302 72.2522L217.807 107.586L240.734 81.9713C222.317 70.1706 181.545 47.454 165.788 50.9925Z" fill="url(#paint1_linear)"/>
</g>
<path opacity="0.2" d="M112.541 288.851C89.3052 233.89 85.2764 238.401 48.0009 232.999C36.002 244.499 20.002 271.999 12.502 288.851C28.5027 281.009 29.201 275.518 29.201 275.518L31.5295 264.653L33.3526 275.114L38.1162 272.717L33.8136 258.306L44.4256 271.297C70.2753 263.626 79.0266 262.452 112.541 288.851Z" fill="black"/>
<path d="M70.3439 184.302C22.5343 175.1 -15.812 204.338 -66.8633 248.849C-61.9043 267.891 -46.0804 300.41 -22.4562 278.148C1.16803 255.886 30.9423 236.719 42.8764 229.918L37.3449 218.383L46.3641 227.619L51.5274 225.769L43.3953 211.204C44.9213 212.211 50.4747 215.612 60.4804 221.163C68.6093 216.012 88.1639 210.077 96.925 207.754C103.435 211.83 122.529 224.121 146.826 240.677C114.831 198.541 118.154 193.505 70.3439 184.302Z" fill="url(#paint2_linear)"/>
<mask id="mask1" mask-type="alpha" maskUnits="userSpaceOnUse" x="-77" y="131" width="233" height="229">
<path d="M70.3439 184.302C22.5343 175.1 -15.812 204.338 -66.8633 248.849C-61.9043 267.891 -46.0804 300.41 -22.4562 278.148C1.16803 255.886 30.9423 236.719 42.8764 229.918L37.3449 218.383L46.3641 227.619L51.5274 225.769L43.3953 211.204C44.9213 212.211 50.4747 215.612 60.4804 221.163C68.6093 216.012 88.1639 210.077 96.925 207.754C103.435 211.83 122.529 224.121 146.826 240.677C114.831 198.541 118.154 193.505 70.3439 184.302Z" fill="#C4C4C4"/>
</mask>
<g mask="url(#mask1)">
<path d="M127.797 205.781C113.945 203.87 105.587 205.584 93.1269 208.533L147.809 255.124L168.901 244.071C159.817 231.945 138.879 207.31 127.797 205.781Z" fill="url(#paint3_linear)"/>
</g>
<defs>
<linearGradient id="paint0_linear" x1="92.1102" y1="37.519" x2="41.0799" y2="260.271" gradientUnits="userSpaceOnUse">
<stop stop-color="#8AD1DB"/>
<stop offset="1" stop-color="#2A7443"/>
</linearGradient>
<linearGradient id="paint1_linear" x1="117" y1="48.5005" x2="125.301" y2="91.0168" gradientUnits="userSpaceOnUse">
<stop offset="0.311694" stop-color="#639574"/>
<stop offset="1" stop-color="#8AD1DB"/>
</linearGradient>
<linearGradient id="paint2_linear" x1="83.2672" y1="179.156" x2="-3.90754" y2="311.284" gradientUnits="userSpaceOnUse">
<stop stop-color="#8AD1DB"/>
<stop offset="1" stop-color="#2A7443"/>
</linearGradient>
<linearGradient id="paint3_linear" x1="96.7501" y1="192.323" x2="91.8155" y2="221.921" gradientUnits="userSpaceOnUse">
<stop offset="0.311694" stop-color="#639574"/>
<stop offset="1" stop-color="#8AD1DB"/>
</linearGradient>
</defs>
</svg>
