<svg width="135" height="34" viewBox="0 0 135 34" fill="none" xmlns="http://www.w3.org/2000/svg">
<path opacity="0.5" fill-rule="evenodd" clip-rule="evenodd" d="M134.068 32.911L18.88 33.337L0 29.7246L134.068 32.911Z" fill="#92001D"/>
<path fill-rule="evenodd" clip-rule="evenodd" d="M42.6984 32.2979H21.8418C22.2033 30.7606 22.7768 29.281 23.5458 27.9017C23.9781 26.8692 24.701 25.9847 25.6266 25.3555C26.5523 24.7263 27.6408 24.3795 28.7598 24.3574C31.5202 24.5619 35.3373 26.8282 38.2852 28.89C40.807 30.6792 42.6984 32.2979 42.6984 32.2979Z" fill="#903456"/>
<path fill-rule="evenodd" clip-rule="evenodd" d="M134.065 32.9098H48.1172C53.211 25.3894 58.843 18.2481 64.9693 11.542C70.3197 5.86782 75.9941 1.11373 80.4926 0.398065C92.4204 -1.52742 124.319 3.68673 127.744 12.7007C128.238 13.9787 128.715 15.3078 129.175 16.6369C131.952 24.6626 134.065 32.9098 134.065 32.9098Z" fill="#903456"/>
<g style="mix-blend-mode:soft-light">
<path fill-rule="evenodd" clip-rule="evenodd" d="M129.176 16.6369C114.181 24.424 64.6463 26.3665 64.4248 16.4494C64.3772 14.793 64.5782 13.1389 65.0211 11.542C70.3716 5.86782 76.0458 1.11373 80.5443 0.398065C92.4721 -1.52742 124.37 3.68673 127.795 12.7007C128.238 13.9787 128.716 15.3078 129.176 16.6369Z" fill="#FFCF9D"/>
</g>
<g style="mix-blend-mode:soft-light">
<path fill-rule="evenodd" clip-rule="evenodd" d="M38.2687 28.89C37.2497 29.772 35.9809 30.314 34.6392 30.4406C30.7566 30.8537 26.8471 29.9602 23.5293 27.9017C23.9616 26.8692 24.6845 25.9847 25.6102 25.3555C26.5358 24.7263 27.6245 24.3795 28.7435 24.3574C31.504 24.5619 35.3208 26.8282 38.2687 28.89Z" fill="#FFCF9D"/>
</g>
<path fill-rule="evenodd" clip-rule="evenodd" d="M94.4834 23.0949C94.4834 23.0949 103.412 17.983 106.65 22.1577L94.4834 23.0949Z" fill="#FFCF9D"/>
<path fill-rule="evenodd" clip-rule="evenodd" d="M29.373 30.2173C29.373 30.2173 33.0195 27.1161 34.6383 30.4388C32.883 30.6578 31.1037 30.5829 29.373 30.2173Z" fill="#FFCF9D"/>
</svg>
