<svg width="40" height="40" viewBox="0 0 40 40" fill="none" xmlns="http://www.w3.org/2000/svg">
<rect width="40" height="40" rx="20" fill="white"/>
<path d="M25.7712 16.2854C25.355 16.0503 24.814 16.0503 24.3563 16.2854L21.1101 18.0873L18.9044 19.2625L15.6584 21.0643C15.2422 21.2994 14.7012 21.2994 14.2434 21.0643L11.6632 19.6541C11.247 19.4191 10.9557 18.9882 10.9557 18.5182V15.7369C10.9557 15.2669 11.2054 14.836 11.6632 14.601L14.2018 13.2299C14.6179 12.9949 15.159 12.9949 15.6167 13.2299L18.1554 14.601C18.5715 14.836 18.8629 15.2669 18.8629 15.7369V17.5389L21.0685 16.3245V14.5226C21.0685 14.0525 20.8189 13.6217 20.3611 13.3866L15.6584 10.8013C15.2422 10.5662 14.7012 10.5662 14.2434 10.8013L9.45748 13.3866C8.9997 13.6217 8.75 14.0525 8.75 14.5226V19.7325C8.75 20.2026 8.9997 20.6335 9.45748 20.8685L14.2434 23.4539C14.6596 23.6889 15.2006 23.6889 15.6584 23.4539L18.9044 21.6911L21.1101 20.4768L24.3563 18.714C24.7724 18.479 25.3134 18.479 25.7712 18.714L28.3098 20.085C28.726 20.3201 29.0173 20.751 29.0173 21.221V24.0022C29.0173 24.4723 28.7676 24.9032 28.3098 25.1382L25.7712 26.5484C25.355 26.7835 24.814 26.7835 24.3563 26.5484L21.8177 25.1774C21.4015 24.9424 21.1101 24.5115 21.1101 24.0414V22.2395L18.9044 23.4539V25.2557C18.9044 25.7258 19.1542 26.1567 19.6119 26.3917L24.3979 28.9771C24.814 29.2121 25.355 29.2121 25.8128 28.9771L30.5988 26.3917C31.0149 26.1567 31.3062 25.7258 31.3062 25.2557V20.0458C31.3062 19.5758 31.0565 19.1449 30.5988 18.9099L25.7712 16.2854Z" fill="#8347E5"/>
</svg>
