<svg width="40" height="40" viewBox="0 0 40 40" fill="none" xmlns="http://www.w3.org/2000/svg">
<path fill-rule="evenodd" clip-rule="evenodd" d="M20.0959 1.03789e-05C15.3252 -0.00483841 10.7087 1.68939 7.07375 4.77909C3.43877 7.86878 1.02288 12.152 0.259041 16.8611C-0.504802 21.5702 0.433326 26.3975 2.9053 30.4777C5.37728 34.558 9.22153 37.6246 13.7491 39.128C14.7597 39.3128 15.1171 38.6843 15.1171 38.1544C15.1171 37.6245 15.1171 36.4168 15.1171 34.7407C9.50975 35.9608 8.32667 32.0418 8.32667 32.0418C7.95468 30.8272 7.16439 29.7837 6.09607 29.0964C4.28447 27.8641 6.24395 27.8641 6.24395 27.8641C6.87899 27.9538 7.4853 28.1868 8.01695 28.5455C8.5486 28.9042 8.99166 29.3792 9.31257 29.9345C9.58525 30.4289 9.95288 30.8646 10.3944 31.2166C10.8358 31.5686 11.3425 31.83 11.8852 31.9857C12.4279 32.1414 12.9961 32.1884 13.557 32.124C14.118 32.0596 14.6607 31.8851 15.154 31.6105C15.2314 30.5967 15.6685 29.6439 16.3864 28.9239C11.9252 28.4186 7.24218 26.6933 7.24218 19.0649C7.21155 17.0721 7.94843 15.1439 9.30025 13.6794C8.69818 11.9467 8.76855 10.0511 9.49743 8.36785C9.49743 8.36785 11.1858 7.82561 15.0185 10.4259C18.3096 9.52229 21.7835 9.52229 25.0747 10.4259C28.9074 7.82561 30.5834 8.36785 30.5834 8.36785C31.3224 10.0333 31.4104 11.9153 30.8299 13.6424C32.1817 15.1069 32.9186 17.0351 32.8879 19.0279C32.8879 26.7426 28.1926 28.431 23.7191 28.8869C24.1987 29.3691 24.5692 29.9488 24.8052 30.5867C25.0412 31.2246 25.1373 31.9058 25.087 32.5841C25.087 35.2706 25.087 37.4396 25.087 38.0928C25.087 38.7459 25.4444 39.2512 26.4673 39.054C30.9433 37.511 34.73 34.4357 37.1583 30.3713C39.5866 26.3069 40.5003 21.515 39.738 16.8423C38.9757 12.1695 36.5864 7.91651 32.9922 4.83466C29.398 1.75281 24.8303 0.040419 20.0959 1.03789e-05Z" fill="white"/>
</svg>
