<svg width="32" height="32" viewBox="0 0 32 32" fill="none" xmlns="http://www.w3.org/2000/svg">
<path fill-rule="evenodd" clip-rule="evenodd" d="M16.0767 8.3031e-06C12.2602 -0.00387072 8.56698 1.35151 5.659 3.82327C2.75101 6.29503 0.818306 9.72159 0.207233 13.4889C-0.403841 17.2562 0.346661 21.118 2.32424 24.3822C4.30183 27.6464 7.37722 30.0997 10.9993 31.3024C11.8077 31.4503 12.0937 30.9475 12.0937 30.5235C12.0937 30.0996 12.0937 29.1334 12.0937 27.7926C7.6078 28.7686 6.66134 25.6335 6.66134 25.6335C6.36374 24.6618 5.73151 23.827 4.87685 23.2771C3.42758 22.2912 4.99516 22.2912 4.99516 22.2912C5.5032 22.363 5.98824 22.5494 6.41356 22.8364C6.83888 23.1234 7.19333 23.5033 7.45006 23.9476C7.6682 24.3431 7.9623 24.6917 8.31548 24.9733C8.66867 25.2549 9.07398 25.464 9.50817 25.5885C9.94236 25.7131 10.3969 25.7507 10.8456 25.6992C11.2944 25.6477 11.7286 25.5081 12.1232 25.2884C12.1851 24.4773 12.5348 23.7151 13.1091 23.1391C9.54017 22.7349 5.79374 21.3546 5.79374 15.2519C5.76924 13.6577 6.35874 12.1151 7.4402 10.9435C6.95854 9.55737 7.01484 8.0409 7.59794 6.69428C7.59794 6.69428 8.94863 6.26048 12.0148 8.34074C14.6477 7.61784 17.4268 7.61784 20.0597 8.34074C23.1259 6.26048 24.4667 6.69428 24.4667 6.69428C25.0579 8.02665 25.1283 9.53224 24.6639 10.9139C25.7454 12.0855 26.3349 13.6281 26.3104 15.2223C26.3104 21.3941 22.5541 22.7448 18.9752 23.1095C19.359 23.4953 19.6553 23.959 19.8441 24.4694C20.033 24.9797 20.1098 25.5246 20.0696 26.0672C20.0696 28.2165 20.0696 29.9517 20.0696 30.4742C20.0696 30.9968 20.3555 31.401 21.1738 31.2432C24.7547 30.0088 27.784 27.5485 29.7266 24.297C31.6693 21.0455 32.4003 17.212 31.7904 13.4738C31.1805 9.7356 29.2691 6.33321 26.3938 3.86773C23.5184 1.40225 19.8642 0.0323352 16.0767 8.3031e-06Z" fill="#273852"/>
</svg>
