<svg width="24" height="24" viewBox="0 0 24 24" fill="none" xmlns="http://www.w3.org/2000/svg">
<path d="M12 24C18.6274 24 24 18.6274 24 12C24 5.37258 18.6274 0 12 0C5.37258 0 0 5.37258 0 12C0 18.6274 5.37258 24 12 24Z" fill="#3164FA"/>
<g clip-path="url(#clip0_15220_80956)">
<path fill-rule="evenodd" clip-rule="evenodd" d="M10.6821 4.9338L9.86406 4.04325C11.0955 3.88046 14.3448 4.08921 17.4902 6.22655C17.5311 6.52174 17.5223 6.816 17.5223 6.816L17.6045 6.86168C17.7548 7.06791 17.9274 7.45526 18.0303 7.93491C18.1329 8.4132 18.1616 8.96164 18.0429 9.48392C17.9228 10.0121 17.6949 10.4485 17.4715 10.7677C17.2429 11.0944 17.0335 11.2787 16.9672 11.3185L16.9462 11.3311C16.5578 11.4035 16.0214 11.6883 15.8035 12.4051C15.1659 12.8022 14.0886 13.237 12.6241 13.237C11.3261 13.237 10.0048 12.8613 9.01422 12.1377C8.02963 11.4184 7.37109 10.357 7.37109 8.95832C7.37109 7.84882 7.86834 6.98097 8.50355 6.33971C9.14378 5.69339 10.0192 5.17057 10.5204 4.99895L10.6445 4.95644L10.6371 4.95011L10.6821 4.9338ZM16.0959 6.67888C15.8482 6.95582 15.6166 7.08869 15.5505 7.12472C14.1045 6.79448 13.5836 5.99129 13.5836 5.99129C14.9475 5.98226 16.1786 6.33057 17.0793 6.91978C17.0793 6.91978 16.5917 6.75015 16.0959 6.67888Z" fill="white"/>
<path d="M9.37788 5.08594C6.31055 5.81818 4 8.62558 4 12.0027C4 16.3821 7.70168 20.0006 12.268 20.0006C15.6777 20.0006 18.516 17.9158 20 15.1264C18.0694 15.5843 15.7726 14.7981 15.6591 13.061C15.6626 13.0474 15.6661 13.0337 15.6696 13.0199C14.9491 13.3865 13.921 13.7076 12.6238 13.7076C11.2431 13.7076 9.82047 13.3095 8.7367 12.5178C7.64697 11.7218 6.90082 10.5264 6.90082 8.95891C6.90082 7.69546 7.4707 6.71486 8.16936 6.00954C8.49521 5.68369 8.91675 5.37258 9.30402 5.13136C9.32875 5.11595 9.35338 5.1008 9.37788 5.08594Z" fill="white"/>
<path d="M17.5801 11.3878C17.7212 11.4456 17.8074 11.5214 17.8526 11.5692C17.9609 11.6841 18.232 12.0288 17.9068 12.5747C18.5845 12.4598 19.643 11.7703 19.723 10.0179C19.7762 8.85296 19.1671 8.00292 18.3637 7.37109C18.4121 7.51739 18.455 7.67367 18.4899 7.83655C18.6033 8.36466 18.6387 8.98422 18.5013 9.58835C18.3653 10.1866 18.108 10.6782 17.8567 11.0374C17.7637 11.1704 17.6693 11.2881 17.5801 11.3878Z" fill="white"/>
</g>
<defs>
<clipPath id="clip0_15220_80956">
<rect width="16" height="16" fill="white" transform="translate(4 4)"/>
</clipPath>
</defs>
</svg>
