<svg width="24" height="24" viewBox="0 0 24 24" fill="none" xmlns="http://www.w3.org/2000/svg">
<circle cx="12" cy="12" r="12" fill="#EFF2F6"/>
<path d="M7.13672 10.8575L8.35224 10.1484L9.56776 10.8575L8.35224 11.5665L7.13672 10.8575Z" fill="#54A0D8"/>
<path d="M8.35254 11.5626L9.56806 10.8535L10.7836 11.5626L9.56806 12.2716L8.35254 11.5626Z" fill="#54A0D8"/>
<path d="M10.7842 11.5626L11.9997 10.8535L13.2152 11.5626L11.9997 12.2716L10.7842 11.5626Z" fill="#54A0D8"/>
<path d="M9.56836 12.2676L10.7839 11.5586L11.9994 12.2676L10.7839 12.9767L9.56836 12.2676Z" fill="#54A0D8"/>
<path d="M14.4297 10.8575L15.6452 10.1484L16.8607 10.8575L15.6452 11.5665L14.4297 10.8575Z" fill="#54A0D8"/>
<path d="M13.2148 11.5626L14.4304 10.8535L15.6459 11.5626L14.4304 12.2716L13.2148 11.5626Z" fill="#54A0D8"/>
<path d="M11.999 12.2676L13.2145 11.5586L14.4301 12.2676L13.2145 12.9767L11.999 12.2676Z" fill="#54A0D8"/>
<path d="M10.7842 12.9727L11.9997 12.2637L13.2152 12.9727L11.9997 13.6818L10.7842 12.9727Z" fill="#71C3FF"/>
<path d="M11.999 20.9247L13.2145 20.2157V19.0508L11.999 19.7598V20.9247Z" fill="#23CFCF"/>
<path d="M10.7842 19.0508V20.2157L11.9997 20.9247V19.7598L10.7842 19.0508Z" fill="#49F1F1"/>
<path d="M9.56836 20.9247L10.7839 20.2157V19.0508L9.56836 19.7598V20.9247Z" fill="#23CFCF"/>
<path d="M8.35254 19.0508V20.2157L9.56806 20.9247V19.7598L8.35254 19.0508Z" fill="#49F1F1"/>
<path d="M14.4297 20.9247L15.6452 20.2157V19.0508L14.4297 19.7598V20.9247Z" fill="#23CFCF"/>
<path d="M13.2148 19.0508V20.2157L14.4304 20.9247V19.7598L13.2148 19.0508Z" fill="#49F1F1"/>
<path d="M7.13672 17.1777V18.3426L8.35224 19.0517V17.8868L7.13672 17.1777Z" fill="#49F1F1"/>
<path d="M11.999 19.7567L13.2145 19.0477V17.8828L11.999 18.5919V19.7567Z" fill="#2F83FF"/>
<path d="M10.7842 17.8828V19.0477L11.9997 19.7567V18.5919L10.7842 17.8828Z" fill="#2FA9FF"/>
<path d="M7.13672 16.0117V17.1766L8.35224 17.8856V16.7208L7.13672 16.0117Z" fill="#49F1F1"/>
<path d="M16.8613 16.0126L18.0769 15.3035V14.1387L16.8613 14.8477V16.0126Z" fill="#23CFCF"/>
<path d="M5.92188 14.1387V15.3035L7.1374 16.0126V14.8477L5.92188 14.1387Z" fill="#49F1F1"/>
<path d="M7.13672 14.8457V16.0106L8.35224 16.7196V15.5548L7.13672 14.8457Z" fill="#2FA9FF"/>
<path d="M15.6465 19.0517L16.862 18.3426V17.1777L15.6465 17.8868V19.0517Z" fill="#23CFCF"/>
<path d="M15.6465 17.8856L16.862 17.1766V16.0117L15.6465 16.7208V17.8856Z" fill="#23CFCF"/>
<path d="M15.6465 16.7196L16.862 16.0106V14.8457L15.6465 15.5548V16.7196Z" fill="#2F83FF"/>
<path d="M11.999 18.5907L13.2145 17.8817V16.7168L11.999 17.4259V18.5907Z" fill="#2F83FF"/>
<path d="M10.7842 16.7168V17.8817L11.9997 18.5907V17.4259L10.7842 16.7168Z" fill="#2FA9FF"/>
<path d="M11.999 17.4228L13.2145 16.7137V15.5488L11.999 16.2579V17.4228Z" fill="#2F83FF"/>
<path d="M10.7842 15.5488V16.7137L11.9997 17.4228V16.2579L10.7842 15.5488Z" fill="#2FA9FF"/>
<path d="M5.92188 12.7285V13.8934L7.1374 14.6024V13.4376L5.92188 12.7285Z" fill="#2FA9FF"/>
<path d="M5.92188 11.5626L7.1374 10.8535L8.35292 11.5626L7.1374 12.2716L5.92188 11.5626Z" fill="#71C3FF"/>
<path d="M5.92188 11.5625V12.7274L7.1374 13.4364V12.2716L5.92188 11.5625Z" fill="#2FA9FF"/>
<path d="M9.56836 19.7567L10.7839 19.0477V17.8828L9.56836 18.5919V19.7567Z" fill="#23CFCF"/>
<path d="M8.35254 17.8828V19.0477L9.56806 19.7567V18.5919L8.35254 17.8828Z" fill="#49F1F1"/>
<path d="M14.4297 19.7567L15.6452 19.0477V17.8828L14.4297 18.5919V19.7567Z" fill="#23CFCF"/>
<path d="M13.2148 17.8828V19.0477L14.4304 19.7567V18.5919L13.2148 17.8828Z" fill="#49F1F1"/>
<path d="M9.56836 18.5907L10.7839 17.8817V16.7168L9.56836 17.4259V18.5907Z" fill="#2F83FF"/>
<path d="M8.35254 16.7168V17.8817L9.56806 18.5907V17.4259L8.35254 16.7168Z" fill="#2FA9FF"/>
<path d="M9.56836 17.4228L10.7839 16.7137V15.5488L9.56836 16.2579V17.4228Z" fill="#2F83FF"/>
<path d="M8.35254 15.5488V16.7137L9.56806 17.4228V16.2579L8.35254 15.5488Z" fill="#2FA9FF"/>
<path d="M16.8613 14.6024L18.0769 13.8934V12.7285L16.8613 13.4376V14.6024Z" fill="#2F83FF"/>
<path d="M15.6465 11.5626L16.862 10.8535L18.0775 11.5626L16.862 12.2716L15.6465 11.5626Z" fill="#71C3FF"/>
<path d="M16.8613 13.4364L18.0769 12.7274V11.5625L16.8613 12.2716V13.4364Z" fill="#2F83FF"/>
<path d="M14.4297 18.5907L15.6452 17.8817V16.7168L14.4297 17.4259V18.5907Z" fill="#2F83FF"/>
<path d="M13.2148 16.7168V17.8817L14.4304 18.5907V17.4259L13.2148 16.7168Z" fill="#2FA9FF"/>
<path d="M14.4297 17.4228L15.6452 16.7137V15.5488L14.4297 16.2579V17.4228Z" fill="#2F83FF"/>
<path d="M13.2148 15.5488V16.7137L14.4304 17.4228V16.2579L13.2148 15.5488Z" fill="#2FA9FF"/>
<path d="M7.13672 12.2676L8.35224 11.5586L9.56776 12.2676L8.35224 12.9767L7.13672 12.2676Z" fill="#71C3FF"/>
<path d="M5.92188 12.9727L7.1374 12.2637L8.35292 12.9727L7.1374 13.6818L5.92188 12.9727Z" fill="#71C3FF"/>
<path d="M5.92188 12.9727V14.1375L7.1374 14.8466V13.6817L5.92188 12.9727Z" fill="#2FA9FF"/>
<path d="M8.35254 12.9727L9.56806 12.2637L10.7836 12.9727L9.56806 13.6818L8.35254 12.9727Z" fill="#71C3FF"/>
<path d="M7.13672 13.6778L8.35224 12.9688L9.56776 13.6778L8.35224 14.3869L7.13672 13.6778Z" fill="#71C3FF"/>
<path d="M7.13672 13.6777V14.8426L8.35224 15.5517V14.3868L7.13672 13.6777Z" fill="#2FA9FF"/>
<path d="M9.56836 13.6778L10.7839 12.9688L11.9994 13.6778L10.7839 14.3869L9.56836 13.6778Z" fill="#71C3FF"/>
<path d="M8.35254 14.3829L9.56806 13.6738L10.7836 14.3829L9.56806 15.0919L8.35254 14.3829Z" fill="#71C3FF"/>
<path d="M9.56836 16.2567L10.7839 15.5477V14.3828L9.56836 15.0919V16.2567Z" fill="#2F83FF"/>
<path d="M8.35254 14.3828V15.5477L9.56806 16.2567V15.0919L8.35254 14.3828Z" fill="#2FA9FF"/>
<path d="M14.4297 12.2676L15.6452 11.5586L16.8607 12.2676L15.6452 12.9767L14.4297 12.2676Z" fill="#71C3FF"/>
<path d="M13.2148 12.9727L14.4304 12.2637L15.6459 12.9727L14.4304 13.6818L13.2148 12.9727Z" fill="#71C3FF"/>
<path d="M11.999 13.6778L13.2145 12.9688L14.4301 13.6778L13.2145 14.3869L11.999 13.6778Z" fill="#71C3FF"/>
<path d="M10.7842 14.3829L11.9997 13.6738L13.2152 14.3829L11.9997 15.0919L10.7842 14.3829Z" fill="#71C3FF"/>
<path d="M11.999 16.2567L13.2145 15.5477V14.3828L11.999 15.0919V16.2567Z" fill="#2F83FF"/>
<path d="M10.7842 14.3828V15.5477L11.9997 16.2567V15.0919L10.7842 14.3828Z" fill="#2FA9FF"/>
<path d="M15.6465 12.9727L16.862 12.2637L18.0775 12.9727L16.862 13.6818L15.6465 12.9727Z" fill="#71C3FF"/>
<path d="M16.8613 14.8466L18.0769 14.1375V12.9727L16.8613 13.6817V14.8466Z" fill="#2F83FF"/>
<path d="M14.4297 13.6778L15.6452 12.9688L16.8607 13.6778L15.6452 14.3869L14.4297 13.6778Z" fill="#71C3FF"/>
<path d="M15.6465 15.5517L16.862 14.8426V13.6777L15.6465 14.3868V15.5517Z" fill="#2F83FF"/>
<path d="M13.2148 14.3829L14.4304 13.6738L15.6459 14.3829L14.4304 15.0919L13.2148 14.3829Z" fill="#71C3FF"/>
<path d="M14.4297 16.2567L15.6452 15.5477V14.3828L14.4297 15.0919V16.2567Z" fill="#2F83FF"/>
<path d="M13.2148 14.3828V15.5477L14.4304 16.2567V15.0919L13.2148 14.3828Z" fill="#2FA9FF"/>
<path d="M8.70776 10.5801H7.99871V10.8836C7.99871 10.8837 7.99871 10.8838 7.99871 10.884C7.99871 10.9958 8.15744 11.0865 8.35324 11.0865C8.54903 11.0865 8.70776 10.9958 8.70776 10.884V10.5801Z" fill="#2FA9FF"/>
<path d="M9.92327 11.2851H9.21422V11.588C9.21421 11.5883 9.21421 11.5887 9.21421 11.589C9.21421 11.7008 9.37294 11.7915 9.56874 11.7915C9.76454 11.7915 9.92327 11.7008 9.92327 11.589L9.92327 11.2851Z" fill="#2FA9FF"/>
<path d="M12.3543 11.2851H11.6453V11.5875C11.6453 11.588 11.6453 11.5885 11.6453 11.589C11.6453 11.7008 11.804 11.7915 11.9998 11.7915C12.1956 11.7915 12.3543 11.7008 12.3543 11.589L12.3543 11.2851Z" fill="#2FA9FF"/>
<path d="M11.1388 11.9901H10.4298V12.2927C10.4298 12.2931 10.4298 12.2935 10.4298 12.294C10.4298 12.4059 10.5885 12.4966 10.7843 12.4966C10.9801 12.4966 11.1388 12.4059 11.1388 12.294L11.1388 11.9901Z" fill="#2FA9FF"/>
<path d="M16.0009 10.5801H15.2918V10.884C15.2918 10.9958 15.4506 11.0865 15.6464 11.0865C15.8422 11.0865 16.0009 10.9958 16.0009 10.884C16.0009 10.8838 16.0009 10.8835 16.0009 10.8833V10.5801Z" fill="#2FA9FF"/>
<path d="M14.7854 11.2851H14.0763V11.589C14.0763 11.7008 14.235 11.7915 14.4308 11.7915C14.6266 11.7915 14.7854 11.7008 14.7854 11.589C14.7854 11.5886 14.7854 11.5883 14.7854 11.5879V11.2851Z" fill="#2FA9FF"/>
<path d="M13.5698 11.9901H12.8608V12.294C12.8608 12.4059 13.0195 12.4966 13.2153 12.4966C13.4111 12.4966 13.5698 12.4059 13.5698 12.294C13.5698 12.2935 13.5698 12.2931 13.5698 12.2926V11.9901Z" fill="#2FA9FF"/>
<path d="M12.3543 12.6951H11.6453V12.9975C11.6453 12.998 11.6453 12.9985 11.6453 12.999C11.6453 13.1109 11.804 13.2016 11.9998 13.2016C12.1956 13.2016 12.3543 13.1109 12.3543 12.999L12.3543 12.6951Z" fill="#2FA9FF"/>
<path d="M7.49226 11.2851H6.7832V11.589C6.7832 11.7008 6.94193 11.7916 7.13773 11.7916C7.33353 11.7916 7.49226 11.7008 7.49226 11.589C7.49226 11.5886 7.49226 11.5883 7.49226 11.5879V11.2851Z" fill="#2FA9FF"/>
<path d="M17.2164 11.2851H16.5074V11.589C16.5074 11.7008 16.6661 11.7916 16.8619 11.7916C17.0577 11.7916 17.2164 11.7008 17.2164 11.589C17.2164 11.5889 17.2164 11.5887 17.2164 11.5886V11.2851Z" fill="#2FA9FF"/>
<path d="M8.70776 11.9901H7.99871V12.2936C7.99871 12.2937 7.99871 12.2938 7.99871 12.294C7.99871 12.4059 8.15744 12.4966 8.35324 12.4966C8.54903 12.4966 8.70776 12.4059 8.70776 12.294V11.9901Z" fill="#2FA9FF"/>
<path d="M7.49226 12.6951H6.7832V12.999C6.78321 13.1109 6.94194 13.2016 7.13773 13.2016C7.33353 13.2016 7.49226 13.1109 7.49226 12.999C7.49226 12.9986 7.49226 12.9983 7.49226 12.9979V12.6951Z" fill="#2FA9FF"/>
<path d="M9.92331 12.6951H9.21425V12.9983C9.21425 12.9986 9.21425 12.9988 9.21425 12.999C9.21425 13.1109 9.37298 13.2016 9.56878 13.2016C9.76458 13.2016 9.9233 13.1109 9.92331 12.999L9.92331 12.6951Z" fill="#2FA9FF"/>
<path d="M8.70776 13.4001H7.99871V13.7036C7.99871 13.7037 7.99871 13.7039 7.99871 13.704C7.99871 13.8159 8.15744 13.9066 8.35324 13.9066C8.54904 13.9066 8.70776 13.8159 8.70776 13.704L8.70776 13.4001Z" fill="#2FA9FF"/>
<path d="M11.1388 13.4001H10.4298V13.7029C10.4298 13.7033 10.4298 13.7036 10.4298 13.704C10.4298 13.8159 10.5885 13.9066 10.7843 13.9066C10.9801 13.9066 11.1388 13.8159 11.1388 13.704L11.1388 13.4001Z" fill="#2FA9FF"/>
<path d="M9.92331 14.1051H9.21425V14.4084C9.21425 14.4086 9.21425 14.4088 9.21425 14.409C9.21425 14.5209 9.37298 14.6116 9.56878 14.6116C9.76458 14.6116 9.92331 14.5209 9.92331 14.409L9.92331 14.1051Z" fill="#2FA9FF"/>
<path d="M16.0009 11.9901H15.2919V12.294C15.2919 12.4059 15.4506 12.4966 15.6464 12.4966C15.8422 12.4966 16.0009 12.4059 16.0009 12.294C16.0009 12.2937 16.0009 12.2934 16.0009 12.293V11.9901Z" fill="#2FA9FF"/>
<path d="M14.7854 12.6951H14.0763V12.999C14.0763 13.1109 14.235 13.2016 14.4308 13.2016C14.6266 13.2016 14.7854 13.1109 14.7854 12.999C14.7854 12.9986 14.7854 12.9983 14.7854 12.9979V12.6951Z" fill="#2FA9FF"/>
<path d="M13.5699 13.4001H12.8608V13.704C12.8608 13.8159 13.0196 13.9066 13.2154 13.9066C13.4112 13.9066 13.5699 13.8159 13.5699 13.704C13.5699 13.7035 13.5699 13.703 13.5699 13.7025V13.4001Z" fill="#2FA9FF"/>
<path d="M12.3543 14.1051H11.6453V14.4075C11.6453 14.408 11.6453 14.4085 11.6453 14.409C11.6453 14.5209 11.804 14.6116 11.9998 14.6116C12.1956 14.6116 12.3543 14.5209 12.3543 14.409L12.3543 14.1051Z" fill="#2FA9FF"/>
<path d="M17.2164 12.6951H16.5074V12.999C16.5074 13.1109 16.6661 13.2016 16.8619 13.2016C17.0577 13.2016 17.2164 13.1109 17.2164 12.999C17.2164 12.9989 17.2164 12.9987 17.2164 12.9986V12.6951Z" fill="#2FA9FF"/>
<path d="M16.0009 13.4001H15.2919V13.704C15.2919 13.8159 15.4506 13.9066 15.6464 13.9066C15.8422 13.9066 16.0009 13.8159 16.0009 13.704C16.0009 13.7037 16.0009 13.7034 16.0009 13.7031V13.4001Z" fill="#2FA9FF"/>
<path d="M14.7854 14.1051H14.0763V14.409C14.0763 14.5209 14.235 14.6116 14.4308 14.6116C14.6266 14.6116 14.7854 14.5209 14.7854 14.409C14.7854 14.4086 14.7854 14.4083 14.7854 14.4079V14.1051Z" fill="#2FA9FF"/>
<path d="M8.7071 10.5801H7.99805V10.8836C7.99805 10.8837 7.99805 10.8838 7.99805 10.884C7.99805 10.9958 8.15677 11.0865 8.35257 11.0865C8.54837 11.0865 8.7071 10.9958 8.7071 10.884V10.5801Z" fill="#1884CF"/>
<path d="M9.92261 11.2851H9.21356V11.588C9.21355 11.5883 9.21355 11.5887 9.21355 11.589C9.21355 11.7008 9.37228 11.7915 9.56808 11.7915C9.76388 11.7915 9.92261 11.7008 9.92261 11.589L9.92261 11.2851Z" fill="#1884CF"/>
<path d="M12.3537 11.2851H11.6446V11.5875C11.6446 11.588 11.6446 11.5885 11.6446 11.589C11.6446 11.7008 11.8033 11.7915 11.9991 11.7915C12.1949 11.7915 12.3537 11.7008 12.3537 11.589L12.3537 11.2851Z" fill="#1884CF"/>
<path d="M11.1382 11.9901H10.4291V12.2927C10.4291 12.2931 10.4291 12.2935 10.4291 12.294C10.4291 12.4059 10.5878 12.4966 10.7836 12.4966C10.9794 12.4966 11.1382 12.4059 11.1382 12.294L11.1382 11.9901Z" fill="#1884CF"/>
<path d="M16.0002 10.5801H15.2912V10.884C15.2912 10.9958 15.4499 11.0865 15.6457 11.0865C15.8415 11.0865 16.0002 10.9958 16.0002 10.884C16.0002 10.8838 16.0002 10.8835 16.0002 10.8833V10.5801Z" fill="#1884CF"/>
<path d="M14.7847 11.2851H14.0757V11.589C14.0757 11.7008 14.2344 11.7915 14.4302 11.7915C14.626 11.7915 14.7847 11.7008 14.7847 11.589C14.7847 11.5886 14.7847 11.5883 14.7847 11.5879V11.2851Z" fill="#1884CF"/>
<path d="M13.5692 11.9901H12.8601V12.294C12.8601 12.4059 13.0189 12.4966 13.2147 12.4966C13.4105 12.4966 13.5692 12.4059 13.5692 12.294C13.5692 12.2935 13.5692 12.2931 13.5692 12.2926V11.9901Z" fill="#1884CF"/>
<path d="M8.70776 10.5795C8.70776 10.6914 8.54903 10.7821 8.35323 10.7821C8.15743 10.7821 7.99871 10.6914 7.99871 10.5795C7.99871 10.4677 8.15743 10.377 8.35323 10.377C8.54903 10.377 8.70776 10.4677 8.70776 10.5795Z" fill="#EFF8FF"/>
<path d="M9.92327 11.2845C9.92327 11.3964 9.76454 11.4871 9.56874 11.4871C9.37294 11.4871 9.21421 11.3964 9.21421 11.2845C9.21421 11.1727 9.37294 11.082 9.56874 11.082C9.76454 11.082 9.92327 11.1727 9.92327 11.2845Z" fill="#EFF8FF"/>
<path d="M12.3543 11.2845C12.3543 11.3964 12.1956 11.4871 11.9998 11.4871C11.804 11.4871 11.6453 11.3964 11.6453 11.2845C11.6453 11.1727 11.804 11.082 11.9998 11.082C12.1956 11.082 12.3543 11.1727 12.3543 11.2845Z" fill="#EFF8FF"/>
<path d="M11.1388 11.9896C11.1388 12.1014 10.9801 12.1921 10.7843 12.1921C10.5885 12.1921 10.4298 12.1014 10.4298 11.9896C10.4298 11.8777 10.5885 11.787 10.7843 11.787C10.9801 11.787 11.1388 11.8777 11.1388 11.9896Z" fill="#EFF8FF"/>
<path d="M16.0009 10.5795C16.0009 10.6914 15.8422 10.7821 15.6464 10.7821C15.4506 10.7821 15.2918 10.6914 15.2918 10.5795C15.2918 10.4677 15.4506 10.377 15.6464 10.377C15.8422 10.377 16.0009 10.4677 16.0009 10.5795Z" fill="#EFF8FF"/>
<path d="M14.7854 11.2845C14.7854 11.3964 14.6266 11.4871 14.4308 11.4871C14.235 11.4871 14.0763 11.3964 14.0763 11.2845C14.0763 11.1727 14.235 11.082 14.4308 11.082C14.6266 11.082 14.7854 11.1727 14.7854 11.2845Z" fill="#EFF8FF"/>
<path d="M13.5698 11.9896C13.5698 12.1014 13.4111 12.1921 13.2153 12.1921C13.0195 12.1921 12.8608 12.1014 12.8608 11.9896C12.8608 11.8777 13.0195 11.787 13.2153 11.787C13.4111 11.787 13.5698 11.8777 13.5698 11.9896Z" fill="#EFF8FF"/>
<path d="M12.3543 12.6946C12.3543 12.8064 12.1956 12.8971 11.9998 12.8971C11.804 12.8971 11.6453 12.8064 11.6453 12.6946C11.6453 12.5827 11.804 12.492 11.9998 12.492C12.1956 12.492 12.3543 12.5827 12.3543 12.6946Z" fill="#EFF8FF"/>
<path d="M7.49226 11.2845C7.49226 11.3964 7.33353 11.4871 7.13773 11.4871C6.94193 11.4871 6.7832 11.3964 6.7832 11.2845C6.7832 11.1727 6.94193 11.082 7.13773 11.082C7.33353 11.082 7.49226 11.1727 7.49226 11.2845Z" fill="#EFF8FF"/>
<path d="M17.2164 11.2845C17.2164 11.3964 17.0577 11.4871 16.8619 11.4871C16.6661 11.4871 16.5074 11.3964 16.5074 11.2845C16.5074 11.1727 16.6661 11.082 16.8619 11.082C17.0577 11.082 17.2164 11.1727 17.2164 11.2845Z" fill="#EFF8FF"/>
<path d="M8.70776 11.9896C8.70776 12.1014 8.54903 12.1921 8.35323 12.1921C8.15743 12.1921 7.99871 12.1014 7.99871 11.9896C7.99871 11.8777 8.15743 11.787 8.35323 11.787C8.54903 11.787 8.70776 11.8777 8.70776 11.9896Z" fill="#EFF8FF"/>
<path d="M7.49226 12.6946C7.49226 12.8064 7.33353 12.8971 7.13773 12.8971C6.94193 12.8971 6.7832 12.8064 6.7832 12.6946C6.7832 12.5827 6.94193 12.492 7.13773 12.492C7.33353 12.492 7.49226 12.5827 7.49226 12.6946Z" fill="#EFF8FF"/>
<path d="M9.92331 12.6946C9.92331 12.8064 9.76458 12.8971 9.56878 12.8971C9.37298 12.8971 9.21425 12.8064 9.21425 12.6946C9.21425 12.5827 9.37298 12.492 9.56878 12.492C9.76458 12.492 9.92331 12.5827 9.92331 12.6946Z" fill="#EFF8FF"/>
<path d="M8.70776 13.3996C8.70776 13.5114 8.54903 13.6021 8.35323 13.6021C8.15743 13.6021 7.99871 13.5114 7.99871 13.3996C7.99871 13.2877 8.15743 13.197 8.35323 13.197C8.54903 13.197 8.70776 13.2877 8.70776 13.3996Z" fill="#EFF8FF"/>
<path d="M11.1388 13.3996C11.1388 13.5114 10.9801 13.6021 10.7843 13.6021C10.5885 13.6021 10.4298 13.5114 10.4298 13.3996C10.4298 13.2877 10.5885 13.197 10.7843 13.197C10.9801 13.197 11.1388 13.2877 11.1388 13.3996Z" fill="#EFF8FF"/>
<path d="M9.92331 14.1046C9.92331 14.2164 9.76458 14.3071 9.56878 14.3071C9.37298 14.3071 9.21425 14.2164 9.21425 14.1046C9.21425 13.9927 9.37298 13.902 9.56878 13.902C9.76458 13.902 9.92331 13.9927 9.92331 14.1046Z" fill="#EFF8FF"/>
<path d="M16.0009 11.9896C16.0009 12.1014 15.8422 12.1921 15.6464 12.1921C15.4506 12.1921 15.2919 12.1014 15.2919 11.9896C15.2919 11.8777 15.4506 11.787 15.6464 11.787C15.8422 11.787 16.0009 11.8777 16.0009 11.9896Z" fill="#EFF8FF"/>
<path d="M14.7854 12.6946C14.7854 12.8064 14.6266 12.8971 14.4308 12.8971C14.235 12.8971 14.0763 12.8064 14.0763 12.6946C14.0763 12.5827 14.235 12.492 14.4308 12.492C14.6266 12.492 14.7854 12.5827 14.7854 12.6946Z" fill="#EFF8FF"/>
<path d="M13.5699 13.3996C13.5699 13.5114 13.4112 13.6021 13.2154 13.6021C13.0196 13.6021 12.8608 13.5114 12.8608 13.3996C12.8608 13.2877 13.0196 13.197 13.2154 13.197C13.4112 13.197 13.5699 13.2877 13.5699 13.3996Z" fill="#EFF8FF"/>
<path d="M12.3543 14.1046C12.3543 14.2164 12.1956 14.3071 11.9998 14.3071C11.804 14.3071 11.6453 14.2164 11.6453 14.1046C11.6453 13.9927 11.804 13.902 11.9998 13.902C12.1956 13.902 12.3543 13.9927 12.3543 14.1046Z" fill="#EFF8FF"/>
<path d="M17.2164 12.6946C17.2164 12.8064 17.0577 12.8971 16.8619 12.8971C16.6661 12.8971 16.5074 12.8064 16.5074 12.6946C16.5074 12.5827 16.6661 12.492 16.8619 12.492C17.0577 12.492 17.2164 12.5827 17.2164 12.6946Z" fill="#EFF8FF"/>
<path d="M16.0009 13.3996C16.0009 13.5114 15.8422 13.6021 15.6464 13.6021C15.4506 13.6021 15.2919 13.5114 15.2919 13.3996C15.2919 13.2877 15.4506 13.197 15.6464 13.197C15.8422 13.197 16.0009 13.2877 16.0009 13.3996Z" fill="#EFF8FF"/>
<path d="M14.7854 14.1046C14.7854 14.2164 14.6266 14.3071 14.4308 14.3071C14.235 14.3071 14.0763 14.2164 14.0763 14.1046C14.0763 13.9927 14.235 13.902 14.4308 13.902C14.6266 13.902 14.7854 13.9927 14.7854 14.1046Z" fill="#EFF8FF"/>
<path d="M8.7071 10.5795C8.7071 10.6914 8.54837 10.7821 8.35257 10.7821C8.15677 10.7821 7.99805 10.6914 7.99805 10.5795C7.99805 10.4677 8.15677 10.377 8.35257 10.377C8.54837 10.377 8.7071 10.4677 8.7071 10.5795Z" fill="#B5C7D6"/>
<path d="M9.92261 11.2845C9.92261 11.3964 9.76388 11.4871 9.56808 11.4871C9.37228 11.4871 9.21355 11.3964 9.21355 11.2845C9.21355 11.1727 9.37228 11.082 9.56808 11.082C9.76388 11.082 9.92261 11.1727 9.92261 11.2845Z" fill="#B5C7D6"/>
<path d="M12.3537 11.2845C12.3537 11.3964 12.1949 11.4871 11.9991 11.4871C11.8033 11.4871 11.6446 11.3964 11.6446 11.2845C11.6446 11.1727 11.8033 11.082 11.9991 11.082C12.1949 11.082 12.3537 11.1727 12.3537 11.2845Z" fill="#B5C7D6"/>
<path d="M11.1382 11.9896C11.1382 12.1014 10.9794 12.1921 10.7836 12.1921C10.5878 12.1921 10.4291 12.1014 10.4291 11.9896C10.4291 11.8777 10.5878 11.787 10.7836 11.787C10.9794 11.787 11.1382 11.8777 11.1382 11.9896Z" fill="#B5C7D6"/>
<path d="M16.0002 10.5795C16.0002 10.6914 15.8415 10.7821 15.6457 10.7821C15.4499 10.7821 15.2912 10.6914 15.2912 10.5795C15.2912 10.4677 15.4499 10.377 15.6457 10.377C15.8415 10.377 16.0002 10.4677 16.0002 10.5795Z" fill="#B5C7D6"/>
<path d="M14.7847 11.2845C14.7847 11.3964 14.626 11.4871 14.4302 11.4871C14.2344 11.4871 14.0757 11.3964 14.0757 11.2845C14.0757 11.1727 14.2344 11.082 14.4302 11.082C14.626 11.082 14.7847 11.1727 14.7847 11.2845Z" fill="#B5C7D6"/>
<path d="M13.5692 11.9896C13.5692 12.1014 13.4105 12.1921 13.2147 12.1921C13.0189 12.1921 12.8601 12.1014 12.8601 11.9896C12.8601 11.8777 13.0189 11.787 13.2147 11.787C13.4105 11.787 13.5692 11.8777 13.5692 11.9896Z" fill="#B5C7D6"/>
<path d="M15.6465 10.2782L16.862 9.56917V8.4043L15.6465 9.11335V10.2782Z" fill="#2F83FF"/>
<path d="M14.4307 7.2364L15.6462 6.52734L16.8617 7.2364L15.6462 7.94545L14.4307 7.2364Z" fill="#71C3FF"/>
<path fill-rule="evenodd" clip-rule="evenodd" d="M16.001 6.95898H15.292V7.26286C15.292 7.26288 15.292 7.26289 15.292 7.2629C15.292 7.37479 15.4507 7.46549 15.6465 7.46549C15.8423 7.46549 16.001 7.37479 16.001 7.2629C16.001 7.26289 16.001 7.26288 16.001 7.26286V6.95898Z" fill="#2FA9FF"/>
<ellipse cx="15.6465" cy="6.95845" rx="0.354527" ry="0.202587" fill="#EFF8FF"/>
<path d="M15.6465 9.11026L16.862 8.4012V7.23633L15.6465 7.94538V9.11026Z" fill="#2F83FF"/>
<path d="M14.4307 10.9814L15.6462 10.2723V9.10742L14.4307 9.81648V10.9814Z" fill="#2F83FF"/>
<path d="M14.4307 9.81534L15.6462 9.10628V7.94141L14.4307 8.65046V9.81534Z" fill="#2F83FF"/>
<path d="M14.4307 8.64737L15.6462 7.93831V6.77344L14.4307 7.48249V8.64737Z" fill="#2F83FF"/>
<path d="M13.2148 11.6884L14.4304 10.9793V9.81445L13.2148 10.5235V11.6884Z" fill="#2F83FF"/>
<path d="M12 9.81445V10.9793L13.2155 11.6884V10.5235L12 9.81445Z" fill="#2FA9FF"/>
<path d="M13.2148 10.5204L14.4304 9.81136V8.64648L13.2148 9.35554V10.5204Z" fill="#2F83FF"/>
<path d="M12 8.64648V9.81136L13.2155 10.5204V9.35554L12 8.64648Z" fill="#2FA9FF"/>
<path d="M13.2148 5.60749L14.4304 4.89844L15.6459 5.60749L14.4304 6.31655L13.2148 5.60749Z" fill="#FFB8B4"/>
<path d="M14.4307 7.48135L15.6462 6.7723V5.60742L14.4307 6.31648V7.48135Z" fill="#EA6463"/>
<path fill-rule="evenodd" clip-rule="evenodd" d="M14.7852 5.33203H14.0762V5.63591C14.0762 5.63592 14.0762 5.63594 14.0762 5.63595C14.0762 5.74783 14.2349 5.83854 14.4307 5.83854C14.6265 5.83854 14.7852 5.74783 14.7852 5.63595C14.7852 5.63594 14.7852 5.63592 14.7852 5.63591V5.33203Z" fill="#F88887"/>
<ellipse cx="14.4307" cy="5.33149" rx="0.354527" ry="0.202587" fill="#FFEDEF"/>
<path d="M13.2158 9.3544L14.4313 8.64534V7.48047L13.2158 8.18952V9.3544Z" fill="#EA6463"/>
<path d="M13.2158 7.02041L14.4313 6.31136V5.14648L13.2158 5.85554V7.02041Z" fill="#EA6463"/>
<path d="M12 7.48047V8.64534L13.2155 9.3544V8.18952L12 7.48047Z" fill="#F88887"/>
<path d="M13.2158 8.18643L14.4313 7.47738V6.3125L13.2158 7.02155V8.18643Z" fill="#EA6463"/>
<path d="M12 6.3125V7.47738L13.2155 8.18643V7.02155L12 6.3125Z" fill="#F88887"/>
<path d="M12 5.14648V6.31136L13.2155 7.02041V5.85554L12 5.14648Z" fill="#F88887"/>
<path d="M12 3.97859L13.2155 3.26953L14.431 3.97859L13.2155 4.68764L12 3.97859Z" fill="#FFB8B4"/>
<path d="M13.2158 5.85245L14.4313 5.14339V3.97852L13.2158 4.68757V5.85245Z" fill="#EA6463"/>
<path d="M12 3.97852V5.14339L13.2155 5.85245V4.68757L12 3.97852Z" fill="#F88887"/>
<path fill-rule="evenodd" clip-rule="evenodd" d="M13.5694 3.70117H12.8604V4.00505C12.8604 4.00506 12.8604 4.00508 12.8604 4.00509C12.8604 4.11698 13.0191 4.20768 13.2149 4.20768C13.4107 4.20768 13.5694 4.11698 13.5694 4.00509C13.5694 4.00508 13.5694 4.00506 13.5694 4.00505V3.70117Z" fill="#F88887"/>
<ellipse cx="13.2149" cy="3.70063" rx="0.354527" ry="0.202587" fill="#FFEDEF"/>
<path d="M7.1377 8.4043V9.56917L8.35322 10.2782V9.11335L7.1377 8.4043Z" fill="#35C16D"/>
<path d="M7.1377 7.2364L8.35322 6.52734L9.56874 7.2364L8.35322 7.94545L7.1377 7.2364Z" fill="#6EFAA6"/>
<path d="M7.1377 7.23633V8.4012L8.35322 9.11026V7.94538L7.1377 7.23633Z" fill="#35C16D"/>
<path fill-rule="evenodd" clip-rule="evenodd" d="M8.7071 6.95703H7.99805V7.26091C7.99805 7.26092 7.99805 7.26094 7.99805 7.26095C7.99805 7.37283 8.15677 7.46354 8.35257 7.46354C8.54837 7.46354 8.7071 7.37283 8.7071 7.26095C8.7071 7.26094 8.7071 7.26092 8.7071 7.26091V6.95703Z" fill="#35C16D"/>
<ellipse cx="8.35257" cy="6.95845" rx="0.354527" ry="0.202587" fill="#E7FFF0"/>
<path d="M8.35352 9.10742V10.2723L9.56904 10.9814V9.81648L8.35352 9.10742Z" fill="#35C16D"/>
<path d="M8.35352 7.94141V9.10628L9.56904 9.81534V8.65046L8.35352 7.94141Z" fill="#35C16D"/>
<path d="M8.35352 6.77344V7.93831L9.56904 8.64737V7.48249L8.35352 6.77344Z" fill="#35C16D"/>
<path d="M10.7852 11.6884L12.0007 10.9793V9.81445L10.7852 10.5235V11.6884Z" fill="#1FAB57"/>
<path d="M9.56836 9.81445V10.9793L10.7839 11.6884V10.5235L9.56836 9.81445Z" fill="#35C16D"/>
<path d="M10.7852 10.5204L12.0007 9.81136V8.64648L10.7852 9.35554V10.5204Z" fill="#1FAB57"/>
<path d="M9.56836 8.64648V9.81136L10.7839 10.5204V9.35554L9.56836 8.64648Z" fill="#35C16D"/>
<path d="M8.35352 5.60749L9.56904 4.89844L10.7846 5.60749L9.56904 6.31655L8.35352 5.60749Z" fill="#FFEE92"/>
<path d="M8.35352 5.60742V6.7723L9.56904 7.48135V6.31648L8.35352 5.60742Z" fill="#FFDE2E"/>
<path fill-rule="evenodd" clip-rule="evenodd" d="M9.9239 5.33203H9.21484V5.63591C9.21484 5.63592 9.21484 5.63594 9.21484 5.63595C9.21484 5.74783 9.37357 5.83854 9.56937 5.83854C9.76517 5.83854 9.9239 5.74783 9.9239 5.63595C9.9239 5.63594 9.9239 5.63592 9.9239 5.63591V5.33203Z" fill="#FFDE2E"/>
<ellipse cx="9.56937" cy="5.33149" rx="0.354527" ry="0.202587" fill="#FFF6DF"/>
<path d="M10.7842 9.3544L11.9997 8.64534V7.48047L10.7842 8.18952V9.3544Z" fill="#DBBA0E"/>
<path d="M9.56836 7.48047V8.64534L10.7839 9.3544V8.18952L9.56836 7.48047Z" fill="#FFDE2E"/>
<path d="M10.7842 8.18643L11.9997 7.47738V6.3125L10.7842 7.02155V8.18643Z" fill="#DBBA0E"/>
<path d="M9.56836 6.3125V7.47738L10.7839 8.18643V7.02155L9.56836 6.3125Z" fill="#FFDE2E"/>
<path d="M10.7842 7.02041L11.9997 6.31136V5.14648L10.7842 5.85554V7.02041Z" fill="#DBBA0E"/>
<path d="M9.56836 5.14648V6.31136L10.7839 7.02041V5.85554L9.56836 5.14648Z" fill="#FFDE2E"/>
<path d="M9.56836 3.97859L10.7839 3.26953L11.9994 3.97859L10.7839 4.68764L9.56836 3.97859Z" fill="#FFEE92"/>
<path d="M10.7842 5.85245L11.9997 5.14339V3.97852L10.7842 4.68757V5.85245Z" fill="#DBBA0E"/>
<path d="M9.56836 3.97852V5.14339L10.7839 5.85245V4.68757L9.56836 3.97852Z" fill="#FFDE2E"/>
<path fill-rule="evenodd" clip-rule="evenodd" d="M11.1378 3.70117H10.4287V4.00505C10.4287 4.00506 10.4287 4.00508 10.4287 4.00509C10.4287 4.11698 10.5874 4.20768 10.7832 4.20768C10.979 4.20768 11.1378 4.11698 11.1378 4.00509C11.1378 4.00508 11.1378 4.00506 11.1378 4.00505V3.70117Z" fill="#FFDE2E"/>
<ellipse cx="10.7832" cy="3.70063" rx="0.354527" ry="0.202587" fill="#FFF6DF"/>
</svg>
