<svg width="40" height="40" viewBox="0 0 40 40" fill="none" xmlns="http://www.w3.org/2000/svg">
<path fill-rule="evenodd" clip-rule="evenodd" d="M0 20C0 8.95431 8.95431 0 20 0C31.0457 0 40 8.95431 40 20C40 31.0457 31.0457 40 20 40C8.95431 40 0 31.0457 0 20Z" fill="#7289DA"/>
<path fill-rule="evenodd" clip-rule="evenodd" d="M23.6301 25.2196C24.1438 25.8982 24.7603 26.666 24.7603 26.666C28.5445 26.541 30 23.9518 30 23.9518C30 18.2018 27.5342 13.5411 27.5342 13.5411C25.0685 11.6126 22.7226 11.6662 22.7226 11.6662L22.4829 11.9519C25.3938 12.8804 26.7466 14.2197 26.7466 14.2197C24.9658 13.2019 23.2192 12.7019 21.5925 12.5054C20.3596 12.3626 19.1781 12.3983 18.1336 12.5412C18.0439 12.5412 17.9672 12.5548 17.8809 12.5701C17.8683 12.5723 17.8555 12.5746 17.8425 12.5769C17.2432 12.6304 15.7877 12.8626 13.9555 13.7019C13.3219 14.0054 12.9452 14.2197 12.9452 14.2197C12.9452 14.2197 14.3664 12.809 17.4486 11.8804L17.2774 11.6662C17.2774 11.6662 14.9315 11.6126 12.4658 13.5411C12.4658 13.5411 10 18.2018 10 23.9518C10 23.9518 11.4384 26.541 15.2226 26.666C15.2226 26.666 15.8562 25.8625 16.3699 25.1839C14.1952 24.5053 13.3733 23.0768 13.3733 23.0768C13.3733 23.0768 13.5445 23.2018 13.8527 23.3803C13.8699 23.3982 13.887 23.416 13.9212 23.4339C13.9469 23.4518 13.9726 23.4652 13.9983 23.4785C14.024 23.4919 14.0497 23.5053 14.0753 23.5232C14.5034 23.7732 14.9315 23.9696 15.3253 24.1303C16.0274 24.416 16.8664 24.7017 17.8425 24.8982C19.1267 25.1482 20.6336 25.2375 22.2774 24.916C23.0822 24.7732 23.9041 24.5232 24.7603 24.1482C25.3596 23.916 26.0274 23.5768 26.7295 23.0946C26.7295 23.0946 25.8733 24.5589 23.6301 25.2196ZM17.2802 18.6509C16.3119 18.6509 15.5474 19.5701 15.5474 20.6917C15.5474 21.8132 16.3289 22.7325 17.2802 22.7325C18.2486 22.7325 19.013 21.8132 19.013 20.6917C19.03 19.5701 18.2486 18.6509 17.2802 18.6509ZM23.481 18.6509C22.5126 18.6509 21.7482 19.5701 21.7482 20.6917C21.7482 21.8132 22.5296 22.7325 23.481 22.7325C24.4493 22.7325 25.2138 21.8132 25.2138 20.6917C25.2138 19.5701 24.4493 18.6509 23.481 18.6509Z" fill="white"/>
</svg>
