<svg viewBox="0 0 40 40" fill="none" xmlns="http://www.w3.org/2000/svg">
<path fill-rule="evenodd" clip-rule="evenodd" d="M0 20C0 8.95431 8.95431 0 20 0C31.0457 0 40 8.95431 40 20C40 31.0457 31.0457 40 20 40C8.95431 40 0 31.0457 0 20Z" fill="#14171A"/>
<path d="M21.5849 18.7196L27.7895 11.666H26.3192L20.9318 17.7905L16.6289 11.666H11.666L18.1728 20.9274L11.666 28.3241H13.1364L18.8256 21.8564L23.3698 28.3241H28.3327L21.5846 18.7196H21.5849ZM19.5711 21.009L18.9118 20.0867L13.6662 12.7485H15.9246L20.1578 18.6707L20.8171 19.5929L26.3199 27.2908H24.0615L19.5711 21.0093V21.009Z" fill="white"/>
</svg>
