<svg width="1652" height="389" viewBox="0 0 1652 389" fill="none" xmlns="http://www.w3.org/2000/svg">
<path d="M548.557 9.64484C573.277 -9.21699 590.748 5.40093 590.748 5.40093C602.981 -0.343352 613.741 3.68623 619.319 10.245C622.774 14.3603 615.015 13.6315 597.6 13.6315H549.208C548.84 13.6315 548.487 13.4104 548.227 13.0164C547.966 12.6224 547.82 12.0883 547.82 11.531C547.823 11.1465 547.892 10.7693 548.021 10.4383C548.15 10.107 548.335 9.83346 548.557 9.64484Z" fill="#5865F2"/>
<path d="M888.72 77.8193C894.978 73.0181 899.395 76.7476 899.395 76.7476C902.481 75.2901 905.228 76.3189 906.616 77.9479C907.493 79.0196 905.54 78.8053 901.122 78.8053H888.861C888.771 78.8053 888.685 78.7513 888.621 78.6548C888.557 78.5584 888.521 78.4272 888.521 78.2909C888.521 78.1918 888.539 78.0945 888.574 78.0109C888.61 77.9273 888.66 77.8605 888.72 77.8193Z" fill="#5865F2"/>
<path d="M694.746 45.4492C693.047 45.4505 691.374 46.0751 689.87 47.2694C688.366 48.4641 687.075 50.193 686.109 52.3081C682.329 49.7013 678.135 48.792 674.023 49.6888C669.912 50.5856 666.058 53.2503 662.918 57.3665H704.911C704.323 53.9598 703.007 50.9432 701.169 48.7878C699.33 46.6319 697.071 45.4582 694.746 45.4492Z" fill="#5865F2"/>
<path fill-rule="evenodd" clip-rule="evenodd" d="M1359.39 282.506C1465.01 188.432 1523.93 241.445 1651.47 388.731H717.292C717.292 388.731 717.292 388.732 717.292 388.732H0C8.02471 381.331 17.2863 370.239 27.5173 357.986C59.6533 319.498 101.353 269.556 144.327 286.573C150.502 289.005 157.026 288.797 163.122 285.971C169.218 283.145 174.628 277.822 178.707 270.636C216.336 204.192 241.021 229.159 285.936 305.452C303.669 271.327 318.436 292.391 355.416 345.142C356.474 346.651 357.551 348.187 358.646 349.748C437.07 278.463 464.908 255.266 537.586 322.837C588.073 263.053 650.816 196.275 715.314 221.815C725.403 225.79 736.064 225.449 746.024 220.832C755.983 216.215 764.822 207.517 771.486 195.776C832.969 87.2145 873.301 128.009 946.687 252.661C975.66 196.905 999.788 231.322 1060.21 317.51C1061.94 319.976 1063.7 322.485 1065.49 325.036C1194.17 208.061 1239.5 170.339 1359.39 282.506Z" fill="#5865F2"/>
<path d="M812.576 172.625C812.119 172.244 811.731 171.735 811.439 171.136C811.148 170.538 810.96 169.862 810.889 169.157L810.608 166.796C810.608 166.737 810.59 166.68 810.558 166.639C810.527 166.598 810.483 166.574 810.439 166.574C810.394 166.574 810.351 166.598 810.32 166.639C810.287 166.68 810.27 166.737 810.27 166.796L809.989 169.157C809.917 169.862 809.729 170.538 809.438 171.136C809.146 171.735 808.758 172.244 808.301 172.625L808.02 172.847C807.964 172.847 807.964 172.994 807.964 173.068C807.961 173.108 807.965 173.148 807.974 173.186C807.984 173.224 807.999 173.26 808.02 173.289L808.301 173.437C808.746 173.836 809.125 174.349 809.415 174.945C809.705 175.541 809.9 176.208 809.989 176.905L810.27 179.34C810.27 179.399 810.287 179.455 810.32 179.497C810.351 179.538 810.394 179.562 810.439 179.562C810.483 179.562 810.527 179.538 810.558 179.497C810.59 179.455 810.608 179.399 810.608 179.34L810.889 176.905C810.977 176.208 811.172 175.541 811.462 174.945C811.752 174.349 812.131 173.836 812.576 173.437L812.858 173.289C812.878 173.26 812.893 173.224 812.903 173.186C812.913 173.148 812.916 173.108 812.914 173.068C812.914 172.994 812.914 172.847 812.858 172.847L812.576 172.625Z" fill="white"/>
<path d="M761.397 130.353C760.762 129.986 760.226 129.513 759.817 128.962C759.401 128.412 759.126 127.795 758.999 127.15L758.646 124.974C758.646 124.853 758.505 124.793 758.364 124.793C758.336 124.793 758.308 124.798 758.28 124.807C758.258 124.816 758.237 124.829 758.216 124.846C758.195 124.863 758.181 124.883 758.167 124.905C758.16 124.927 758.153 124.951 758.153 124.974L757.729 127.15C757.631 127.796 757.377 128.416 756.975 128.969C756.573 129.521 756.037 129.994 755.402 130.353L755.049 130.534C754.979 130.534 754.908 130.595 754.908 130.715C754.908 130.776 754.979 130.836 755.049 130.897L755.402 131.078C756.023 131.434 756.552 131.897 756.954 132.438C757.356 132.979 757.617 133.587 757.729 134.221L758.153 136.396C758.153 136.444 758.174 136.49 758.216 136.524C758.251 136.559 758.308 136.577 758.364 136.577C758.505 136.577 758.646 136.517 758.646 136.396L758.999 134.221C759.133 133.586 759.415 132.982 759.824 132.442C760.24 131.902 760.769 131.438 761.397 131.078L761.75 130.897C761.778 130.873 761.792 130.844 761.806 130.812C761.82 130.781 761.82 130.748 761.82 130.715C761.82 130.595 761.82 130.534 761.75 130.534L761.397 130.353Z" fill="#5865F2"/>
<path d="M973.158 126.639C972.166 125.907 971.328 124.963 970.688 123.864C970.038 122.766 969.608 121.536 969.409 120.248L968.858 115.907C968.858 115.665 968.637 115.545 968.417 115.545C968.373 115.545 968.329 115.555 968.284 115.573C968.251 115.591 968.218 115.617 968.185 115.651C968.152 115.685 968.13 115.725 968.108 115.768C968.097 115.813 968.086 115.86 968.086 115.907L967.424 120.248C967.27 121.537 966.873 122.774 966.245 123.877C965.616 124.98 964.778 125.923 963.786 126.639L963.234 127.001C963.124 127.001 963.014 127.121 963.014 127.362C963.014 127.483 963.124 127.604 963.234 127.724L963.786 128.086C964.756 128.796 965.583 129.72 966.211 130.8C966.84 131.88 967.248 133.091 967.424 134.356L968.086 138.698C968.086 138.794 968.119 138.886 968.185 138.953C968.24 139.022 968.329 139.059 968.417 139.059C968.637 139.059 968.858 138.939 968.858 138.698L969.409 134.356C969.619 133.09 970.06 131.884 970.699 130.808C971.35 129.731 972.177 128.805 973.158 128.086L973.71 127.724C973.754 127.676 973.776 127.618 973.798 127.555C973.82 127.494 973.82 127.428 973.82 127.362C973.82 127.121 973.82 127.001 973.71 127.001L973.158 126.639Z" fill="#FFF983"/>
<path d="M948.926 35.4888C948.36 35.1927 947.883 34.8106 947.518 34.3662C947.148 33.9217 946.902 33.424 946.789 32.9029L946.475 31.1464C946.475 31.0488 946.349 31 946.224 31C946.199 31 946.174 31.0039 946.148 31.0112C946.13 31.0185 946.111 31.0293 946.092 31.0429C946.073 31.0566 946.06 31.0727 946.048 31.0903C946.042 31.1083 946.035 31.1273 946.035 31.1464L945.658 32.9029C945.57 33.4245 945.344 33.9251 944.986 34.3715C944.628 34.8175 944.15 35.199 943.584 35.4888L943.27 35.6352C943.207 35.6352 943.145 35.684 943.145 35.7816C943.145 35.8304 943.207 35.8792 943.27 35.928L943.584 36.0743C944.137 36.3617 944.609 36.7355 944.967 37.1727C945.325 37.6094 945.558 38.0997 945.658 38.6115L946.035 40.368C946.035 40.4071 946.054 40.4442 946.092 40.4715C946.123 40.4993 946.174 40.5144 946.224 40.5144C946.349 40.5144 946.475 40.4656 946.475 40.368L946.789 38.6115C946.909 38.0992 947.16 37.6113 947.525 37.1756C947.895 36.7399 948.367 36.3651 948.926 36.0743L949.24 35.928C949.265 35.9085 949.278 35.885 949.29 35.8597C949.303 35.8348 949.303 35.808 949.303 35.7816C949.303 35.684 949.303 35.6352 949.24 35.6352L948.926 35.4888Z" fill="#5865F2"/>
<path d="M959.013 14.484C985.299 -5.57201 1003.88 9.97139 1003.88 9.97139C1016.88 3.86343 1028.32 8.14812 1034.26 15.1221C1037.93 19.498 1029.68 18.7231 1011.16 18.7231H959.706C959.315 18.7231 958.939 18.4879 958.663 18.069C958.386 17.6501 958.23 17.0822 958.23 16.4896C958.233 16.0807 958.306 15.6796 958.444 15.3277C958.581 14.9754 958.778 14.6845 959.013 14.484Z" fill="#5865F2"/>
<path d="M840.749 0.580078C838.943 0.581446 837.164 1.24557 835.564 2.51548C833.965 3.78584 832.593 5.62416 831.566 7.87317C827.546 5.10134 823.086 4.13455 818.715 5.08812C814.343 6.04169 810.245 8.87505 806.906 13.2518H851.558C850.933 9.62943 849.534 6.42184 847.579 4.12999C845.623 1.83768 843.222 0.58965 840.749 0.580078Z" fill="#5865F2"/>
<path d="M1646.29 33.9998C1646.66 34.0057 1647.03 33.8902 1647.36 33.6617C1647.7 33.4329 1648 33.0968 1648.23 32.6772C1648.47 32.2579 1648.64 31.7654 1648.74 31.2354C1648.83 30.7055 1648.85 30.1512 1648.78 29.6123C1648.07 23.971 1646.15 18.8234 1643.3 14.9467C1640.44 11.07 1636.82 8.67479 1632.97 8.12275C1629.11 7.5705 1625.25 8.89155 1621.94 11.8862C1618.64 14.8808 1616.09 19.3864 1614.67 24.7228C1613.35 24.3017 1612.01 24.0893 1610.66 24.0897C1608.08 24.0834 1605.52 24.8782 1603.15 26.423C1600.78 27.9677 1598.66 30.2287 1596.91 33.0612C1596.87 33.1426 1596.84 33.2421 1596.83 33.3484C1596.81 33.4547 1596.82 33.5634 1596.85 33.6619C1596.88 33.7601 1596.93 33.8442 1596.99 33.904C1597.05 33.9638 1597.12 33.9969 1597.19 33.9998H1646.29Z" fill="#5865F2"/>
<path d="M533.2 196.204C532.517 195.813 531.937 195.291 531.502 194.677C531.066 194.063 530.785 193.37 530.679 192.648L530.259 190.227C530.259 190.167 530.232 190.109 530.185 190.067C530.137 190.024 530.073 190 530.006 190C529.939 190 529.875 190.024 529.828 190.067C529.78 190.109 529.754 190.167 529.754 190.227L529.334 192.648C529.227 193.37 528.946 194.063 528.51 194.677C528.075 195.291 527.495 195.813 526.812 196.204L526.392 196.431C526.308 196.431 526.308 196.582 526.308 196.658C526.304 196.699 526.31 196.74 526.324 196.779C526.338 196.818 526.361 196.854 526.392 196.885L526.812 197.036C527.477 197.445 528.044 197.971 528.477 198.582C528.91 199.193 529.202 199.877 529.334 200.592L529.754 203.088C529.754 203.149 529.78 203.206 529.828 203.249C529.875 203.291 529.939 203.315 530.006 203.315C530.073 203.315 530.137 203.291 530.185 203.249C530.232 203.206 530.259 203.149 530.259 203.088L530.679 200.592C530.811 199.877 531.102 199.193 531.535 198.582C531.969 197.971 532.535 197.445 533.2 197.036L533.621 196.885C533.651 196.854 533.674 196.818 533.689 196.779C533.703 196.74 533.708 196.699 533.705 196.658C533.705 196.582 533.705 196.431 533.621 196.431L533.2 196.204Z" fill="#FF78B9"/>
<path d="M699.137 22.8716C698.214 22.2492 697.43 21.4197 696.842 20.4422C696.253 19.4659 695.872 18.3632 695.729 17.2135L695.161 13.3611C695.161 13.266 695.125 13.1734 695.061 13.106C694.998 13.0385 694.91 13 694.82 13C694.73 13 694.643 13.0385 694.58 13.106C694.515 13.1734 694.48 13.266 694.48 13.3611L693.912 17.2135C693.767 18.3632 693.388 19.4659 692.798 20.4422C692.21 21.4197 691.426 22.2492 690.504 22.8716L689.936 23.2327C689.822 23.2327 689.822 23.4735 689.822 23.5939C689.816 23.6589 689.824 23.7251 689.844 23.7865C689.863 23.8491 689.894 23.9069 689.936 23.9551L690.504 24.1958C691.402 24.8471 692.168 25.6838 692.753 26.6553C693.339 27.628 693.733 28.7163 693.912 29.8539L694.48 33.8266C694.48 33.9229 694.515 34.0144 694.58 34.0818C694.643 34.1493 694.73 34.1878 694.82 34.1878C694.91 34.1878 694.998 34.1493 695.061 34.0818C695.125 34.0144 695.161 33.9229 695.161 33.8266L695.729 29.8539C695.908 28.7163 696.301 27.628 696.887 26.6553C697.473 25.6838 698.238 24.8471 699.137 24.1958L699.705 23.9551C699.746 23.9069 699.777 23.8491 699.797 23.7865C699.817 23.7251 699.824 23.6589 699.819 23.5939C699.819 23.4735 699.819 23.2327 699.705 23.2327L699.137 22.8716Z" fill="#FF78B9"/>
<path d="M640.446 217.582C639.899 217.305 639.438 216.949 639.086 216.533C638.727 216.118 638.491 215.653 638.381 215.166L638.078 213.525C638.078 213.434 637.956 213.389 637.835 213.389C637.81 213.389 637.786 213.392 637.762 213.399C637.744 213.406 637.725 213.416 637.707 213.429C637.689 213.442 637.677 213.457 637.665 213.473C637.659 213.49 637.653 213.508 637.653 213.525L637.288 215.166C637.203 215.654 636.985 216.121 636.639 216.538C636.292 216.955 635.831 217.311 635.284 217.582L634.981 217.719C634.92 217.719 634.859 217.765 634.859 217.856C634.859 217.901 634.92 217.947 634.981 217.992L635.284 218.129C635.819 218.398 636.274 218.747 636.62 219.155C636.966 219.563 637.191 220.021 637.288 220.499L637.653 222.14C637.653 222.177 637.671 222.211 637.707 222.237C637.738 222.263 637.786 222.277 637.835 222.277C637.956 222.277 638.078 222.232 638.078 222.14L638.381 220.499C638.497 220.021 638.739 219.565 639.092 219.158C639.45 218.751 639.905 218.401 640.446 218.129L640.749 217.992C640.774 217.974 640.786 217.952 640.798 217.929C640.81 217.905 640.81 217.88 640.81 217.856C640.81 217.765 640.81 217.719 640.749 217.719L640.446 217.582Z" fill="white"/>
</svg>
