<svg width="1264" height="268" viewBox="0 0 1264 268" fill="none" xmlns="http://www.w3.org/2000/svg">
<path d="M53.7362 98.0706C78.4564 79.2088 95.9276 93.8267 95.9276 93.8267C108.16 88.0824 118.92 92.112 124.499 98.6708C127.953 102.786 120.195 102.057 102.78 102.057H54.3875C54.0195 102.057 53.6666 101.836 53.4064 101.442C53.1462 101.048 53 100.514 53 99.9568C53.0023 99.5723 53.0715 99.195 53.2008 98.8641C53.3301 98.5327 53.5147 98.2592 53.7362 98.0706Z" fill="#5865F2"/>
<path d="M393.899 166.245C400.157 161.444 404.575 165.173 404.575 165.173C407.661 163.716 410.408 164.745 411.795 166.374C412.673 167.445 410.719 167.231 406.302 167.231H394.041C393.951 167.231 393.864 167.177 393.801 167.081C393.737 166.984 393.701 166.853 393.701 166.717C393.701 166.618 393.719 166.52 393.754 166.437C393.79 166.353 393.84 166.286 393.899 166.245Z" fill="#5865F2"/>
<path d="M229.925 103.875C228.227 103.876 226.554 104.501 225.049 105.695C223.545 106.89 222.255 108.619 221.289 110.734C217.509 108.127 213.314 107.218 209.203 108.115C205.092 109.011 201.238 111.676 198.098 115.792H240.091C239.503 112.386 238.187 109.369 236.348 107.214C234.509 105.058 232.251 103.884 229.925 103.875Z" fill="#5865F2"/>
<path fill-rule="evenodd" clip-rule="evenodd" d="M1040.45 186.124C1121.29 114.122 1166.38 154.696 1264 267.426H367C367 267.426 367 267.426 367 267.426H0C6.14194 261.762 13.2306 253.272 21.0611 243.894C45.6574 214.436 77.5737 176.212 110.465 189.236C115.191 191.098 120.185 190.938 124.85 188.775C129.516 186.612 133.656 182.538 136.778 177.038C165.579 126.183 184.473 145.293 218.849 203.685C232.422 177.567 243.724 193.689 272.028 234.063C272.838 235.219 273.662 236.394 274.5 237.589C334.524 183.028 355.83 165.274 411.457 216.992C450.098 171.234 498.12 120.125 547.486 139.673C555.208 142.715 563.367 142.454 570.99 138.92C578.613 135.386 585.378 128.729 590.479 119.743C637.537 36.6521 668.406 67.8751 724.574 163.281C746.749 120.607 765.216 146.949 811.461 212.915C812.784 214.803 814.13 216.723 815.5 218.675C913.995 129.146 948.683 100.273 1040.45 186.124Z" fill="#5865F2"/>
<path d="M464.193 102.91C490.478 82.8538 509.056 98.3972 509.056 98.3972C522.063 92.2892 533.504 96.5739 539.436 103.548C543.109 107.924 534.859 107.149 516.342 107.149H464.886C464.494 107.149 464.119 106.914 463.842 106.495C463.566 106.076 463.41 105.508 463.41 104.915C463.413 104.507 463.486 104.105 463.624 103.753C463.761 103.401 463.957 103.11 464.193 102.91Z" fill="#5865F2"/>
<path d="M575.929 69.0059C574.122 69.0072 572.343 69.6713 570.744 70.9413C569.145 72.2116 567.772 74.0499 566.745 76.2989C562.726 73.5271 558.266 72.5603 553.894 73.5139C549.523 74.4675 545.425 77.3008 542.086 81.6776H586.738C586.113 78.0552 584.713 74.8476 582.758 72.5558C580.803 70.2635 578.401 69.0154 575.929 69.0059Z" fill="#5865F2"/>
<path d="M1151.47 122.426C1151.84 122.431 1152.21 122.316 1152.54 122.087C1152.88 121.859 1153.17 121.523 1153.41 121.103C1153.65 120.684 1153.82 120.191 1153.92 119.661C1154.01 119.131 1154.03 118.577 1153.96 118.038C1153.25 112.397 1151.33 107.249 1148.48 103.373C1145.62 99.4958 1142 97.1006 1138.15 96.5485C1134.29 95.9963 1130.43 97.3173 1127.12 100.312C1123.82 103.307 1121.27 107.812 1119.85 113.149C1118.53 112.727 1117.19 112.515 1115.84 112.516C1113.26 112.509 1110.7 113.304 1108.33 114.849C1105.96 116.394 1103.84 118.655 1102.09 121.487C1102.05 121.568 1102.02 121.668 1102 121.774C1101.99 121.881 1102 121.989 1102.03 122.088C1102.06 122.186 1102.11 122.27 1102.17 122.33C1102.23 122.39 1102.3 122.423 1102.37 122.426H1151.47Z" fill="#5865F2"/>
<path d="M578.756 6.98282C578.299 6.54256 577.911 5.95583 577.619 5.26437C577.328 4.57375 577.139 3.79371 577.068 2.98047L576.787 0.255458C576.787 0.188185 576.769 0.122636 576.738 0.0749483C576.706 0.0272608 576.663 0 576.618 0C576.573 0 576.531 0.0272608 576.499 0.0749483C576.467 0.122636 576.45 0.188185 576.45 0.255458L576.168 2.98047C576.097 3.79371 575.909 4.57375 575.617 5.26437C575.326 5.95583 574.938 6.54256 574.481 6.98282L574.2 7.23828C574.143 7.23828 574.143 7.40858 574.143 7.49374C574.141 7.53972 574.145 7.58656 574.154 7.62999C574.164 7.67427 574.179 7.71516 574.2 7.74922L574.481 7.91952C574.926 8.38022 575.305 8.97205 575.595 9.65926C575.885 10.3473 576.08 11.1171 576.168 11.9219L576.45 14.732C576.45 14.8001 576.467 14.8649 576.499 14.9126C576.531 14.9602 576.573 14.9875 576.618 14.9875C576.663 14.9875 576.706 14.9602 576.738 14.9126C576.769 14.8649 576.787 14.8001 576.787 14.732L577.068 11.9219C577.157 11.1171 577.351 10.3473 577.642 9.65926C577.932 8.97205 578.31 8.38022 578.756 7.91952L579.037 7.74922C579.057 7.71516 579.073 7.67427 579.083 7.62999C579.092 7.58656 579.096 7.53972 579.093 7.49374C579.093 7.40858 579.093 7.23828 579.037 7.23828L578.756 6.98282Z" fill="#FF78B9"/>
<path d="M796.577 98.7786C795.942 98.4118 795.406 97.9386 794.997 97.388C794.581 96.8375 794.306 96.2211 794.179 95.5756L793.826 93.4C793.826 93.2792 793.685 93.2188 793.544 93.2188C793.516 93.2188 793.488 93.2236 793.459 93.2326C793.438 93.2417 793.417 93.255 793.396 93.2719C793.375 93.2888 793.361 93.3088 793.346 93.3306C793.339 93.3529 793.332 93.3765 793.332 93.4L792.909 95.5756C792.81 96.2217 792.557 96.8417 792.154 97.3947C791.752 97.947 791.216 98.4196 790.582 98.7786L790.229 98.9599C790.158 98.9599 790.088 99.0203 790.088 99.1412C790.088 99.2016 790.158 99.2621 790.229 99.3225L790.582 99.5038C791.202 99.8598 791.731 100.323 792.133 100.864C792.535 101.405 792.796 102.012 792.909 102.646L793.332 104.822C793.332 104.87 793.354 104.916 793.396 104.95C793.431 104.985 793.488 105.003 793.544 105.003C793.685 105.003 793.826 104.943 793.826 104.822L794.179 102.646C794.313 102.012 794.595 101.407 795.004 100.868C795.42 100.328 795.949 99.864 796.577 99.5038L796.929 99.3225C796.958 99.2983 796.972 99.2693 796.986 99.2379C797 99.2071 797 99.1738 797 99.1412C797 99.0203 797 98.9599 796.929 98.9599L796.577 98.7786Z" fill="#5865F2"/>
<path d="M388.338 232.065C387.346 231.333 386.507 230.389 385.868 229.29C385.217 228.191 384.787 226.961 384.589 225.674L384.038 221.332C384.038 221.091 383.817 220.971 383.596 220.971C383.552 220.971 383.508 220.98 383.464 220.998C383.431 221.016 383.398 221.043 383.365 221.077C383.332 221.111 383.31 221.15 383.288 221.194C383.277 221.238 383.266 221.285 383.266 221.332L382.604 225.674C382.45 226.963 382.053 228.2 381.424 229.303C380.796 230.405 379.958 231.348 378.965 232.065L378.414 232.426C378.304 232.426 378.193 232.547 378.193 232.788C378.193 232.909 378.304 233.029 378.414 233.15L378.965 233.512C379.936 234.222 380.763 235.146 381.391 236.226C382.02 237.305 382.428 238.517 382.604 239.782L383.266 244.123C383.266 244.22 383.299 244.311 383.365 244.379C383.42 244.448 383.508 244.485 383.596 244.485C383.817 244.485 384.038 244.364 384.038 244.123L384.589 239.782C384.798 238.516 385.239 237.31 385.879 236.233C386.529 235.157 387.357 234.23 388.338 233.512L388.889 233.15C388.933 233.102 388.955 233.044 388.977 232.981C388.999 232.92 388.999 232.853 388.999 232.788C388.999 232.547 388.999 232.426 388.889 232.426L388.338 232.065Z" fill="#FFF983"/>
<path d="M324.106 123.915C323.54 123.618 323.063 123.236 322.698 122.792C322.327 122.347 322.082 121.85 321.969 121.329L321.655 119.572C321.655 119.475 321.529 119.426 321.403 119.426C321.378 119.426 321.353 119.43 321.328 119.437C321.309 119.444 321.29 119.455 321.272 119.469C321.253 119.482 321.24 119.498 321.228 119.516C321.221 119.534 321.215 119.553 321.215 119.572L320.838 121.329C320.75 121.85 320.524 122.351 320.166 122.797C319.807 123.243 319.33 123.625 318.764 123.915L318.45 124.061C318.387 124.061 318.324 124.11 318.324 124.207C318.324 124.256 318.387 124.305 318.45 124.354L318.764 124.5C319.317 124.788 319.788 125.161 320.147 125.598C320.505 126.035 320.737 126.525 320.838 127.037L321.215 128.794C321.215 128.833 321.234 128.87 321.272 128.897C321.303 128.925 321.353 128.94 321.403 128.94C321.529 128.94 321.655 128.891 321.655 128.794L321.969 127.037C322.088 126.525 322.34 126.037 322.704 125.601C323.075 125.166 323.546 124.791 324.106 124.5L324.42 124.354C324.445 124.334 324.458 124.311 324.47 124.285C324.483 124.261 324.483 124.234 324.483 124.207C324.483 124.11 324.483 124.061 324.42 124.061L324.106 123.915Z" fill="#5865F2"/>
<path d="M420.38 156.63C419.697 156.238 419.117 155.717 418.681 155.103C418.246 154.489 417.964 153.796 417.859 153.074L417.438 150.653C417.438 150.593 417.411 150.535 417.364 150.492C417.317 150.45 417.252 150.426 417.186 150.426C417.119 150.426 417.055 150.45 417.008 150.492C416.96 150.535 416.934 150.593 416.934 150.653L416.514 153.074C416.407 153.796 416.126 154.489 415.69 155.103C415.254 155.717 414.674 156.238 413.992 156.63L413.572 156.856C413.488 156.856 413.488 157.008 413.488 157.083C413.483 157.124 413.489 157.166 413.504 157.205C413.518 157.244 413.541 157.28 413.572 157.31L413.992 157.462C414.657 157.871 415.223 158.397 415.656 159.007C416.09 159.619 416.382 160.303 416.514 161.018L416.934 163.514C416.934 163.575 416.96 163.632 417.008 163.675C417.055 163.717 417.119 163.741 417.186 163.741C417.252 163.741 417.317 163.717 417.364 163.675C417.411 163.632 417.438 163.575 417.438 163.514L417.859 161.018C417.99 160.303 418.281 159.619 418.715 159.007C419.149 158.397 419.714 157.871 420.38 157.462L420.8 157.31C420.831 157.28 420.853 157.244 420.868 157.205C420.883 157.166 420.888 157.124 420.884 157.083C420.884 157.008 420.884 156.856 420.8 156.856L420.38 156.63Z" fill="#FF78B9"/>
<path d="M964.317 111.297C963.393 110.675 962.61 109.846 962.021 108.868C961.433 107.892 961.052 106.789 960.909 105.639L960.341 101.787C960.341 101.692 960.305 101.599 960.241 101.532C960.177 101.464 960.09 101.426 960 101.426C959.909 101.426 959.823 101.464 959.759 101.532C959.695 101.599 959.659 101.692 959.659 101.787L959.091 105.639C958.947 106.789 958.568 107.892 957.978 108.868C957.39 109.846 956.606 110.675 955.683 111.297L955.115 111.659C955.002 111.659 955.002 111.899 955.002 112.02C954.996 112.085 955.004 112.151 955.023 112.212C955.043 112.275 955.073 112.333 955.115 112.381L955.683 112.622C956.582 113.273 957.348 114.11 957.933 115.081C958.519 116.054 958.913 117.142 959.091 118.28L959.659 122.252C959.659 122.349 959.695 122.44 959.759 122.508C959.823 122.575 959.909 122.614 960 122.614C960.09 122.614 960.177 122.575 960.241 122.508C960.305 122.44 960.341 122.349 960.341 122.252L960.909 118.28C961.087 117.142 961.48 116.054 962.067 115.081C962.653 114.11 963.417 113.273 964.317 112.622L964.885 112.381C964.926 112.333 964.957 112.275 964.977 112.212C964.996 112.151 965.003 112.085 964.999 112.02C964.999 111.899 964.999 111.659 964.885 111.659L964.317 111.297Z" fill="#FF78B9"/>
<path d="M745.625 136.008C745.079 135.731 744.617 135.374 744.265 134.959C743.907 134.544 743.67 134.079 743.561 133.592L743.257 131.951C743.257 131.86 743.136 131.814 743.014 131.814C742.99 131.814 742.966 131.818 742.942 131.825C742.923 131.832 742.905 131.842 742.887 131.855C742.869 131.867 742.857 131.882 742.844 131.899C742.838 131.916 742.832 131.933 742.832 131.951L742.468 133.592C742.383 134.079 742.164 134.547 741.818 134.964C741.472 135.381 741.011 135.737 740.464 136.008L740.161 136.145C740.1 136.145 740.039 136.19 740.039 136.281C740.039 136.327 740.1 136.373 740.161 136.418L740.464 136.555C740.999 136.823 741.454 137.173 741.8 137.581C742.146 137.989 742.371 138.447 742.468 138.925L742.832 140.566C742.832 140.603 742.85 140.637 742.887 140.663C742.917 140.689 742.966 140.703 743.014 140.703C743.136 140.703 743.257 140.657 743.257 140.566L743.561 138.925C743.676 138.447 743.919 137.991 744.271 137.584C744.63 137.177 745.085 136.827 745.625 136.555L745.929 136.418C745.953 136.4 745.965 136.378 745.978 136.354C745.99 136.331 745.99 136.306 745.99 136.281C745.99 136.19 745.99 136.145 745.929 136.145L745.625 136.008Z" fill="white"/>
</svg>
