<svg width="64" height="64" viewBox="0 0 64 64" fill="none" xmlns="http://www.w3.org/2000/svg">
<path fill-rule="evenodd" clip-rule="evenodd" d="M41.5297 47.3358C42.831 49.0548 44.3927 51 44.3927 51C53.9794 50.6833 57.6667 44.1239 57.6667 44.1239C57.6667 29.5574 51.4201 17.7503 51.4201 17.7503C45.1735 12.8647 39.2306 13.0004 39.2306 13.0004L38.6233 13.7242C45.9977 16.0765 49.4247 19.4694 49.4247 19.4694C44.9132 16.8908 40.4886 15.6242 36.3676 15.1265C33.2443 14.7646 30.2511 14.8551 27.605 15.217C27.3778 15.217 27.1837 15.2515 26.9648 15.2903C26.933 15.296 26.9006 15.3017 26.8676 15.3075C25.3493 15.4432 21.6621 16.0313 17.0205 18.1575C15.4155 18.9265 14.4612 19.4694 14.4612 19.4694C14.4612 19.4694 18.0616 15.8956 25.8699 13.5432L25.4361 13.0004C25.4361 13.0004 19.4931 12.8647 13.2466 17.7503C13.2466 17.7503 7 29.5574 7 44.1239C7 44.1239 10.6438 50.6833 20.2306 51C20.2306 51 21.8356 48.9643 23.137 47.2453C17.6279 45.5262 15.5457 41.9072 15.5457 41.9072C15.5457 41.9072 15.9795 42.2239 16.7603 42.6763C16.8037 42.7215 16.847 42.7667 16.9338 42.812C16.9989 42.8572 17.0639 42.8912 17.129 42.9251C17.1941 42.959 17.2591 42.9929 17.3242 43.0382C18.4087 43.6715 19.4931 44.1691 20.4909 44.5763C22.2694 45.3001 24.395 46.0239 26.8676 46.5215C30.121 47.1548 33.9384 47.381 38.1027 46.5667C40.1415 46.2048 42.2237 45.5715 44.3927 44.6215C45.911 44.0334 47.6027 43.1739 49.3813 41.9525C49.3813 41.9525 47.2123 45.662 41.5297 47.3358ZM25.4433 30.6949C22.9901 30.6949 21.0535 33.0238 21.0535 35.865C21.0535 38.7061 23.0332 41.035 25.4433 41.035C27.8964 41.035 29.8331 38.7061 29.8331 35.865C29.8761 33.0238 27.8964 30.6949 25.4433 30.6949ZM41.1518 30.6949C38.6987 30.6949 36.762 33.0238 36.762 35.865C36.762 38.7061 38.7417 41.035 41.1518 41.035C43.6049 41.035 45.5416 38.7061 45.5416 35.865C45.5416 33.0238 43.6049 30.6949 41.1518 30.6949Z" fill="white"/>
</svg>
