<svg width="340" height="223" viewBox="0 0 340 223" fill="none" xmlns="http://www.w3.org/2000/svg">
<path d="M189.118 222.049C188.768 222.049 188.418 222.015 188.075 221.948C186.672 221.671 185.438 220.848 184.642 219.661C183.847 218.474 183.556 217.019 183.833 215.617L192.156 173.438C192.452 172.054 193.28 170.842 194.461 170.064C195.642 169.285 197.082 169.002 198.47 169.276C199.858 169.55 201.083 170.358 201.88 171.527C202.677 172.696 202.982 174.132 202.73 175.524L194.406 217.699C194.165 218.925 193.506 220.029 192.541 220.822C191.577 221.615 190.367 222.049 189.118 222.049Z" fill="#3B8BFF"/>
<path d="M189.12 222.92C188.195 222.921 187.281 222.717 186.445 222.322C185.608 221.927 184.869 221.351 184.282 220.637C183.694 219.922 183.272 219.086 183.047 218.189C182.821 217.292 182.797 216.356 182.976 215.449L191.321 173.273C191.481 172.467 191.798 171.7 192.254 171.016C192.71 170.332 193.297 169.745 193.98 169.288C194.663 168.831 195.43 168.513 196.236 168.352C197.042 168.191 197.872 168.19 198.678 168.35C199.484 168.51 200.251 168.827 200.935 169.283C201.619 169.739 202.206 170.326 202.663 171.009C203.121 171.692 203.439 172.459 203.6 173.265C203.761 174.071 203.761 174.901 203.601 175.707L195.257 217.886C194.974 219.305 194.208 220.583 193.089 221.501C191.97 222.418 190.567 222.92 189.12 222.92ZM197.44 169.967C196.393 169.966 195.378 170.329 194.569 170.994C193.76 171.658 193.207 172.583 193.004 173.611L184.68 215.786C184.565 216.368 184.565 216.968 184.682 217.551C184.798 218.133 185.028 218.687 185.359 219.18C185.69 219.673 186.114 220.097 186.609 220.426C187.103 220.755 187.658 220.984 188.24 221.099C188.53 221.154 188.825 221.182 189.12 221.182C190.166 221.181 191.179 220.817 191.987 220.153C192.794 219.488 193.347 218.564 193.55 217.538L201.873 175.359C201.989 174.777 201.988 174.177 201.872 173.595C201.755 173.012 201.525 172.459 201.194 171.965C200.864 171.472 200.439 171.048 199.945 170.719C199.45 170.39 198.896 170.161 198.313 170.047C198.025 169.993 197.733 169.966 197.44 169.967Z" fill="#272B5D"/>
<path d="M186.959 199.722L192.147 173.439L202.72 175.526L197.609 201.432L199.062 194.058C199.202 193.352 199.199 192.626 199.054 191.921C198.908 191.217 198.623 190.548 198.215 189.956C197.807 189.364 197.284 188.859 196.678 188.472C196.072 188.085 195.394 187.823 194.685 187.702C193.299 187.464 191.875 187.777 190.718 188.575C189.56 189.373 188.76 190.592 188.489 191.972L186.959 199.722Z" fill="#272B5D"/>
<path d="M197.61 202.307C197.553 202.312 197.496 202.312 197.439 202.307C197.327 202.285 197.219 202.242 197.123 202.179C197.027 202.116 196.944 202.035 196.88 201.94C196.815 201.845 196.77 201.738 196.746 201.626C196.723 201.513 196.722 201.397 196.744 201.284L198.208 193.872C198.42 192.707 198.167 191.505 197.503 190.525C196.839 189.545 195.817 188.865 194.657 188.63C193.496 188.396 192.29 188.626 191.298 189.271C190.305 189.916 189.605 190.925 189.349 192.081L187.801 199.911C187.779 200.023 187.734 200.129 187.67 200.224C187.606 200.318 187.524 200.399 187.429 200.462C187.334 200.525 187.227 200.569 187.115 200.591C187.003 200.612 186.888 200.612 186.776 200.589C186.664 200.566 186.557 200.521 186.463 200.458C186.368 200.394 186.287 200.312 186.224 200.217C186.161 200.121 186.118 200.015 186.096 199.902C186.074 199.79 186.075 199.675 186.098 199.563L187.624 191.813L187.645 191.723L191.285 173.295C191.306 173.182 191.349 173.075 191.412 172.979C191.474 172.883 191.555 172.8 191.65 172.735C191.745 172.671 191.851 172.625 191.963 172.602C192.076 172.579 192.191 172.578 192.304 172.6L202.881 174.686C202.994 174.707 203.101 174.75 203.197 174.812C203.293 174.875 203.376 174.956 203.441 175.05C203.505 175.145 203.55 175.252 203.574 175.364C203.597 175.476 203.598 175.592 203.576 175.705L199.925 194.191C199.925 194.191 199.925 194.223 199.925 194.237L198.469 201.611C198.428 201.809 198.321 201.986 198.164 202.113C198.007 202.24 197.811 202.308 197.61 202.307ZM193.75 186.754C194.113 186.755 194.475 186.786 194.832 186.848C195.656 186.987 196.444 187.29 197.148 187.74C197.852 188.189 198.459 188.777 198.931 189.466C198.973 189.525 199.011 189.584 199.049 189.647L201.702 176.216L192.832 174.477L190.187 187.888C191.23 187.153 192.474 186.757 193.75 186.754Z" fill="#272B5D"/>
<path d="M303.155 120.379C307.543 125.449 314.72 126.467 321.27 123.23C327.821 119.993 330.905 118.992 335.686 118.992C340.466 118.992 338.69 112.361 333.217 112.038C329.819 111.878 326.422 112.35 323.196 113.429C323.196 113.429 328.064 106.878 331.325 101.406C334.587 95.9328 335.686 89.6118 334.99 86.1452C334.295 82.6787 330.289 83.3637 330.289 83.3637C330.289 76.8896 323.367 77.5085 323.335 80.2032C319.639 77.3521 316.705 79.5877 315.857 83.5202C315.008 87.4526 311.232 93.7806 306.298 98.2415C297.453 106.273 298.684 115.212 303.155 120.379Z" fill="#3B8BFF"/>
<path d="M313.622 125.965C311.514 125.989 309.426 125.551 307.504 124.683C305.582 123.816 303.873 122.538 302.496 120.941C297.562 115.243 296.651 105.82 305.733 97.6075C310.747 93.0874 314.262 86.8742 315.024 83.352C315.573 80.8034 316.908 78.9711 318.685 78.3209C319.641 77.9732 321.098 77.8306 322.902 78.8702C323.497 77.9941 324.669 77.4238 326.077 77.4238C328.396 77.4238 330.739 78.9919 331.094 82.4445C332.85 82.4445 335.246 83.1677 335.809 85.9841C336.754 90.7023 334.627 97.5449 332.04 101.867C329.891 105.448 327.05 109.516 325.347 111.912C327.928 111.302 330.583 111.059 333.232 111.188C336.946 111.397 339.362 114.234 339.293 116.752C339.251 118.184 338.274 119.863 335.652 119.863C331.178 119.863 328.292 120.715 321.623 124.011C319.141 125.267 316.404 125.935 313.622 125.965ZM303.811 119.804C307.892 124.519 314.589 125.555 320.882 122.447C327.763 119.046 330.945 118.118 335.684 118.118C336.532 118.118 337.551 117.871 337.586 116.692C337.627 115.253 336.077 113.08 333.166 112.916C329.889 112.76 326.612 113.213 323.5 114.252C323.325 114.318 323.132 114.326 322.952 114.273C322.771 114.221 322.613 114.112 322.499 113.962C322.386 113.812 322.325 113.629 322.324 113.442C322.323 113.254 322.384 113.071 322.496 112.92C322.544 112.854 327.363 106.338 330.579 100.966C333.796 95.5943 334.787 89.5653 334.136 86.3213C333.629 83.7762 330.757 84.1761 330.433 84.2352C330.31 84.254 330.185 84.2464 330.065 84.2128C329.945 84.1792 329.833 84.1205 329.738 84.0405C329.641 83.959 329.563 83.8573 329.51 83.7426C329.457 83.6279 329.429 83.5029 329.429 83.3763C329.429 81.4362 328.556 79.1658 326.098 79.1588C325.093 79.1588 324.244 79.6456 324.241 80.2228C324.241 80.3842 324.196 80.5424 324.111 80.6797C324.026 80.8171 323.905 80.928 323.761 81.0002C323.616 81.0724 323.454 81.103 323.294 81.0885C323.133 81.074 322.979 81.015 322.85 80.9181C321.95 80.2228 320.604 79.4926 319.314 79.9655C318.125 80.4001 317.169 81.8048 316.755 83.7275C315.914 87.6182 312.27 94.0819 306.929 98.9148C300.984 104.245 297.733 112.784 303.811 119.804Z" fill="#272B5D"/>
<path d="M323.35 80.2129C323.732 87.9213 315.947 95.6296 315.947 95.6296L323.35 80.2129Z" fill="#3B8BFF"/>
<path d="M315.951 96.5003C315.835 96.5011 315.721 96.4787 315.615 96.4345C315.509 96.3903 315.412 96.3252 315.332 96.243C315.169 96.08 315.078 95.8594 315.078 95.6293C315.078 95.3992 315.169 95.1786 315.332 95.0156C315.408 94.9391 322.838 87.4846 322.477 80.2595C322.465 80.029 322.546 79.8033 322.701 79.6321C322.856 79.461 323.072 79.3583 323.303 79.3468C323.533 79.3353 323.759 79.4158 323.93 79.5707C324.101 79.7255 324.204 79.942 324.215 80.1726C324.386 83.5556 323.141 87.2968 320.519 91.2988C319.361 93.0745 318.035 94.7348 316.559 96.2569C316.396 96.4149 316.178 96.5024 315.951 96.5003Z" fill="#272B5D"/>
<path d="M330.289 83.373C328.362 84.0684 328.898 87.229 326.895 91.7003C325.752 94.3195 324.097 96.6838 322.027 98.6542" fill="#3B8BFF"/>
<path d="M322.05 99.5076C321.925 99.5083 321.801 99.4816 321.688 99.4293C321.574 99.377 321.473 99.3005 321.393 99.2052C321.318 99.1192 321.261 99.0193 321.224 98.9112C321.188 98.8031 321.174 98.6889 321.182 98.5752C321.19 98.4614 321.22 98.3504 321.272 98.2485C321.323 98.1466 321.393 98.0558 321.48 97.9813C323.443 96.0929 325.016 93.8379 326.111 91.3438C326.767 89.8234 327.272 88.2418 327.616 86.6221C328.079 84.6646 328.447 83.1173 330.002 82.5576C330.219 82.4792 330.458 82.4903 330.667 82.5884C330.876 82.6865 331.038 82.8637 331.116 83.0808C331.194 83.298 331.183 83.5374 331.085 83.7464C330.987 83.9554 330.81 84.1168 330.593 84.1952C329.949 84.4247 329.72 85.2765 329.306 87.022C328.94 88.7496 328.402 90.4363 327.7 92.0566C326.509 94.7866 324.78 97.2487 322.617 99.2956C322.46 99.4327 322.258 99.5081 322.05 99.5076Z" fill="#272B5D"/>
<path d="M310.55 121.471L283.778 143.637C282.812 144.437 281.597 144.874 280.343 144.875C279.961 144.874 279.579 144.833 279.206 144.753L241.06 136.513C240.367 136.365 239.709 136.082 239.126 135.679C238.542 135.277 238.043 134.763 237.658 134.168C237.273 133.572 237.01 132.907 236.882 132.209C236.755 131.512 236.767 130.796 236.917 130.103C237.066 129.41 237.351 128.754 237.755 128.171C238.159 127.588 238.674 127.091 239.271 126.708C239.867 126.325 240.534 126.063 241.232 125.937C241.929 125.812 242.645 125.826 243.338 125.977L278.935 133.665L302.964 113.773" fill="#3B8BFF"/>
<path d="M280.328 145.744C279.884 145.744 279.441 145.696 279.007 145.602L240.872 137.365C240.068 137.191 239.307 136.861 238.631 136.393C237.955 135.925 237.378 135.329 236.933 134.638C236.488 133.947 236.183 133.175 236.036 132.366C235.889 131.557 235.903 130.728 236.077 129.924C236.428 128.302 237.408 126.886 238.803 125.987C240.198 125.088 241.892 124.78 243.514 125.13L278.69 132.73L302.393 113.11C302.571 112.965 302.798 112.896 303.027 112.918C303.255 112.94 303.465 113.052 303.612 113.229C303.758 113.405 303.829 113.633 303.808 113.861C303.788 114.09 303.677 114.301 303.502 114.448L279.473 134.337C279.372 134.42 279.253 134.48 279.125 134.512C278.997 134.543 278.864 134.545 278.736 134.517L243.149 126.826C242.565 126.69 241.959 126.671 241.368 126.771C240.776 126.871 240.21 127.087 239.703 127.408C239.196 127.729 238.758 128.148 238.415 128.64C238.071 129.131 237.829 129.687 237.702 130.273C237.576 130.86 237.567 131.465 237.677 132.055C237.787 132.645 238.013 133.207 238.342 133.709C238.671 134.21 239.097 134.641 239.595 134.976C240.092 135.312 240.652 135.544 241.24 135.661L279.386 143.902C280.053 144.042 280.743 144.03 281.404 143.869C282.066 143.707 282.684 143.398 283.211 142.966L309.983 120.801C310.161 120.656 310.389 120.587 310.617 120.609C310.845 120.631 311.055 120.743 311.202 120.92C311.348 121.096 311.419 121.324 311.398 121.552C311.378 121.781 311.268 121.992 311.092 122.139L284.32 144.305C283.197 145.235 281.786 145.744 280.328 145.744Z" fill="#272B5D"/>
<path d="M266.071 130.885L247.472 126.869L245.557 137.488L264.176 141.511L257.733 140.12C257.04 139.97 256.383 139.684 255.8 139.28C255.217 138.876 254.719 138.36 254.336 137.763C253.953 137.167 253.691 136.5 253.566 135.802C253.44 135.103 253.454 134.387 253.606 133.694C253.912 132.302 254.758 131.088 255.957 130.317C257.157 129.547 258.613 129.284 260.007 129.585L266.071 130.885Z" fill="#272B5D"/>
<path d="M264.194 142.378C264.132 142.378 264.07 142.371 264.009 142.357L257.577 140.967H257.528L245.401 138.345C245.18 138.298 244.987 138.167 244.861 137.981C244.735 137.794 244.687 137.565 244.726 137.344L246.604 126.715C246.624 126.599 246.667 126.489 246.731 126.391C246.795 126.293 246.878 126.209 246.976 126.144C247.073 126.079 247.182 126.034 247.297 126.013C247.411 125.991 247.529 125.993 247.643 126.019L260.16 128.721H260.206L266.235 130.025C266.352 130.041 266.464 130.082 266.565 130.144C266.666 130.206 266.754 130.288 266.822 130.385C266.89 130.482 266.938 130.591 266.962 130.707C266.986 130.823 266.987 130.943 266.963 131.059C266.939 131.175 266.892 131.285 266.824 131.383C266.756 131.48 266.669 131.562 266.568 131.624C266.468 131.687 266.355 131.728 266.238 131.745C266.121 131.762 266.001 131.755 265.887 131.725L259.816 130.411C258.653 130.18 257.446 130.415 256.455 131.066C255.464 131.717 254.768 132.731 254.518 133.89C254.268 135.048 254.483 136.259 255.117 137.261C255.751 138.263 256.753 138.976 257.907 139.245L264.392 140.636C264.6 140.683 264.784 140.804 264.909 140.978C265.033 141.152 265.09 141.365 265.067 141.577C265.044 141.79 264.944 141.986 264.785 142.13C264.627 142.273 264.421 142.353 264.207 142.354L264.194 142.378ZM246.576 136.815L253.704 138.352C253.676 138.314 253.648 138.272 253.624 138.23C253.178 137.53 252.875 136.749 252.734 135.931C252.593 135.113 252.616 134.275 252.802 133.466C252.987 132.657 253.332 131.893 253.816 131.219C254.3 130.545 254.913 129.973 255.619 129.538L248.158 127.925L246.576 136.815Z" fill="#272B5D"/>
<path d="M61.209 86.5992L87.9814 108.765C88.9489 109.564 90.1649 110.002 91.4201 110.002C91.8076 110.007 92.1946 109.971 92.5745 109.895L130.717 101.654C132.099 101.339 133.301 100.491 134.063 99.2942C134.824 98.0978 135.083 96.6496 134.784 95.2634C134.485 93.8772 133.652 92.6648 132.464 91.889C131.277 91.1133 129.832 90.8367 128.443 91.1192L92.8457 98.7963L68.8165 78.9082" fill="#3B8BFF"/>
<path d="M91.4237 110.876C89.9669 110.875 88.5557 110.367 87.4322 109.44L60.6597 87.2745C60.4818 87.1274 60.3695 86.9157 60.3477 86.6858C60.3258 86.456 60.3962 86.2268 60.5433 86.0489C60.6903 85.8709 60.9021 85.7587 61.1319 85.7368C61.3618 85.715 61.5909 85.7853 61.7689 85.9324L88.5413 108.098C89.0683 108.53 89.6854 108.838 90.3472 109.001C91.009 109.163 91.6988 109.176 92.3659 109.037L130.511 100.796C131.684 100.543 132.707 99.8348 133.357 98.8271C134.007 97.8194 134.229 96.5948 133.976 95.4227C133.723 94.2507 133.015 93.2272 132.007 92.5774C130.999 91.9276 129.775 91.7048 128.603 91.9579L93.0266 99.6455C92.8981 99.6738 92.7648 99.6723 92.637 99.6409C92.5092 99.6096 92.3903 99.5493 92.2895 99.4647L68.2603 79.5766C68.1657 79.5062 68.0864 79.4174 68.0272 79.3154C67.968 79.2135 67.9302 79.1005 67.916 78.9835C67.9019 78.8665 67.9116 78.7478 67.9448 78.6347C67.9779 78.5215 68.0337 78.4163 68.1088 78.3254C68.1838 78.2345 68.2766 78.1599 68.3815 78.106C68.4863 78.0521 68.601 78.02 68.7186 78.0119C68.8362 78.0037 68.9542 78.0195 69.0655 78.0584C69.1768 78.0972 69.2791 78.1583 69.366 78.2379L93.0718 97.8583L128.244 90.2612C129.055 90.0677 129.896 90.0379 130.718 90.1737C131.54 90.3095 132.327 90.6081 133.032 91.052C133.737 91.4959 134.347 92.0762 134.825 92.7587C135.303 93.4413 135.64 94.2125 135.816 95.027C135.992 95.8415 136.003 96.6829 135.85 97.5019C135.696 98.3209 135.38 99.101 134.921 99.7964C134.462 100.492 133.869 101.089 133.176 101.552C132.483 102.015 131.705 102.335 130.887 102.493L92.7449 110.733C92.3108 110.828 91.8679 110.875 91.4237 110.876Z" fill="#272B5D"/>
<path d="M106.1 95.9322L122.928 92.2988L125.15 102.844L107.685 106.617L111.951 105.695C113.238 105.417 114.379 104.678 115.159 103.617C115.938 102.555 116.302 101.246 116.183 99.9342C116.112 99.1749 115.882 98.4392 115.506 97.7756C115.13 97.112 114.618 96.5356 114.004 96.0845C113.389 95.6333 112.685 95.3177 111.94 95.1584C111.194 94.9991 110.423 94.9998 109.677 95.1603L106.1 95.9322Z" fill="#272B5D"/>
<path d="M107.683 107.485C107.47 107.483 107.264 107.403 107.107 107.259C106.949 107.116 106.849 106.919 106.827 106.707C106.804 106.495 106.861 106.282 106.985 106.109C107.11 105.935 107.294 105.814 107.502 105.768L111.772 104.846C112.944 104.595 113.969 103.888 114.62 102.881C115.272 101.875 115.497 100.65 115.245 99.4778C114.994 98.3053 114.287 97.2806 113.28 96.6292C112.274 95.9778 111.049 95.753 109.877 96.0043L106.282 96.7832C106.062 96.8146 105.839 96.7611 105.658 96.6335C105.477 96.506 105.351 96.314 105.307 96.0969C105.262 95.8798 105.302 95.6539 105.419 95.4654C105.536 95.277 105.72 95.1401 105.934 95.0829L109.508 94.3111H109.533L122.745 91.4565C122.857 91.4313 122.973 91.4288 123.086 91.4491C123.198 91.4694 123.306 91.5121 123.402 91.5747C123.498 91.6368 123.581 91.7173 123.646 91.8116C123.711 91.9058 123.757 92.012 123.781 92.1241L125.999 102.673C126.025 102.785 126.028 102.902 126.008 103.015C125.988 103.129 125.946 103.237 125.884 103.334C125.822 103.431 125.741 103.515 125.646 103.581C125.551 103.646 125.445 103.692 125.332 103.716L112.119 106.567L107.871 107.461C107.809 107.476 107.746 107.484 107.683 107.485ZM114.087 95.0968C114.233 95.1838 114.376 95.2811 114.515 95.382C115.819 96.3393 116.702 97.7645 116.978 99.3585C117.254 100.952 116.902 102.591 115.996 103.932L124.118 102.176L122.255 93.3306L114.087 95.0968Z" fill="#272B5D"/>
<path d="M245.926 83.4715L208.028 7.67418C207.376 6.36609 206.417 5.23596 205.231 4.38113C204.046 3.52631 202.671 2.97241 201.224 2.76713C199.777 2.56185 198.302 2.71136 196.926 3.20276C195.549 3.69417 194.313 4.51276 193.324 5.58802L136.302 67.6688C123.894 80.418 116.96 97.5122 116.981 115.303C116.981 153.087 147.609 183.715 185.393 183.715C223.177 183.715 253.802 153.087 253.802 115.303C253.81 104.209 251.106 93.2816 245.926 83.4715Z" fill="#3B8BFF"/>
<path d="M185.377 184.602C147.176 184.602 116.096 153.522 116.096 115.321C116.06 97.3229 123.067 80.0254 135.619 67.1267L135.643 67.0954L192.686 5.01118C193.769 3.8313 195.124 2.93245 196.632 2.39201C198.14 1.85157 199.756 1.68574 201.343 1.90879C202.929 2.13185 204.437 2.7371 205.738 3.67244C207.039 4.60779 208.092 5.8452 208.808 7.27815L246.707 83.0755C251.927 93.0235 254.656 104.09 254.659 115.324C254.655 153.522 223.578 184.602 185.377 184.602ZM136.971 68.2185L136.912 68.2846C124.648 80.8661 117.8 97.7507 117.834 115.321C117.834 152.566 148.132 182.864 185.377 182.864C222.622 182.864 252.917 152.566 252.917 115.321C252.915 104.365 250.253 93.5745 245.16 83.8751L207.261 8.07785C206.671 6.89704 205.802 5.87737 204.73 5.10655C203.658 4.33574 202.415 3.83687 201.108 3.65284C199.801 3.46882 198.468 3.60515 197.225 4.05011C195.982 4.49508 194.866 5.23535 193.972 6.20725L136.971 68.2185Z" fill="#272B5D"/>
<path d="M174.834 182.455L136.285 67.685L194.141 46.7051L245.927 83.4772L174.834 182.455Z" fill="#31BAFF"/>
<path d="M174.831 183.324C174.788 183.327 174.745 183.327 174.702 183.324C174.544 183.3 174.395 183.233 174.273 183.129C174.15 183.026 174.058 182.892 174.007 182.74L135.458 67.959C135.385 67.7441 135.399 67.5092 135.498 67.3045C135.596 67.0999 135.77 66.9417 135.983 66.8638L193.843 45.8839C193.975 45.8362 194.117 45.8211 194.256 45.8398C194.395 45.8586 194.528 45.9107 194.643 45.9917L246.428 82.7743C246.521 82.8404 246.601 82.9243 246.661 83.0212C246.722 83.1181 246.763 83.2261 246.782 83.339C246.801 83.4518 246.797 83.5672 246.771 83.6786C246.745 83.7899 246.697 83.895 246.63 83.9877L175.537 182.959C175.457 183.071 175.351 183.163 175.228 183.227C175.105 183.29 174.969 183.324 174.831 183.324ZM137.374 68.2094L175.116 180.567L244.71 83.6748L194.01 47.6746L137.374 68.2094Z" fill="#272B5D"/>
<path d="M194.146 47.5723H194.021C193.908 47.5561 193.8 47.5178 193.701 47.4596C193.603 47.4014 193.517 47.3244 193.449 47.233C193.38 47.1416 193.331 47.0377 193.302 46.9271C193.274 46.8164 193.268 46.7013 193.284 46.5883L199.543 2.58415C199.575 2.35361 199.698 2.14534 199.883 2.00515C200.069 1.86496 200.303 1.80433 200.534 1.83661C200.764 1.86888 200.972 1.99142 201.113 2.17725C201.253 2.36309 201.313 2.597 201.281 2.82754L195.023 46.8317C194.991 47.0405 194.885 47.2308 194.724 47.3671C194.563 47.5034 194.358 47.5763 194.146 47.5723Z" fill="#272B5D"/>
<path d="M131.068 143.332L108.336 124.153L106.66 162.229C106.6 163.615 106.007 164.925 105.005 165.885C104.003 166.845 102.669 167.381 101.281 167.382H101.041C99.6131 167.317 98.269 166.69 97.3036 165.635C96.3382 164.581 95.8304 163.187 95.8917 161.759L97.7171 120.297C97.7904 118.595 98.3391 116.948 99.301 115.543C100.263 114.137 101.599 113.029 103.159 112.345C104.718 111.66 106.439 111.426 108.124 111.67C109.81 111.913 111.394 112.624 112.696 113.722L134.461 132.077" fill="#3B8BFF"/>
<path d="M101.283 168.258H101.004C100.183 168.222 99.3772 168.024 98.6324 167.677C97.8875 167.329 97.2185 166.838 96.6635 166.231C96.1084 165.625 95.6783 164.915 95.3976 164.143C95.1169 163.37 94.9912 162.55 95.0276 161.729L96.8495 120.266C96.9319 118.403 97.5345 116.6 98.5889 115.062C99.6433 113.524 101.107 112.312 102.815 111.564C104.523 110.816 106.407 110.56 108.252 110.828C110.098 111.095 111.832 111.874 113.257 113.076L135.023 131.43C135.189 131.582 135.29 131.792 135.304 132.016C135.319 132.24 135.246 132.461 135.101 132.633C134.957 132.804 134.751 132.913 134.528 132.937C134.304 132.96 134.081 132.897 133.903 132.759L112.134 114.418C110.957 113.421 109.525 112.774 107.998 112.551C106.472 112.328 104.914 112.538 103.501 113.157C102.089 113.775 100.878 114.778 100.007 116.051C99.1357 117.324 98.6393 118.815 98.5741 120.356L96.7487 161.819C96.7226 162.412 96.8135 163.005 97.0164 163.563C97.2193 164.121 97.5302 164.633 97.9312 165.071C98.3322 165.509 98.8155 165.863 99.3536 166.114C99.8917 166.365 100.474 166.508 101.067 166.534H101.269C102.434 166.535 103.555 166.086 104.397 165.281C105.239 164.475 105.738 163.376 105.789 162.212L107.465 124.136C107.472 123.974 107.524 123.817 107.616 123.683C107.708 123.549 107.836 123.443 107.984 123.378C108.133 123.313 108.297 123.291 108.458 123.314C108.619 123.337 108.77 123.405 108.894 123.51L131.622 142.678C131.799 142.827 131.909 143.039 131.929 143.269C131.949 143.499 131.877 143.727 131.728 143.904C131.58 144.081 131.367 144.191 131.138 144.211C130.908 144.231 130.679 144.159 130.503 144.01L109.123 125.979L107.524 162.274C107.453 163.883 106.765 165.403 105.603 166.517C104.44 167.632 102.893 168.255 101.283 168.258Z" fill="#272B5D"/>
<path d="M14.0579 111.794C13.2017 111.554 12.2973 111.543 11.4355 111.763C10.5737 111.982 9.7849 112.425 9.14846 113.046C8.93326 113.259 8.73882 113.492 8.56781 113.742L4.33984 118.738L147.492 193.224H164.081C164.081 193.224 101.868 136.516 14.0579 111.794Z" fill="#FF4A71"/>
<path d="M164.074 194.097H147.485C147.345 194.096 147.207 194.063 147.082 194L3.92933 119.513C3.81339 119.453 3.71249 119.368 3.63418 119.263C3.55586 119.159 3.50215 119.038 3.47707 118.91C3.452 118.782 3.45619 118.65 3.48935 118.524C3.52251 118.398 3.58377 118.281 3.66856 118.181L7.87566 113.209C8.07018 112.936 8.2877 112.68 8.52584 112.444L8.56062 112.413C9.30783 111.693 10.2302 111.18 11.2364 110.926C12.2427 110.672 13.2979 110.684 14.2976 110.963C59.762 123.762 98.217 145.267 122.476 161.055C148.758 178.162 164.508 192.442 164.665 192.584C164.793 192.703 164.883 192.858 164.922 193.028C164.961 193.199 164.948 193.377 164.885 193.54C164.821 193.703 164.711 193.843 164.567 193.943C164.423 194.042 164.252 194.096 164.077 194.097H164.074ZM147.697 192.358H161.765C157.026 188.259 142.708 176.305 121.481 162.491C97.3373 146.779 59.0562 125.372 13.8212 112.636C13.1106 112.439 12.3608 112.432 11.6465 112.615C10.9323 112.798 10.2783 113.165 9.74973 113.679L9.72887 113.7C9.55779 113.871 9.4019 114.057 9.26296 114.256L9.21776 114.315L5.69214 118.487L147.697 192.358Z" fill="#272B5D"/>
<path d="M6.42397 199.691C6.42397 199.691 -3.16543 167.091 2.81491 121.717C2.91273 120.993 3.16505 120.298 3.5548 119.679C3.94454 119.061 4.4626 118.534 5.07388 118.133C5.68516 117.733 6.37539 117.468 7.09782 117.358C7.82026 117.247 8.55803 117.293 9.26116 117.492C97.8849 142.443 160.665 199.677 160.665 199.677L6.42397 199.691Z" fill="#FF9AD4"/>
<path d="M160.665 200.558H6.42458C6.23695 200.558 6.05429 200.498 5.90388 200.385C5.75348 200.273 5.6434 200.115 5.59011 199.936C5.49276 199.588 -3.9819 166.637 1.95323 121.617C2.06684 120.77 2.36145 119.956 2.81708 119.232C3.2727 118.508 3.87869 117.89 4.59395 117.421C5.30921 116.952 6.11701 116.642 6.96258 116.512C7.80816 116.383 8.67172 116.436 9.49472 116.67C55.3903 129.587 94.193 151.29 118.671 167.224C145.196 184.491 161.089 198.903 161.249 199.045C161.379 199.163 161.47 199.318 161.511 199.489C161.551 199.659 161.539 199.838 161.475 200.002C161.412 200.165 161.301 200.306 161.156 200.405C161.012 200.505 160.841 200.558 160.665 200.558ZM7.0852 198.819H158.363C153.597 194.696 139.136 182.617 117.683 168.66C93.3203 152.799 54.6741 131.196 9.02533 118.342C8.44064 118.179 7.82784 118.143 7.22812 118.237C6.6284 118.33 6.05565 118.551 5.54839 118.885C5.04457 119.215 4.61795 119.651 4.29756 120.162C3.97717 120.672 3.77053 121.246 3.6917 121.843C-1.76014 163.09 5.82655 194.094 7.0852 198.819Z" fill="#272B5D"/>
<path d="M55.657 199.689H68.0315L11.6146 118.179L9.26072 117.505C8.55861 117.305 7.82189 117.259 7.10032 117.369C6.37875 117.478 5.68914 117.742 5.07807 118.141C4.467 118.54 3.94871 119.066 3.5582 119.682C3.1677 120.299 2.91408 120.992 2.81447 121.715C2.75536 122.171 2.69973 122.623 2.64062 123.078L55.657 199.689Z" fill="white"/>
<path d="M68.0325 200.563H55.6581C55.5176 200.563 55.3792 200.529 55.2549 200.464C55.1307 200.398 55.0243 200.303 54.9453 200.187L1.9289 123.59C1.80774 123.414 1.7546 123.201 1.77939 122.989L1.8246 122.763C1.8698 122.384 1.91847 122.008 1.96715 121.629C2.08076 120.781 2.37536 119.968 2.83099 119.244C3.28661 118.52 3.89261 117.902 4.60787 117.433C5.32313 116.964 6.13093 116.654 6.9765 116.524C7.82207 116.394 8.68564 116.448 9.50864 116.681C10.3014 116.901 11.0872 117.127 11.873 117.356C12.0663 117.413 12.2335 117.536 12.3458 117.704L68.7627 199.214C68.8515 199.344 68.9031 199.497 68.912 199.655C68.9209 199.813 68.8868 199.97 68.8132 200.11C68.7397 200.25 68.6295 200.367 68.4944 200.449C68.3594 200.532 68.2045 200.576 68.0464 200.577L68.0325 200.563ZM56.1136 198.824H66.374L11.0802 118.938L9.02534 118.354C8.44065 118.191 7.82785 118.155 7.22813 118.249C6.6284 118.342 6.05566 118.563 5.5484 118.896C5.04458 119.227 4.61795 119.663 4.29757 120.173C3.97718 120.684 3.77054 121.258 3.69171 121.855C3.64651 122.203 3.60479 122.551 3.55959 122.898L56.1136 198.824Z" fill="#272B5D"/>
<path d="M126.422 173.439C126.422 173.439 147.332 188.303 150.736 191.367H127.84C134.913 191.367 137.983 182.413 132.395 178.078L126.422 173.439Z" fill="#272B5D"/>
<path d="M150.736 192.237H127.841C127.61 192.237 127.389 192.145 127.226 191.982C127.063 191.819 126.972 191.598 126.972 191.368C126.972 191.137 127.063 190.916 127.226 190.753C127.389 190.59 127.61 190.499 127.841 190.499C129.207 190.499 130.539 190.072 131.651 189.277C132.763 188.483 133.599 187.361 134.041 186.069C134.484 184.776 134.512 183.378 134.121 182.068C133.73 180.759 132.939 179.605 131.86 178.767L125.887 174.129C125.795 174.061 125.719 173.975 125.66 173.877C125.602 173.778 125.564 173.67 125.548 173.557C125.532 173.444 125.538 173.329 125.566 173.218C125.595 173.107 125.644 173.003 125.713 172.912C125.781 172.821 125.867 172.744 125.965 172.686C126.064 172.628 126.172 172.589 126.285 172.573C126.398 172.557 126.513 172.563 126.624 172.592C126.735 172.62 126.839 172.67 126.93 172.738C127.789 173.347 147.924 187.665 151.324 190.725C151.455 190.842 151.547 190.996 151.588 191.167C151.629 191.338 151.618 191.518 151.555 191.682C151.492 191.846 151.381 191.988 151.236 192.087C151.091 192.187 150.919 192.24 150.743 192.24L150.736 192.237ZM132.962 190.499H148.303C145.42 188.245 140.306 184.494 135.678 181.152C136.248 182.8 136.293 184.583 135.807 186.258C135.321 187.932 134.327 189.413 132.962 190.499Z" fill="#272B5D"/>
<path d="M2.29102 177.002C2.29102 177.002 3.14981 185.347 4.3285 191.369H16.397C16.397 191.369 4.62404 192.234 2.29102 177.002Z" fill="#272B5D"/>
<path d="M16.1497 192.241H4.32809C4.12728 192.241 3.93255 192.172 3.77674 192.045C3.62092 191.919 3.51356 191.742 3.47276 191.546C2.30103 185.565 1.43528 177.186 1.42484 177.099C1.3958 176.868 1.45952 176.636 1.60199 176.452C1.74447 176.269 1.95402 176.149 2.18456 176.12C2.41509 176.091 2.64772 176.155 2.83127 176.297C3.01483 176.44 3.13427 176.649 3.16332 176.88C5.01653 188.976 12.937 190.377 15.5343 190.509H16.4105C16.641 190.501 16.8656 190.584 17.0348 190.741C17.204 190.898 17.304 191.115 17.3127 191.346C17.3215 191.576 17.2383 191.801 17.0815 191.97C16.9247 192.139 16.7071 192.239 16.4765 192.248C16.4765 192.248 16.3444 192.241 16.1497 192.241ZM5.04781 190.503H9.56784C7.3438 189.275 5.48898 187.474 4.19597 185.287C4.45326 187.019 4.73836 188.823 5.04781 190.499V190.503Z" fill="#272B5D"/>
<path d="M168.893 47.9818C161.4 43.2184 152.381 44.3345 148.706 45.0785C148.24 45.1747 147.755 45.0936 147.346 44.8512C146.937 44.6087 146.634 44.2224 146.495 43.7677L145.671 41.0905C145.592 40.8375 145.566 40.5709 145.596 40.3075C145.626 40.0442 145.71 39.79 145.844 39.5611C145.977 39.3321 146.157 39.1335 146.371 38.9777C146.586 38.822 146.83 38.7127 147.089 38.6566C151.609 37.6831 162.934 36.1915 172.686 42.5612C172.905 42.7063 173.091 42.8946 173.233 43.1146C173.376 43.3346 173.472 43.5816 173.515 43.8401C173.558 44.0987 173.547 44.3634 173.484 44.6177C173.42 44.872 173.305 45.1105 173.145 45.3184L171.449 47.5367C171.156 47.9179 170.731 48.1751 170.258 48.2576C169.784 48.34 169.297 48.2416 168.893 47.9818Z" fill="#272B5D"/>
<path d="M169.942 49.1603C169.406 49.1592 168.881 49.0047 168.429 48.7152C161.173 44.1013 152.342 45.2383 148.879 45.9337C148.202 46.0714 147.499 45.9526 146.905 45.6005C146.311 45.2483 145.87 44.688 145.666 44.0283L144.842 41.3511C144.729 40.9832 144.693 40.5959 144.737 40.2135C144.781 39.8311 144.904 39.4621 145.098 39.1298C145.293 38.7974 145.554 38.5089 145.865 38.2826C146.176 38.0563 146.531 37.8971 146.907 37.815C151.455 36.838 163.113 35.2734 173.165 41.8413C173.483 42.0517 173.755 42.3254 173.963 42.6453C174.171 42.9652 174.311 43.3245 174.375 43.7009C174.438 44.0772 174.423 44.4626 174.331 44.8329C174.239 45.2033 174.072 45.5508 173.84 45.8537L172.143 48.072C171.884 48.4097 171.551 48.6835 171.169 48.8721C170.787 49.0608 170.368 49.1594 169.942 49.1603ZM155.426 43.545C159.626 43.545 164.768 44.3274 169.361 47.248C169.581 47.3899 169.845 47.4443 170.103 47.4005C170.36 47.3568 170.592 47.218 170.752 47.0116L172.445 44.7933C172.534 44.6785 172.598 44.5466 172.632 44.406C172.667 44.2653 172.672 44.1189 172.647 43.9762C172.626 43.8354 172.576 43.7007 172.499 43.5809C172.422 43.461 172.321 43.3587 172.202 43.2808C162.699 37.071 151.594 38.5661 147.262 39.4944C147.122 39.5258 146.991 39.5855 146.875 39.6698C146.76 39.7541 146.663 39.8613 146.591 39.9846C146.517 40.1098 146.47 40.249 146.454 40.3933C146.437 40.5376 146.45 40.6839 146.493 40.8226L147.317 43.4998C147.398 43.744 147.565 43.95 147.788 44.0784C148.01 44.2067 148.273 44.2483 148.524 44.1952C150.798 43.7544 153.109 43.5366 155.426 43.545Z" fill="#272B5D"/>
<path d="M225.204 63.0208C217.711 58.2574 208.692 59.3735 205.013 60.1176C204.548 60.2136 204.064 60.1324 203.655 59.8899C203.247 59.6474 202.943 59.2612 202.805 58.8068L201.981 56.1295C201.902 55.8765 201.877 55.6099 201.907 55.3466C201.936 55.0833 202.021 54.8291 202.154 54.6001C202.288 54.3712 202.467 54.1725 202.682 54.0168C202.896 53.8611 203.141 53.7517 203.4 53.6957C207.92 52.7221 219.244 51.2305 228.997 57.6003C229.215 57.7453 229.401 57.9337 229.544 58.1537C229.686 58.3737 229.782 58.6207 229.825 58.8792C229.868 59.1378 229.858 59.4024 229.794 59.6567C229.731 59.911 229.615 60.1496 229.456 60.3575L227.759 62.5758C227.467 62.9569 227.041 63.2142 226.568 63.2966C226.095 63.3791 225.608 63.2806 225.204 63.0208Z" fill="#272B5D"/>
<path d="M226.249 64.1994C225.714 64.1978 225.19 64.0433 224.74 63.7543C217.484 59.1404 208.649 60.2774 205.189 60.9728C204.513 61.1105 203.809 60.9917 203.215 60.6396C202.622 60.2874 202.18 59.727 201.976 59.0674L201.152 56.3901C201.039 56.0223 201.004 55.6349 201.048 55.2526C201.092 54.8702 201.215 54.5012 201.409 54.1688C201.603 53.8365 201.864 53.548 202.175 53.3217C202.487 53.0954 202.842 52.9362 203.218 52.8541C207.762 51.8771 219.42 50.3125 229.472 56.8804C229.789 57.0893 230.06 57.3608 230.268 57.6784C230.476 57.9959 230.617 58.3526 230.682 58.7267C230.746 59.1051 230.731 59.4926 230.639 59.8652C230.547 60.2377 230.379 60.5874 230.147 60.8928L228.45 63.1111C228.192 63.45 227.859 63.7246 227.477 63.9134C227.095 64.1022 226.675 64.2 226.249 64.1994ZM225.672 62.287C225.891 62.4289 226.156 62.4834 226.413 62.4396C226.671 62.3958 226.902 62.257 227.063 62.0506L228.766 59.8288C228.855 59.7141 228.918 59.5822 228.953 59.4416C228.988 59.3009 228.993 59.1545 228.968 59.0118C228.947 58.8711 228.896 58.7364 228.82 58.6166C228.743 58.4968 228.642 58.3945 228.523 58.3164C219.017 52.1031 207.915 53.6016 203.583 54.53C203.443 54.56 203.311 54.6191 203.195 54.7036C203.079 54.7881 202.983 54.8959 202.912 55.0202C202.838 55.1454 202.791 55.2846 202.775 55.4289C202.758 55.5732 202.771 55.7194 202.814 55.8582L203.638 58.5354C203.719 58.7796 203.886 58.9856 204.109 59.1139C204.331 59.2423 204.594 59.2839 204.845 59.2308C208.513 58.4902 217.883 57.3011 225.672 62.2523V62.287Z" fill="#272B5D"/>
<path d="M39.556 45.2638C35.2101 50.4646 32.8517 57.0394 32.9012 63.8167C32.9012 78.851 43.9961 91.0377 57.6813 91.0377C71.3665 91.0377 82.4615 78.8684 82.4615 63.8167C82.4689 59.9417 81.7091 56.1036 80.2258 52.5236C79.8468 52.3011 60.6715 41.3035 39.556 45.2638Z" fill="#8E475D"/>
<path d="M57.6833 91.909C43.5391 91.909 32.0339 79.3086 32.0339 63.8188C31.9859 56.8335 34.4166 50.0576 38.8939 44.6956C39.0244 44.5445 39.202 44.4416 39.3981 44.4036C60.6874 40.412 79.8557 51.2949 80.6624 51.7608C80.8277 51.8557 80.9572 52.0023 81.031 52.178C82.5605 55.8642 83.3429 59.8174 83.3327 63.8084C83.3327 79.2982 71.8275 91.909 57.6833 91.909ZM40.0239 46.0621C35.9371 51.0735 33.7241 57.3523 33.7654 63.8188C33.7654 78.3489 44.4918 90.1706 57.6763 90.1706C70.8609 90.1706 81.5873 78.3489 81.5873 63.8188C81.5968 60.157 80.8991 56.5279 79.5324 53.1307C77.1264 51.7921 59.5156 42.5399 40.0239 46.0621Z" fill="#272B5D"/>
<path d="M41.4844 62.4941C41.1805 64.7079 41.0874 66.9455 41.2063 69.1768L41.4844 62.4941Z" fill="#8E475D"/>
<path d="M41.207 70.0478C40.9852 70.0482 40.7717 69.9638 40.6101 69.8119C40.4485 69.66 40.3511 69.4521 40.3377 69.2308C40.2169 66.9437 40.3124 64.6503 40.6229 62.3812C40.6533 62.1507 40.7741 61.9416 40.9586 61.8001C41.1431 61.6587 41.3763 61.5963 41.6068 61.6267C41.8374 61.6571 42.0464 61.7779 42.1879 61.9624C42.3294 62.1469 42.3918 62.3801 42.3613 62.6107C42.0626 64.7701 41.9718 66.9532 42.0901 69.1299C42.0967 69.2441 42.0807 69.3585 42.043 69.4665C42.0053 69.5744 41.9466 69.6739 41.8704 69.7592C41.7941 69.8445 41.7018 69.9139 41.5987 69.9634C41.4956 70.0129 41.3838 70.0416 41.2696 70.0478H41.207Z" fill="#272B5D"/>
<path d="M45.1578 50.0527C44.5238 51.3598 43.9734 52.7057 43.5098 54.0825L45.1578 50.0527Z" fill="#8E475D"/>
<path d="M43.514 54.9597C43.417 54.9587 43.3207 54.9423 43.2289 54.911C43.1209 54.8739 43.0213 54.8158 42.9359 54.74C42.8505 54.6643 42.7809 54.5723 42.7311 54.4696C42.6813 54.3668 42.6524 54.2552 42.6459 54.1412C42.6395 54.0272 42.6556 53.9131 42.6935 53.8053C43.1695 52.39 43.7363 51.0068 44.3902 49.6643C44.4953 49.4591 44.6776 49.3041 44.8971 49.2333C45.1165 49.1626 45.355 49.1819 45.5602 49.287C45.7654 49.3922 45.9204 49.5745 45.9911 49.7939C46.0619 50.0133 46.0426 50.2519 45.9374 50.457C45.322 51.7285 44.7866 53.0372 44.3346 54.3755C44.2749 54.5458 44.164 54.6933 44.0171 54.7979C43.8701 54.9025 43.6944 54.959 43.514 54.9597Z" fill="#272B5D"/>
<path d="M74.5293 54.0801C75.232 57.157 75.427 60.328 75.1065 63.4678L74.5293 54.0801Z" fill="#8E475D"/>
<path d="M75.1074 64.3473H75.0031C74.8897 64.334 74.7801 64.2983 74.6805 64.2424C74.581 64.1866 74.4934 64.1116 74.423 64.0217C74.3525 63.9319 74.3006 63.829 74.27 63.719C74.2395 63.609 74.231 63.494 74.2451 63.3807C74.553 60.3489 74.3639 57.2872 73.6853 54.3163C73.657 54.2056 73.6508 54.0904 73.667 53.9773C73.6832 53.8641 73.7216 53.7553 73.7799 53.657C73.8381 53.5587 73.9152 53.4728 74.0067 53.4043C74.0981 53.3357 74.2022 53.2859 74.3129 53.2576C74.4236 53.2293 74.5389 53.2231 74.652 53.2393C74.7651 53.2555 74.8739 53.2938 74.9723 53.3521C75.0706 53.4104 75.1564 53.4875 75.225 53.5789C75.2935 53.6704 75.3433 53.7745 75.3716 53.8852C76.1053 57.0647 76.3074 60.3438 75.9697 63.5893C75.9426 63.7989 75.8402 63.9914 75.6815 64.1309C75.5228 64.2704 75.3187 64.3473 75.1074 64.3473Z" fill="#272B5D"/>
<path d="M59.2723 71.0422H59.1576C59.0443 71.0272 58.9351 70.99 58.8362 70.9328C58.7373 70.8756 58.6507 70.7994 58.5812 70.7087C58.5118 70.618 58.461 70.5144 58.4316 70.404C58.4022 70.2936 58.3949 70.1784 58.41 70.0652L59.314 63.3616C59.3445 63.1311 59.4652 62.9221 59.6498 62.7806C59.8343 62.6391 60.0675 62.5767 60.298 62.6072C60.5285 62.6376 60.7375 62.7583 60.879 62.9429C61.0205 63.1274 61.0829 63.3606 61.0525 63.5911L60.1485 70.2981C60.1174 70.5073 60.0114 70.698 59.8502 70.8348C59.6891 70.9717 59.4837 71.0454 59.2723 71.0422Z" fill="#272B5D"/>
<path d="M52.306 61.1924C52.2333 61.1917 52.1609 61.1824 52.0904 61.1646C51.8698 61.1079 51.6802 60.9668 51.5625 60.7718C51.4448 60.5767 51.4084 60.3432 51.4611 60.1215L52.1878 57.253C52.244 57.0294 52.3868 56.8373 52.5847 56.719C52.7826 56.6006 53.0194 56.5657 53.243 56.622C53.4667 56.6782 53.6588 56.821 53.7771 57.0189C53.8955 57.2168 53.9304 57.4536 53.8741 57.6772L53.1474 60.5214C53.1024 60.7112 52.995 60.8804 52.8425 61.002C52.69 61.1237 52.5011 61.1907 52.306 61.1924Z" fill="#272B5D"/>
<path d="M39.5547 79.5666C40.2501 76.785 42.6457 71.514 45.8932 69.181C50.7818 65.6727 55.2809 70.384 50.8687 76.1731C48.4592 79.3302 46.1574 84.2917 45.695 86.7569C45.2326 89.222 37.5103 87.6018 39.5547 79.5666Z" fill="#3B8BFF"/>
<path d="M43.9871 88.6844C42.6346 88.6399 41.3454 88.1005 40.3642 87.1685C39.2655 86.1428 37.5826 83.7646 38.7126 79.3523C39.4463 76.4734 41.9045 70.9764 45.3884 68.473C47.4467 66.9953 50.3847 66.3868 52.304 68.3652C54.4771 70.6043 53.4966 74.1613 51.5634 76.7099C49.213 79.7904 46.9773 84.6477 46.5531 86.9286C46.4759 87.308 46.2954 87.6587 46.0317 87.9422C45.7679 88.2256 45.4309 88.4307 45.058 88.5349C44.7114 88.6418 44.3498 88.6923 43.9871 88.6844ZM40.3989 79.78C39.7314 82.4086 40.1382 84.5782 41.5498 85.8959C42.5546 86.8312 43.8272 87.099 44.5122 86.8695C44.8112 86.7721 44.8355 86.64 44.8598 86.5948C45.3223 84.1157 47.6414 79.0081 50.197 75.6424C52.2553 72.9478 52.1197 70.653 51.0766 69.5786C50.0335 68.5043 48.1942 68.6121 46.421 69.8846C43.476 71.9986 41.136 76.9428 40.4163 79.78H40.3989Z" fill="#272B5D"/>
<path d="M44.8923 84.0588C45.5877 81.2773 47.9868 76.0027 51.2342 73.6732C56.1228 70.165 62.1449 74.8623 57.7292 80.6514C55.3196 83.8085 53.0144 88.7701 52.5555 91.2387C52.0965 93.7073 42.8479 92.0905 44.8923 84.0588Z" fill="#3B8BFF"/>
<path d="M50.5528 93.1624C48.7964 93.1302 47.1137 92.4504 45.8277 91.2536C43.9223 89.4769 43.2965 86.8448 44.0579 83.8407C44.7881 80.9653 47.2497 75.4648 50.7336 72.9649C53.011 71.3307 56.4949 70.8787 58.7306 73.2117C61.1088 75.6456 60.0449 79.0321 58.4107 81.1774C56.0603 84.258 53.8246 89.1118 53.4004 91.3927C53.3176 91.7721 53.1306 92.1209 52.8603 92.3998C52.59 92.6786 52.2473 92.8766 51.8706 92.9712C51.4438 93.1024 50.9993 93.1669 50.5528 93.1624ZM54.7634 73.3439C53.6736 73.3642 52.6182 73.7294 51.7489 74.3869C48.8039 76.5009 46.464 81.4451 45.7442 84.2788C44.9758 87.3038 46.0085 89.0562 47.0133 89.9915C48.3658 91.2536 50.3129 91.6673 51.3456 91.3301C51.5472 91.2605 51.6933 91.1632 51.6933 91.0867C52.1557 88.6076 54.4748 83.4965 57.0304 80.1309C58.974 77.5857 58.5394 75.5169 57.4859 74.4321C57.127 74.0789 56.7016 73.8004 56.2342 73.613C55.7669 73.4256 55.2669 73.3329 54.7634 73.3404V73.3439Z" fill="#272B5D"/>
<path d="M51.7161 88.2125C52.4115 85.431 53.8022 81.6515 56.9628 79.0682C61.6254 75.2679 66.3505 80.2712 61.9383 86.0568C59.5288 89.2139 59.5357 90.7298 61.4828 90.8585C61.0238 93.3271 49.6751 96.2443 51.7161 88.2125Z" fill="#3B8BFF"/>
<path d="M55.5463 94.3475C54.1555 94.3475 52.7995 93.9998 51.8364 93.1063C51.0019 92.3274 50.157 90.808 50.8733 87.9952C51.972 83.6733 53.7835 80.5302 56.4121 78.3919C59.0406 76.2535 61.7422 76.6534 63.1851 78.0442C64.8888 79.6992 65.3791 82.9779 62.6253 86.587C60.6783 89.1391 60.9529 89.8275 60.9564 89.8345C60.9599 89.8414 61.1059 89.9666 61.5405 89.9944C61.664 90.0048 61.7839 90.0411 61.8924 90.101C62.0008 90.1609 62.0954 90.2431 62.1699 90.3421C62.2454 90.4395 62.2994 90.5519 62.3281 90.6718C62.3569 90.7917 62.3599 90.9164 62.3368 91.0375C62.0377 92.6438 59.5761 93.5722 58.8285 93.819C57.7687 94.1651 56.6612 94.3434 55.5463 94.3475ZM52.5561 88.4367C52.1528 90.0361 52.3093 91.1835 53.022 91.8476C54.1381 92.8907 56.4712 92.7551 58.2861 92.1571C58.9023 91.9643 59.4877 91.6845 60.0246 91.3261C59.7368 91.1408 59.5086 90.8764 59.3675 90.5646C58.8598 89.4485 59.437 87.9013 61.238 85.5405C63.3242 82.7971 63.0843 80.3841 61.9682 79.3028C60.8521 78.2215 59.1275 78.4266 57.5003 79.7513C55.1812 81.6358 53.561 84.4765 52.5561 88.4228V88.4367Z" fill="#272B5D"/>
<path d="M33.3427 68.6254C27.8492 65.4753 24.3305 68.149 24.7095 70.8158C25.1928 74.2441 34.6675 75.1273 36.9483 78.4929C34.2467 72.4709 33.3427 68.6254 33.3427 68.6254Z" fill="#3B8BFF"/>
<path d="M36.9431 79.3626C36.801 79.3629 36.661 79.3281 36.5355 79.2614C36.4099 79.1947 36.3028 79.0981 36.2234 78.9802C35.309 77.6346 32.8021 76.6541 30.3822 75.7049C27.1868 74.4532 24.1689 73.271 23.8386 70.938C23.7481 70.2166 23.8634 69.4843 24.1709 68.8255C24.4785 68.1667 24.9659 67.6081 25.577 67.2142C26.5471 66.5571 29.2869 65.3054 33.7583 67.8713C33.8615 67.9302 33.9515 68.0096 34.0226 68.1047C34.0938 68.1998 34.1447 68.3086 34.172 68.4242C34.172 68.4624 35.0969 72.2766 37.7289 78.1353C37.8181 78.3341 37.8293 78.5591 37.7604 78.7658C37.6915 78.9725 37.5475 79.1458 37.3569 79.2514C37.231 79.3237 37.0884 79.362 36.9431 79.3626ZM28.6819 68.0661C27.9308 68.0437 27.1904 68.2485 26.5575 68.6537C26.2139 68.8633 25.9373 69.1668 25.7605 69.5284C25.5837 69.89 25.514 70.2947 25.5596 70.6946C25.7474 72.0228 28.5463 73.1285 31.015 74.0846C32.3127 74.5653 33.5836 75.1155 34.8222 75.7327C33.9503 73.6071 33.206 71.4313 32.5935 69.2169C31.4059 68.522 30.0669 68.127 28.6924 68.0661H28.6819Z" fill="#272B5D"/>
<path d="M96.3955 33.1839C96.3028 32.6385 95.9972 32.1522 95.546 31.832C95.0948 31.5119 94.5349 31.3841 93.9895 31.4767L79.4732 33.9419C79.1902 33.9919 78.9206 34.0999 78.6812 34.2591C78.4419 34.4182 78.238 34.6251 78.0824 34.8668L69.623 47.9435C71.0868 48.4373 72.4324 48.938 73.6354 49.4212L81.0691 37.9195L94.6814 35.6073C94.9538 35.5624 95.2146 35.4638 95.4486 35.3172C95.6826 35.1707 95.8853 34.9792 96.0447 34.7537C96.2042 34.5283 96.3173 34.2735 96.3775 34.004C96.4377 33.7345 96.4438 33.4558 96.3955 33.1839Z" fill="white"/>
<path d="M73.6186 50.2909C73.5079 50.2907 73.3981 50.2694 73.2953 50.2283C71.9949 49.7068 70.6632 49.2165 69.3281 48.768C69.2024 48.7268 69.0881 48.6569 68.994 48.564C68.8998 48.4711 68.8286 48.3577 68.7857 48.2325C68.7415 48.1072 68.7267 47.9733 68.7424 47.8413C68.7581 47.7093 68.8038 47.5827 68.8761 47.4711L77.3355 34.3943C77.5584 34.0513 77.8498 33.7581 78.1915 33.5331C78.5331 33.3081 78.9176 33.1562 79.3208 33.087L93.8371 30.6184C94.2208 30.5527 94.6137 30.5638 94.9931 30.6508C95.3726 30.7378 95.7311 30.8991 96.0479 31.1254C96.3646 31.3516 96.6335 31.6384 96.8389 31.9691C97.0442 32.2998 97.1821 32.668 97.2445 33.0522C97.3092 33.4361 97.2975 33.8289 97.2101 34.2082C97.1228 34.5875 96.9614 34.9459 96.7353 35.2627C96.5092 35.5796 96.2228 35.8487 95.8926 36.0547C95.5623 36.2607 95.1946 36.3995 94.8106 36.4631L81.5739 38.7092L74.3314 49.9084C74.2527 50.0254 74.1467 50.1214 74.0224 50.188C73.8982 50.2547 73.7596 50.29 73.6186 50.2909ZM70.9379 47.485C71.7237 47.7597 72.5025 48.0518 73.2744 48.3508L80.3396 37.4332C80.405 37.332 80.4907 37.2455 80.5912 37.1791C80.6918 37.1126 80.805 37.0678 80.9237 37.0472L94.5359 34.7351C94.8508 34.6797 95.1314 34.503 95.3174 34.2429C95.5033 33.9828 95.5798 33.6602 95.5303 33.3443C95.5046 33.1865 95.4477 33.0355 95.3629 32.9C95.2781 32.7644 95.1672 32.6472 95.0366 32.555C94.7736 32.3683 94.4473 32.2933 94.1291 32.3464L79.6129 34.7907C79.4467 34.8187 79.2881 34.8811 79.1474 34.9739C79.0067 35.0667 78.887 35.1878 78.7958 35.3296L70.9379 47.485Z" fill="#272B5D"/>
<path d="M51.2761 33.8473C62.0079 30.3437 69.698 24.4107 68.4525 20.5955C67.207 16.7803 57.4974 16.5277 46.7656 20.0313C36.0338 23.5348 28.3437 29.4678 29.5892 33.283C30.8347 37.0982 40.5443 37.3508 51.2761 33.8473Z" fill="#FF9AD4"/>
<path d="M37.5582 37.1735C37.3218 37.1735 37.0923 37.1735 36.8628 37.1735C32.3706 37.0588 29.4986 35.7827 28.772 33.5505C28.0453 31.3183 29.6064 28.5959 33.1633 25.8491C36.4838 23.2866 41.2229 20.9257 46.5044 19.2012C51.7858 17.4766 57.0012 16.5865 61.1979 16.6943C65.6901 16.8125 68.5621 18.0851 69.2887 20.3208C70.0154 22.5564 68.4543 25.2754 64.8974 28.0187C61.5769 30.5812 56.8378 32.9421 51.5564 34.6666C46.56 36.2869 41.6262 37.1735 37.5582 37.1735ZM60.506 18.398C56.6188 18.398 51.8762 19.2533 47.0502 20.8319C41.953 22.4973 37.4017 24.7573 34.2342 27.2016C31.3866 29.399 29.9645 31.5617 30.4305 32.9872C31.3692 35.8627 40.0581 36.572 51.0244 32.9872C61.9907 29.4025 68.5829 23.7073 67.6442 20.818C67.1782 19.3924 64.7548 18.4849 61.1597 18.3841L60.506 18.398Z" fill="#272B5D"/>
<path d="M54.8436 45.5748C54.6603 45.5746 54.4818 45.5167 54.3332 45.4094C54.1847 45.3021 54.0737 45.1507 54.0161 44.9768L45.9496 20.2905C45.8776 20.071 45.8958 19.8319 46.0002 19.6259C46.1045 19.4198 46.2864 19.2637 46.5059 19.1917C46.7253 19.1198 46.9644 19.138 47.1704 19.2423C47.3765 19.3467 47.5327 19.5286 47.6046 19.7481L55.6676 44.4343C55.7034 44.5428 55.7174 44.6572 55.7087 44.7711C55.7001 44.8849 55.6691 44.9959 55.6174 45.0977C55.5656 45.1995 55.4943 45.2901 55.4075 45.3642C55.3206 45.4383 55.22 45.4945 55.1113 45.5296C55.0249 45.5581 54.9346 45.5734 54.8436 45.5748Z" fill="#272B5D"/>
<path d="M46.7757 20.0173C54.3798 17.5347 61.4693 16.9402 65.3982 18.1606L41.9602 6.1582L30.375 29.8883C32.635 26.4879 38.8796 22.5972 46.7757 20.0173Z" fill="#FF4A71"/>
<path d="M30.3756 30.7531C30.2244 30.7525 30.0759 30.713 29.9444 30.6383C29.7529 30.5284 29.6104 30.3498 29.5458 30.1386C29.4812 29.9274 29.4995 29.6996 29.5968 29.5014L41.1784 5.77126C41.2294 5.66751 41.3005 5.57495 41.3877 5.49901C41.4748 5.42308 41.5763 5.36529 41.686 5.32903C41.7958 5.29277 41.9116 5.27877 42.0269 5.28784C42.1421 5.29691 42.2544 5.32886 42.3571 5.38185L65.7987 17.3842C65.9484 17.4597 66.0729 17.5772 66.1569 17.7223C66.2408 17.8674 66.2807 18.0339 66.2715 18.2013C66.2649 18.3341 66.228 18.4636 66.1635 18.5798C66.099 18.6961 66.0088 18.796 65.8996 18.8719C65.7905 18.9478 65.6654 18.9977 65.534 19.0176C65.4025 19.0376 65.2683 19.0272 65.1415 18.9871C61.2752 17.7876 54.1718 18.5143 47.044 20.8438C39.586 23.2777 33.3275 27.0154 31.1057 30.3637C31.0262 30.4844 30.9177 30.5832 30.7902 30.6513C30.6627 30.7193 30.5201 30.7543 30.3756 30.7531ZM42.3537 7.32546L33.4214 25.6246C36.648 23.1907 41.2515 20.896 46.5016 19.1818C51.5502 17.5338 56.5013 16.668 60.4998 16.668H60.6006L42.3537 7.32546Z" fill="#272B5D"/>
<path d="M29.6176 32.3216C29.4357 32.3218 29.2583 32.2651 29.1102 32.1594C28.962 32.0538 28.8506 31.9045 28.7915 31.7325C28.7324 31.5604 28.7285 31.3742 28.7804 31.1999C28.8323 31.0255 28.9375 30.8717 29.0811 30.76C29.2247 30.6483 29.3996 30.5843 29.5814 30.5769C29.7631 30.5695 29.9427 30.6191 30.0949 30.7187C30.2471 30.8184 30.3643 30.9631 30.4303 31.1327C30.4962 31.3023 30.5075 31.4882 30.4625 31.6645V31.6958C30.4266 31.8198 30.3633 31.9342 30.2772 32.0305C30.1912 32.1268 30.0846 32.2025 29.9653 32.2521C29.8559 32.3005 29.7372 32.3243 29.6176 32.3216Z" fill="#272B5D"/>
<path d="M51.9365 19.4674C51.8063 19.4669 51.6778 19.4373 51.5605 19.3808C51.4431 19.3242 51.34 19.2421 51.2585 19.1405L41.2831 6.69656C41.2122 6.6092 41.1591 6.50879 41.1267 6.40101L39.5864 1.15779C39.5472 1.04652 39.5311 0.928438 39.5391 0.810744C39.547 0.69305 39.5788 0.5782 39.6326 0.473194C39.6863 0.368188 39.7609 0.275224 39.8517 0.199956C39.9425 0.124687 40.0477 0.0686926 40.1609 0.0353823C40.274 0.002072 40.3928 -0.00786457 40.5099 0.00619206C40.627 0.0202487 40.7401 0.0579972 40.8421 0.117138C40.9442 0.17628 41.0332 0.255581 41.1036 0.350204C41.174 0.444828 41.2245 0.552799 41.2519 0.667541L42.7469 5.74388L52.6145 18.0522C52.7583 18.2327 52.8248 18.4628 52.7994 18.6922C52.7739 18.9215 52.6587 19.1315 52.4789 19.2761C52.3253 19.4001 52.1339 19.4676 51.9365 19.4674Z" fill="#272B5D"/>
<path d="M43.5144 36.6318C43.2918 36.6313 43.0777 36.5456 42.9161 36.3925C42.7546 36.2393 42.6576 36.0301 42.6452 35.8078L41.8977 21.5523C41.8857 21.3218 41.9658 21.0959 42.1203 20.9244C42.2748 20.753 42.4912 20.6499 42.7217 20.6379C42.9522 20.6259 43.1781 20.706 43.3496 20.8605C43.5211 21.0151 43.6241 21.2314 43.6361 21.4619L44.3837 35.7174C44.3898 35.8316 44.3733 35.9458 44.3351 36.0536C44.297 36.1614 44.238 36.2607 44.1614 36.3456C44.0849 36.4305 43.9923 36.4996 43.889 36.5487C43.7858 36.5978 43.6738 36.626 43.5596 36.6318H43.5144Z" fill="#272B5D"/>
<path d="M174.549 120.675C181.096 121.555 188.867 120.974 196.311 116.423C197.849 115.484 198.951 113.972 199.375 112.22C199.798 110.468 199.509 108.62 198.569 107.082C197.63 105.544 196.118 104.442 194.367 104.018C192.615 103.595 190.767 103.884 189.229 104.824C178.759 111.232 165.665 103.725 165.533 103.648L165.561 103.666L161.528 110.415C161.142 111.064 160.903 111.79 160.826 112.542C160.749 113.294 160.836 114.053 161.082 114.768C161.327 115.482 161.725 116.135 162.247 116.681C162.77 117.226 163.404 117.652 164.108 117.928C167.467 119.253 170.972 120.175 174.549 120.675Z" fill="white"/>
<path d="M179.659 121.884C177.915 121.885 176.172 121.769 174.443 121.537C170.795 121.038 167.22 120.104 163.794 118.755C162.971 118.436 162.228 117.94 161.617 117.304C161.005 116.668 160.54 115.906 160.254 115.071C159.968 114.236 159.867 113.349 159.959 112.472C160.051 111.594 160.333 110.747 160.786 109.99L164.732 103.384C164.751 103.335 164.773 103.287 164.798 103.241C164.913 103.044 165.1 102.899 165.321 102.84C165.541 102.781 165.776 102.811 165.974 102.925C166.099 102.998 178.803 110.226 188.779 104.11C190.512 103.05 192.595 102.721 194.571 103.197C196.546 103.673 198.252 104.914 199.312 106.647C200.373 108.38 200.701 110.463 200.226 112.439C199.75 114.414 198.509 116.12 196.776 117.18C191.623 120.319 185.692 121.949 179.659 121.884ZM165.876 104.816L162.267 110.863C161.944 111.403 161.742 112.008 161.676 112.635C161.611 113.262 161.683 113.895 161.887 114.491C162.092 115.087 162.424 115.631 162.861 116.085C163.298 116.54 163.828 116.893 164.416 117.121C167.713 118.419 171.153 119.321 174.662 119.809C182.52 120.852 189.648 119.461 195.854 115.675C196.518 115.269 197.095 114.737 197.553 114.108C198.01 113.479 198.34 112.767 198.522 112.011C198.704 111.255 198.736 110.47 198.615 109.702C198.494 108.934 198.223 108.197 197.817 107.533C197.411 106.87 196.879 106.293 196.25 105.835C195.622 105.378 194.909 105.048 194.153 104.866C193.397 104.684 192.613 104.652 191.844 104.773C191.076 104.894 190.339 105.165 189.676 105.571C180.292 111.304 168.936 106.353 165.876 104.816Z" fill="#272B5D"/>
<path d="M128.947 141.534L119.402 133.484C120.846 137.992 122.572 142.405 124.569 146.697C122.344 141.415 125.258 138.474 128.947 141.534Z" fill="#272B5D"/>
<path d="M124.56 147.568C124.395 147.568 124.233 147.522 124.094 147.433C123.955 147.345 123.844 147.219 123.774 147.07C121.76 142.741 120.018 138.29 118.558 133.743C118.503 133.564 118.507 133.371 118.57 133.194C118.633 133.017 118.752 132.866 118.909 132.762C119.065 132.658 119.251 132.608 119.439 132.619C119.626 132.629 119.806 132.701 119.949 132.822L129.493 140.871C129.664 141.02 129.77 141.231 129.788 141.457C129.805 141.683 129.734 141.907 129.589 142.082C129.444 142.256 129.236 142.367 129.01 142.39C128.784 142.413 128.558 142.347 128.381 142.206C127.181 141.215 126.023 140.906 125.356 141.403C124.591 141.97 124.264 143.767 125.356 146.361C125.445 146.57 125.448 146.806 125.365 147.017C125.281 147.229 125.118 147.399 124.911 147.491C124.8 147.541 124.681 147.567 124.56 147.568ZM121.204 136.149C121.705 137.578 122.39 139.432 123.224 141.476C123.444 140.891 123.825 140.381 124.323 140.005C124.598 139.802 124.906 139.648 125.234 139.55L121.204 136.149Z" fill="#272B5D"/>
<path d="M165.902 123.373C165.902 123.373 171.931 125.988 180.175 125.431L165.902 123.373Z" fill="white"/>
<path d="M177.84 126.378C170.737 126.378 165.785 124.268 165.556 124.17C165.344 124.078 165.178 123.906 165.094 123.691C165.009 123.476 165.013 123.236 165.106 123.025C165.198 122.813 165.37 122.647 165.585 122.562C165.8 122.478 166.04 122.482 166.251 122.574C170.679 124.224 175.409 124.902 180.121 124.563C180.235 124.556 180.35 124.571 180.458 124.607C180.566 124.644 180.666 124.702 180.752 124.777C180.838 124.853 180.909 124.944 180.959 125.047C181.01 125.149 181.04 125.261 181.047 125.375C181.055 125.489 181.04 125.604 181.003 125.712C180.967 125.82 180.909 125.92 180.833 126.007C180.758 126.093 180.666 126.163 180.564 126.214C180.461 126.264 180.35 126.294 180.236 126.302C179.412 126.354 178.612 126.378 177.84 126.378Z" fill="#272B5D"/>
<path d="M172.4 89.7935C173.94 87.1975 173.53 84.1101 171.486 82.8977C169.441 81.6853 166.536 82.8069 164.997 85.403C163.457 87.999 163.866 91.0864 165.911 92.2988C167.955 93.5112 170.861 92.3896 172.4 89.7935Z" fill="#3B8BFF"/>
<path d="M167.524 92.8141C166.736 92.8191 165.962 92.6113 165.282 92.2126C164.661 91.8317 164.137 91.3125 163.75 90.6954C163.364 90.0784 163.125 89.3803 163.053 88.6557C162.871 87.0812 163.218 85.4908 164.041 84.1357C165.817 81.1281 169.256 79.859 171.718 81.3089C172.334 81.6915 172.854 82.2105 173.238 82.826C173.622 83.4415 173.86 84.137 173.932 84.8589C174.113 86.4338 173.765 88.0242 172.942 89.3789C171.679 91.5485 169.541 92.8141 167.524 92.8141ZM169.447 82.425C168.056 82.425 166.492 83.3881 165.539 85.0049C164.911 86.0249 164.642 87.2254 164.774 88.4158C164.814 88.879 164.96 89.3267 165.202 89.7241C165.443 90.1215 165.772 90.4579 166.165 90.7071C167.796 91.6702 170.17 90.6793 171.457 88.4958C172.084 87.4757 172.354 86.2753 172.222 85.0849C172.181 84.6214 172.035 84.1735 171.793 83.7757C171.552 83.3778 171.223 83.0406 170.831 82.7901C170.41 82.5476 169.933 82.4216 169.447 82.425Z" fill="#272B5D"/>
<path d="M191.863 94.7657C194.146 94.1045 195.317 91.2179 194.477 88.3184C193.637 85.4188 191.106 83.6043 188.822 84.2656C186.539 84.9268 185.368 87.8134 186.208 90.713C187.047 93.6125 189.579 95.427 191.863 94.7657Z" fill="#3B8BFF"/>
<path d="M190.913 95.7682C188.539 95.7682 186.205 93.8281 185.371 90.9527C184.401 87.5974 185.84 84.2248 188.58 83.432C191.32 82.6393 194.342 84.722 195.312 88.0772C196.282 91.4325 194.846 94.8051 192.102 95.5979C191.716 95.7108 191.316 95.7682 190.913 95.7682ZM187.043 90.4694C187.739 92.9032 189.801 94.4574 191.619 93.9463C193.438 93.4352 194.348 91.0118 193.643 88.5779C192.937 86.1441 190.885 84.5899 189.064 85.1184C187.242 85.6469 186.338 88.0529 187.043 90.4868V90.4694Z" fill="#272B5D"/>
<path d="M122.264 72.5879C124.292 56.514 136.03 56.5939 150.914 58.4889C165.799 60.3838 175.483 65.8252 174.516 73.4779C173.042 85.1674 159.002 101.937 139.267 99.4472C126.423 97.827 120.505 86.5373 122.264 72.5879Z" fill="url(#paint0_linear_17202_128592)"/>
<path d="M143.113 100.561C141.79 100.56 140.468 100.477 139.156 100.311C126.437 98.7078 119.466 87.7937 121.399 72.4951C123.534 55.5729 136.079 55.7572 151.023 57.6417C158.613 58.6013 164.868 60.4858 169.103 63.0935C173.713 65.9237 175.879 69.5571 175.361 73.6043C174.551 80.0088 170.309 87.2304 164.291 92.4528C158.182 97.7482 150.779 100.561 143.113 100.561ZM140.098 58.5144C137.021 58.5144 134.344 58.8342 132.049 59.6305C126.858 61.428 124.021 65.583 123.124 72.7003C121.326 86.9557 127.703 97.1154 139.371 98.5861C147.921 99.664 156.374 97.0319 163.154 91.1211C168.866 86.17 172.889 79.3691 173.64 73.3679C174.064 70.0022 172.232 67.0398 168.192 64.5573C164.151 62.0747 158.14 60.2772 150.807 59.3419C147.258 58.8479 143.681 58.5716 140.098 58.5144Z" fill="#272B5D"/>
<path d="M158.783 59.9336H158.637C157.551 59.9313 156.475 60.143 155.47 60.5566C154.466 60.9702 153.553 61.5775 152.783 62.344C152.013 63.1105 151.402 64.0211 150.984 65.0238C150.566 66.0265 150.35 67.1016 150.348 68.1879C150.342 70.382 149.466 72.484 147.911 74.0319C146.356 75.5798 144.249 76.4467 142.055 76.4421C140.969 76.4398 139.893 76.6515 138.889 77.0651C137.884 77.4787 136.971 78.0861 136.201 78.8525C135.432 79.619 134.82 80.5296 134.403 81.5323C133.985 82.535 133.769 83.6101 133.766 84.6964C133.766 86.656 133.069 88.5518 131.802 90.0461C130.534 91.5405 128.777 92.5365 126.844 92.8568C129.737 96.4067 133.895 98.7676 139.267 99.463C139.788 99.529 140.31 99.5777 140.818 99.6194C141.998 98.1573 142.642 96.3352 142.643 94.4562C142.648 92.2621 143.525 90.16 145.08 88.6121C146.635 87.0642 148.741 86.1973 150.935 86.2019C152.022 86.2042 153.098 85.9925 154.102 85.5789C155.107 85.1653 156.02 84.558 156.79 83.7915C157.559 83.025 158.17 82.1144 158.588 81.1117C159.006 80.109 159.222 79.0339 159.225 77.9476C159.23 75.7535 160.107 73.6515 161.662 72.1036C163.217 70.5557 165.323 69.6888 167.517 69.6934C169.529 69.6991 171.474 68.9696 172.986 67.642C170.559 64.2694 165.556 61.6304 158.783 59.9336Z" fill="white"/>
<path d="M140.814 100.472H140.748C140.171 100.427 139.649 100.375 139.156 100.312C133.794 99.6374 129.302 97.2453 126.166 93.3963C126.075 93.2779 126.015 93.1381 125.994 92.9902C125.972 92.8424 125.989 92.6914 126.042 92.5518C126.095 92.4122 126.184 92.2887 126.299 92.193C126.413 92.0974 126.551 92.0328 126.698 92.0055C128.431 91.725 130.006 90.8356 131.142 89.4972C132.278 88.1588 132.899 86.4592 132.894 84.704C132.898 82.2827 133.863 79.9621 135.577 78.2516C137.291 76.5411 139.613 75.5805 142.035 75.5805H142.073C144.033 75.5805 145.913 74.803 147.301 73.4185C148.689 72.034 149.471 70.1557 149.475 68.1954C149.477 66.9948 149.715 65.8062 150.177 64.6976C150.638 63.5891 151.313 62.5823 152.164 61.7347C153.014 60.8871 154.023 60.2154 155.133 59.758C156.243 59.3005 157.433 59.0662 158.634 59.0685H158.783C158.859 59.0672 158.935 59.0766 159.009 59.0963C166.109 60.8695 171.185 63.6511 173.675 67.128C173.8 67.3031 173.856 67.5184 173.831 67.7323C173.807 67.9462 173.704 68.1435 173.543 68.2858C171.876 69.749 169.735 70.556 167.517 70.5563H167.479C165.519 70.559 163.641 71.3374 162.254 72.7213C160.867 74.1052 160.084 75.9819 160.076 77.9413C160.069 80.3617 159.103 82.6807 157.39 84.3906C155.677 86.1005 153.356 87.0621 150.936 87.0648H150.897C148.936 87.0648 147.056 87.8428 145.668 89.228C144.28 90.6132 143.499 92.4925 143.495 94.4533C143.502 96.5287 142.795 98.5434 141.492 100.159C141.41 100.258 141.306 100.338 141.189 100.392C141.071 100.446 140.943 100.473 140.814 100.472ZM128.436 93.3407C131.218 96.2578 134.903 98.0206 139.371 98.5839C139.702 98.6256 140.046 98.6639 140.414 98.6952C141.293 97.4557 141.764 95.9728 141.76 94.4533C141.765 92.0326 142.731 89.7129 144.445 88.0032C146.158 86.2935 148.48 85.3333 150.901 85.3333H150.939C152.899 85.3314 154.779 84.5529 156.166 83.1681C157.554 81.7832 158.336 79.905 158.341 77.9448C158.35 75.5249 159.316 73.2069 161.029 71.4977C162.742 69.7886 165.062 68.8275 167.482 68.8248H167.521C169.035 68.8239 170.513 68.3592 171.755 67.4931C169.356 64.6698 164.868 62.3681 158.686 60.8069H158.634C156.673 60.8088 154.793 61.5872 153.405 62.9719C152.017 64.3567 151.234 66.2349 151.228 68.1954C151.219 70.6153 150.253 72.9333 148.54 74.6425C146.827 76.3516 144.507 77.3127 142.087 77.3155H142.048C140.087 77.3145 138.205 78.0921 136.817 79.4774C135.428 80.8627 134.646 82.7425 134.643 84.704C134.643 86.6122 134.044 88.4724 132.931 90.0221C131.817 91.5717 130.245 92.7325 128.436 93.3407Z" fill="#272B5D"/>
<path d="M238.449 87.2504C240.476 71.173 229.082 68.3532 214.197 66.4757C199.312 64.5981 188.579 67.477 187.613 75.1263C186.138 86.8123 195.571 106.547 215.306 109.037C228.15 110.664 236.69 101.203 238.449 87.2504Z" fill="url(#paint1_linear_17202_128592)"/>
<path d="M218.113 110.091C217.139 110.091 216.166 110.03 215.2 109.907C206.16 108.763 198.194 103.836 192.794 96.0306C188.274 89.4801 185.945 81.4275 186.751 75.0229C187.753 67.0816 198.055 63.549 214.306 65.6143C220.871 66.4418 228.283 67.5962 233.144 70.8297C238.273 74.2198 240.289 79.6333 239.312 87.373C238.398 94.6085 235.749 100.585 231.663 104.619C229.885 106.39 227.77 107.787 225.443 108.727C223.115 109.667 220.623 110.131 218.113 110.091ZM205.902 66.7826C195.632 66.7826 189.161 69.8075 188.476 75.2385C187.718 81.2362 189.922 88.8264 194.223 95.0397C199.338 102.432 206.866 107.098 215.415 108.179C221.291 108.92 226.479 107.254 230.425 103.363C234.25 99.591 236.722 93.9757 237.588 87.1366C238.485 80.0228 236.767 75.2941 232.185 72.2622C228.092 69.5502 221.99 68.3333 214.105 67.3354C211.385 66.9794 208.645 66.7948 205.902 66.7826Z" fill="#272B5D"/>
<path d="M233.318 77.3763C233.32 75.8438 233.75 74.3423 234.559 73.0406C232.066 70.7111 228.571 69.2507 224.427 68.2285C224.27 70.3115 223.33 72.2579 221.797 73.6767C220.264 75.0956 218.251 75.882 216.162 75.8778C215.076 75.875 214 76.0864 212.995 76.4999C211.99 76.9133 211.077 77.5206 210.307 78.2872C209.537 79.0537 208.926 79.9645 208.509 80.9674C208.091 81.9703 207.875 83.0457 207.873 84.1321C207.868 86.3262 206.991 88.4282 205.436 89.9761C203.881 91.524 201.775 92.3909 199.581 92.3863C198.393 92.3843 197.219 92.6389 196.139 93.1328C195.058 93.6267 194.098 94.3482 193.322 95.2478C195.785 98.9255 198.968 102.066 202.679 104.479C204.224 102.973 206.299 102.134 208.457 102.143C210.647 102.144 212.747 101.277 214.299 99.7324C215.85 98.1879 216.727 96.0915 216.736 93.9023C216.736 92.8132 216.952 91.735 217.37 90.7293C217.788 89.7237 218.4 88.8105 219.172 88.042C219.944 87.2736 220.859 86.665 221.867 86.2512C222.874 85.8374 223.953 85.6265 225.042 85.6306C226.129 85.6338 227.206 85.4228 228.211 85.0096C229.216 84.5964 230.13 83.9891 230.9 83.2225C231.67 82.4558 232.281 81.5449 232.699 80.5418C233.117 79.5387 233.333 78.463 233.335 77.3763H233.318Z" fill="white"/>
<path d="M202.668 105.349C202.501 105.349 202.338 105.301 202.199 105.21C198.386 102.737 195.117 99.5136 192.592 95.7354C192.488 95.5783 192.438 95.3916 192.449 95.2034C192.46 95.0153 192.532 94.8359 192.654 94.6924C193.512 93.7002 194.573 92.9044 195.766 92.359C196.959 91.8136 198.255 91.5315 199.566 91.5318H199.605C201.565 91.5309 203.445 90.7526 204.833 89.3676C206.221 87.9826 207.003 86.1039 207.007 84.1433C207.013 81.7226 207.978 79.403 209.692 77.6932C211.405 75.9835 213.727 75.0233 216.148 75.0233H216.183C218.049 75.0184 219.845 74.3108 221.213 73.0415C222.58 71.7722 223.42 70.0342 223.564 68.1737C223.574 68.0477 223.611 67.9253 223.672 67.8149C223.734 67.7045 223.819 67.6088 223.921 67.5344C224.023 67.46 224.14 67.4087 224.264 67.384C224.388 67.3593 224.516 67.3618 224.639 67.3914C229.406 68.5666 232.747 70.173 235.156 72.4156C235.303 72.5528 235.398 72.7367 235.424 72.9359C235.45 73.1351 235.406 73.3371 235.299 73.5074C234.576 74.6738 234.192 76.0186 234.19 77.3911C234.183 79.8112 233.217 82.1297 231.502 83.8377C229.788 85.5457 227.466 86.5035 225.046 86.5007H225.007C223.045 86.5044 221.165 87.2855 219.778 88.6731C218.391 90.0606 217.611 91.9413 217.608 93.9031C217.6 96.3233 216.634 98.6417 214.921 100.351C213.208 102.061 210.888 103.023 208.467 103.027H208.429C206.504 103.022 204.653 103.77 203.273 105.113C203.11 105.268 202.893 105.353 202.668 105.349ZM194.428 95.3321C196.635 98.4908 199.4 101.22 202.588 103.385C204.227 102.017 206.295 101.269 208.429 101.274H208.467C210.424 101.271 212.301 100.495 213.688 99.1141C215.074 97.7333 215.859 95.86 215.87 93.9031C215.877 91.4826 216.843 89.1637 218.556 87.4538C220.27 85.7439 222.59 84.7823 225.011 84.7796H225.046C227.006 84.7796 228.886 84.0021 230.274 82.6176C231.661 81.2332 232.443 79.3548 232.448 77.3946C232.448 75.9435 232.794 74.5134 233.456 73.2222C231.474 71.5568 228.804 70.2981 225.16 69.3142C224.756 71.4017 223.639 73.2841 222.001 74.6399C220.364 75.9957 218.306 76.7407 216.179 76.7478H216.145C214.184 76.7478 212.304 77.5254 210.916 78.9098C209.529 80.2943 208.747 82.1727 208.742 84.1329C208.736 86.5536 207.77 88.8731 206.057 90.5832C204.343 92.2933 202.022 93.2545 199.601 93.2564H199.563C197.647 93.2562 195.805 94.0004 194.428 95.3321Z" fill="#272B5D"/>
<path d="M187.612 75.9996H187.504C187.275 75.9701 187.067 75.8511 186.925 75.6686C186.784 75.4861 186.721 75.2551 186.749 75.026C186.843 74.2792 186.789 73.5213 186.591 72.7953C186.392 72.0694 186.052 71.3898 185.59 70.7952C185.129 70.2007 184.555 69.7029 183.901 69.3302C183.247 68.9575 182.526 68.7173 181.779 68.6232C181.032 68.5292 180.274 68.5831 179.548 68.782C178.822 68.9809 178.143 69.3208 177.548 69.7823C176.954 70.2438 176.456 70.818 176.083 71.4719C175.71 72.1258 175.47 72.8467 175.376 73.5935C175.347 73.824 175.228 74.0336 175.044 74.1761C174.861 74.3186 174.628 74.3823 174.397 74.3532C174.167 74.3242 173.957 74.2047 173.815 74.0212C173.672 73.8376 173.609 73.605 173.638 73.3745C173.886 71.4089 174.905 69.6224 176.47 68.408C178.035 67.1935 180.019 66.6506 181.984 66.8987C183.95 67.1467 185.736 68.1654 186.951 69.7307C188.165 71.2959 188.708 73.2795 188.46 75.2451C188.432 75.4513 188.331 75.6408 188.175 75.7791C188.02 75.9175 187.82 75.9957 187.612 75.9996Z" fill="#272B5D"/>
<path d="M214.199 67.3458H214.088L150.808 59.3489C150.693 59.3345 150.583 59.2977 150.483 59.2408C150.383 59.1838 150.296 59.1077 150.225 59.0168C150.154 58.9259 150.103 58.8221 150.072 58.7111C150.042 58.6001 150.034 58.4842 150.048 58.3701C150.062 58.2559 150.099 58.1457 150.156 58.0458C150.213 57.9458 150.289 57.8581 150.38 57.7875C150.471 57.717 150.575 57.665 150.686 57.6346C150.797 57.6042 150.912 57.596 151.027 57.6104L214.307 65.6074C214.538 65.6216 214.753 65.7269 214.906 65.9001C215.059 66.0732 215.137 66.3 215.122 66.5305C215.108 66.761 215.003 66.9764 214.83 67.1293C214.657 67.2822 214.43 67.3601 214.199 67.3458Z" fill="#272B5D"/>
<defs>
<linearGradient id="paint0_linear_17202_128592" x1="143.895" y1="98.3624" x2="149.791" y2="65.0638" gradientUnits="userSpaceOnUse">
<stop stop-color="white"/>
<stop offset="0.57" stop-color="#FFF654"/>
<stop offset="1" stop-color="#FF9AD4"/>
</linearGradient>
<linearGradient id="paint1_linear_17202_128592" x1="207.998" y1="109.715" x2="213.895" y2="76.4162" gradientUnits="userSpaceOnUse">
<stop stop-color="white"/>
<stop offset="0.57" stop-color="#FFF654"/>
<stop offset="1" stop-color="#FF9AD4"/>
</linearGradient>
</defs>
</svg>
