<svg width="101" height="81" viewBox="0 0 101 81" fill="none" xmlns="http://www.w3.org/2000/svg">
<path d="M99.8765 32.0186C99.9095 32.0186 99.9412 32.0054 99.9645 31.9821C99.9879 31.9587 100.001 31.9271 100.001 31.894C100.001 31.861 99.9879 31.8294 99.9645 31.806C99.9412 31.7826 99.9095 31.7695 99.8765 31.7695C99.8434 31.7695 99.8118 31.7826 99.7884 31.806C99.7651 31.8294 99.752 31.861 99.752 31.894C99.752 31.9271 99.7651 31.9587 99.7884 31.9821C99.8118 32.0054 99.8434 32.0186 99.8765 32.0186Z" fill="#272B5D"/>
<path d="M28.1022 13.0527C25.0109 15.1138 21.8824 18.1511 24.5137 27.0114C27.1451 35.8718 28.1022 13.0527 28.1022 13.0527Z" fill="#FF4A71" stroke="#272B5D" stroke-width="0.532312" stroke-linecap="round" stroke-linejoin="round"/>
<path d="M54.4531 10.2898C59.8636 9.92377 63.5699 16.5727 62.0849 23.4799C56.3299 19.2722 54.4531 10.2898 54.4531 10.2898Z" fill="#FF4A71" stroke="#272B5D" stroke-width="0.532312" stroke-linecap="round" stroke-linejoin="round"/>
<path d="M38.3311 8.08354C31.7801 6.83178 24.6032 12.4141 24.8954 20.6178C30.5217 21.1814 39.3255 12.4141 39.3255 12.4141L38.3311 8.08354Z" fill="#FF4A71" stroke="#272B5D" stroke-width="0.532312" stroke-linecap="round" stroke-linejoin="round"/>
<path d="M34.9922 11.966C34.9922 8.01561 39.7486 5.21076 46.542 5.76525C53.3138 6.31726 56.503 9.66665 56.503 13.5282C56.5071 18.5369 34.9922 11.966 34.9922 11.966Z" fill="#FF4A71" stroke="#272B5D" stroke-width="0.532312" stroke-linecap="round" stroke-linejoin="round"/>
<path d="M62.047 21.7569C61.3912 14.5352 52.379 9.45091 41.9174 10.4014C31.4559 11.3518 23.5078 17.9767 24.1627 25.1984C24.8177 32.4202 33.8316 37.5044 44.2931 36.554C54.7547 35.6035 62.7027 28.9795 62.047 21.7569ZM43.1808 20.4437C42.1415 20.5383 41.2459 20.0328 41.1811 19.3156C41.1164 18.5984 41.9058 17.9394 42.9451 17.8447C43.9843 17.7501 44.88 18.2556 44.9456 18.9736C45.0111 19.6917 44.2176 20.3483 43.1808 20.4437Z" fill="#FF9AD4" stroke="#272B5D" stroke-width="0.532312" stroke-linecap="round" stroke-linejoin="round"/>
<path d="M43.7168 17.8896C43.7168 17.8896 45.1072 13.2843 49.5158 10.7891" stroke="#272B5D" stroke-width="0.532312" stroke-linecap="round" stroke-linejoin="round"/>
<path d="M44.9434 18.9742C44.9434 18.9742 60.3696 15.9469 62.0863 23.4791" stroke="#272B5D" stroke-width="0.532312" stroke-linecap="round" stroke-linejoin="round"/>
<path d="M42.3516 17.9666C42.3516 17.9666 41.0309 13.8046 38.9648 10.832" stroke="#272B5D" stroke-width="0.532312" stroke-linecap="round" stroke-linejoin="round"/>
<path d="M24.8887 20.265C29.0939 15.4091 37.7077 16.2366 41.2953 18.7659" stroke="#272B5D" stroke-width="0.532312" stroke-linecap="round" stroke-linejoin="round"/>
<path d="M41.714 20.127L36.5293 26.6713" stroke="#272B5D" stroke-width="0.532312" stroke-linecap="round" stroke-linejoin="round"/>
<path d="M43.9258 20.2656L51.067 27.9207" stroke="#272B5D" stroke-width="0.532312" stroke-linecap="round" stroke-linejoin="round"/>
<path d="M56.5082 13.125L54.8613 34.8765" stroke="#272B5D" stroke-width="0.532312" stroke-linecap="round" stroke-linejoin="round"/>
<path d="M61.7567 25.0527L57.3066 39.5203" stroke="#272B5D" stroke-width="0.532312" stroke-linecap="round" stroke-linejoin="round"/>
<path d="M34.9922 11.9648L43.0614 34.4717" stroke="#272B5D" stroke-width="0.532312" stroke-linecap="round" stroke-linejoin="round"/>
<path d="M24.1328 24L37.3204 37.6731" stroke="#272B5D" stroke-width="0.532312" stroke-linecap="round" stroke-linejoin="round"/>
<path d="M61.168 62.0763L70.2806 70.6718C70.4483 70.8317 70.6599 70.9379 70.8883 70.9766C71.1167 71.0154 71.3515 70.985 71.5625 70.8893C71.7735 70.7937 71.9511 70.6372 72.0725 70.4399C72.1939 70.2425 72.2535 70.0135 72.2438 69.782L71.9607 62.0763L72.8481 62.9637C72.9618 63.0772 73.0977 63.166 73.2475 63.2243C73.3972 63.2826 73.5574 63.3093 73.7179 63.3026C73.8784 63.2959 74.0358 63.256 74.1801 63.1853C74.3245 63.1147 74.4526 63.0149 74.5564 62.8923C74.7444 62.6698 74.8419 62.3848 74.8298 62.0938C74.8176 61.8028 74.6967 61.527 74.4908 61.3209L72.2031 59.0332C71.373 58.2031 69.9461 58.79 69.9461 59.9679V66.5314L62.9385 59.1229L61.168 62.0763Z" fill="#3B8BFF" stroke="#272B5D" stroke-width="0.532312" stroke-linecap="round" stroke-linejoin="round"/>
<path d="M69.9453 66.5312L71.1199 67.7722" stroke="#272B5D" stroke-width="0.532312" stroke-linecap="round" stroke-linejoin="round"/>
<path d="M71.9585 62.077L71.9004 60.4766" stroke="#272B5D" stroke-width="0.532312" stroke-linecap="round" stroke-linejoin="round"/>
<path d="M63.8572 64.6132C62.6552 63.4113 65.4617 61.7909 66.535 62.9282L62.9383 59.123L61.1719 62.0765L63.8572 64.6132Z" fill="#272B5D" stroke="#272B5D" stroke-width="0.532312" stroke-linecap="round" stroke-linejoin="round"/>
<path d="M47.8672 68.3964L52.133 79.459C52.6692 80.8477 54.5875 80.9664 55.2873 79.6549L59.5697 71.6645L60.6231 73.2782C60.7147 73.4202 60.8385 73.5388 60.9843 73.6242C61.1302 73.7097 61.2941 73.7597 61.4628 73.7702C61.6316 73.7807 61.8004 73.7514 61.9558 73.6847C62.1111 73.618 62.2486 73.5157 62.3571 73.3861C62.5198 73.1937 62.6103 72.9506 62.6132 72.6987C62.616 72.4468 62.5311 72.2017 62.3729 72.0057L60.4546 69.6316C60.3529 69.5056 60.2234 69.405 60.0761 69.3378C59.9289 69.2705 59.768 69.2385 59.6062 69.2441C59.4445 69.2497 59.2862 69.2929 59.144 69.3703C59.0018 69.4476 58.8796 69.557 58.7869 69.6897L53.9642 76.5952L51.3178 67.4277L47.8672 68.3964Z" fill="#3B8BFF" stroke="#272B5D" stroke-width="0.532312" stroke-linecap="round" stroke-linejoin="round"/>
<path d="M59.5703 71.6643L59.9314 70.9902" stroke="#272B5D" stroke-width="0.532312" stroke-linecap="round" stroke-linejoin="round"/>
<path d="M53.9648 76.5957L54.3517 77.9321" stroke="#272B5D" stroke-width="0.532312" stroke-linecap="round" stroke-linejoin="round"/>
<path d="M49.1248 71.662C48.5155 70.0848 52.0641 70.0184 52.729 72.3169L51.3179 67.4277L47.8672 68.394L49.1248 71.662Z" fill="#272B5D" stroke="#272B5D" stroke-width="0.532312" stroke-linecap="round" stroke-linejoin="round"/>
<path d="M64.8789 40.5934L71.6599 32.8737L73.9775 25.1962C73.9775 25.1962 72.0176 22.9052 72.0176 19.5931C72.0176 16.2811 72.8178 13.6448 73.9077 12.7865C74.9976 11.9281 75.7572 12.8554 75.7572 12.8554C76.9193 12.0253 77.8971 12.3864 78.049 13.6854C79.2111 13.2994 80.0089 14.1279 79.4701 15.6594C78.9314 17.1909 78.7231 18.9033 78.7231 18.9033C80.78 22.9052 78.4333 26.1765 76.9018 26.1209L74.5602 34.3778C74.3566 35.0952 74.0083 35.7633 73.5367 36.3409L66.598 44.841L64.8789 40.5934Z" fill="#3B8BFF" stroke="#272B5D" stroke-width="0.532312" stroke-linecap="round" stroke-linejoin="round"/>
<path d="M74.1639 26.1921C72.4896 25.362 71.9741 24.9586 71.496 22.7506C71.0179 20.5425 70.2509 19.6128 69.5636 18.923C68.8763 18.2332 69.9869 17.1193 71.496 18.093C73.0051 19.0666 73.9033 21.2398 73.9033 21.2398C75.9785 21.0373 76.1295 23.227 76.1295 23.227" fill="#3B8BFF"/>
<path d="M74.1639 26.1921C72.4896 25.362 71.9741 24.9586 71.496 22.7506C71.0179 20.5425 70.2509 19.6128 69.5636 18.923C68.8763 18.2332 69.9869 17.1193 71.496 18.093C73.0051 19.0666 73.9033 21.2398 73.9033 21.2398C75.9785 21.0373 76.1295 23.227 76.1295 23.227" stroke="#272B5D" stroke-width="0.532312" stroke-linecap="round" stroke-linejoin="round"/>
<path d="M75.7588 12.8594C76.1074 13.208 75.9663 13.8621 75.6351 14.6532C75.3039 15.4443 74.7336 16.8986 74.844 18.5919" fill="#3B8BFF"/>
<path d="M75.7588 12.8594C76.1074 13.208 75.9663 13.8621 75.6351 14.6532C75.3039 15.4443 74.7336 16.8986 74.844 18.5919" stroke="#272B5D" stroke-width="0.532312" stroke-linecap="round" stroke-linejoin="round"/>
<path d="M78.0508 13.6875C78.2019 14.5068 77.62 15.6797 77.356 16.5098C76.9236 17.872 77.107 18.8838 77.107 18.8838" fill="#3B8BFF"/>
<path d="M78.0508 13.6875C78.2019 14.5068 77.62 15.6797 77.356 16.5098C76.9236 17.872 77.107 18.8838 77.107 18.8838" stroke="#272B5D" stroke-width="0.532312" stroke-linecap="round" stroke-linejoin="round"/>
<path d="M69.3536 35.498C67.8379 37.2246 70.3497 40.2461 71.5857 38.7354L66.6052 44.8415L64.8828 40.5939L69.3536 35.498Z" fill="#272B5D" stroke="#272B5D" stroke-width="0.532312" stroke-linecap="round" stroke-linejoin="round"/>
<path d="M30.1013 53.4845L19.8639 52.5714L12.8912 48.6144C12.8912 48.6144 12.7301 45.6036 10.4449 43.2055C8.15969 40.8074 5.76241 39.4511 4.3853 39.583C3.00819 39.715 3.09369 40.9112 3.09369 40.9112C1.68255 41.1121 1.22102 42.0476 2.00628 43.0918C0.89978 43.6114 0.891479 44.7628 2.33832 45.499C3.78515 46.2353 5.11495 47.3335 5.11495 47.3335C6.38664 51.65 10.3445 52.397 11.4128 51.303L18.8005 55.6659C19.4424 56.0451 20.1552 56.2887 20.8948 56.3815L31.7822 57.7494L30.1013 53.4845Z" fill="#3B8BFF" stroke="#272B5D" stroke-width="0.532312" stroke-linecap="round" stroke-linejoin="round"/>
<path d="M13.4429 49.459C14.0846 47.7042 14.1784 47.0559 13.0013 45.1268C11.8243 43.1977 11.7363 41.9982 11.7604 41.0229C11.7844 40.0475 10.2098 40.0085 9.78974 41.7559C9.36971 43.5032 10.2156 45.6971 10.2156 45.6971C8.57034 46.9846 9.97402 48.6721 9.97402 48.6721" fill="#3B8BFF"/>
<path d="M13.4429 49.459C14.0846 47.7042 14.1784 47.0559 13.0013 45.1268C11.8243 43.1977 11.7363 41.9982 11.7604 41.0229C11.7844 40.0475 10.2098 40.0085 9.78974 41.7559C9.36971 43.5032 10.2156 45.6971 10.2156 45.6971C8.57034 46.9846 9.97402 48.6721 9.97402 48.6721" stroke="#272B5D" stroke-width="0.532312" stroke-linecap="round" stroke-linejoin="round"/>
<path d="M3.08807 40.9062C3.07645 41.3993 3.63012 41.7753 4.4162 42.1198C5.20229 42.4643 6.61759 43.1234 7.70583 44.4258" fill="#3B8BFF"/>
<path d="M3.08807 40.9062C3.07645 41.3993 3.63012 41.7753 4.4162 42.1198C5.20229 42.4643 6.61759 43.1234 7.70583 44.4258" stroke="#272B5D" stroke-width="0.532312" stroke-linecap="round" stroke-linejoin="round"/>
<path d="M2.00195 43.0879C2.45684 43.7852 3.68785 44.2334 4.45319 44.6534C5.70579 45.3416 6.27025 46.2007 6.27025 46.2007" fill="#3B8BFF"/>
<path d="M2.00195 43.0879C2.45684 43.7852 3.68785 44.2334 4.45319 44.6534C5.70579 45.3416 6.27025 46.2007 6.27025 46.2007" stroke="#272B5D" stroke-width="0.532312" stroke-linecap="round" stroke-linejoin="round"/>
<path d="M24.0723 52.9453C25.7573 53.1562 26.3699 57.0667 24.3586 56.8143L31.7846 57.7473L30.102 53.4832L24.0723 52.9453Z" fill="#272B5D" stroke="#272B5D" stroke-width="0.532312" stroke-linecap="round" stroke-linejoin="round"/>
<path d="M33.5189 62.0769C37.7265 62.0769 41.1374 58.1977 41.1374 53.4125C41.1374 48.6272 37.7265 44.748 33.5189 44.748C29.3113 44.748 25.9004 48.6272 25.9004 53.4125C25.9004 58.1977 29.3113 62.0769 33.5189 62.0769Z" fill="#FF4A71" stroke="#272B5D" stroke-width="0.532312" stroke-linecap="round" stroke-linejoin="round"/>
<path d="M62.8587 52.448C67.0663 52.448 70.4773 48.5688 70.4773 43.7836C70.4773 38.9983 67.0663 35.1191 62.8587 35.1191C58.6512 35.1191 55.2402 38.9983 55.2402 43.7836C55.2402 48.5688 58.6512 52.448 62.8587 52.448Z" fill="#FF4A71" stroke="#272B5D" stroke-width="0.532312" stroke-linecap="round" stroke-linejoin="round"/>
<path d="M57.9499 30.7289L35.4928 18.0286C35.1055 17.8092 34.6707 17.6872 34.2258 17.6732C33.7809 17.6593 33.3393 17.7537 32.9391 17.9483C32.5388 18.143 32.1919 18.4321 31.9282 18.7907C31.6645 19.1492 31.4919 19.5666 31.4254 20.0067L27.5754 45.3823C26.6087 50.7122 27.7643 56.2088 30.7953 60.6982C37.2185 70.24 50.1604 72.7676 59.7014 66.3428C69.2424 59.9179 71.77 46.9778 65.3459 37.4368C63.4638 34.6318 60.9248 32.329 57.9499 30.7289Z" fill="#3B8BFF" stroke="#272B5D" stroke-width="0.532312" stroke-linecap="round" stroke-linejoin="round"/>
<path d="M39.225 30.9702L27.5781 45.3813L56.3654 68.1745L55.6831 29.4453L39.225 30.9702Z" fill="#31BAFF" stroke="#272B5D" stroke-width="0.532312" stroke-linecap="round" stroke-linejoin="round"/>
<path d="M39.2246 30.9698L32.9102 17.9648" stroke="#272B5D" stroke-width="0.532312" stroke-linecap="round" stroke-linejoin="round"/>
<path d="M37.9043 40.9453H33.2393C33.0284 40.9453 32.8574 41.1163 32.8574 41.3272V42.0319C32.8574 42.2428 33.0284 42.4137 33.2393 42.4137H37.9043C38.1152 42.4137 38.2862 42.2428 38.2862 42.0319V41.3272C38.2862 41.1163 38.1152 40.9453 37.9043 40.9453Z" fill="#272B5D" stroke="#272B5D" stroke-width="0.532312" stroke-linecap="round" stroke-linejoin="round"/>
<path d="M46.6435 33.2612L44.0429 37.1342C43.9254 37.3092 43.972 37.5465 44.1471 37.664L44.7322 38.0569C44.9072 38.1745 45.1445 38.1278 45.262 37.9527L47.8626 34.0798C47.9802 33.9047 47.9335 33.6675 47.7585 33.5499L47.1734 33.157C46.9983 33.0395 46.7611 33.0861 46.6435 33.2612Z" fill="#272B5D" stroke="#272B5D" stroke-width="0.532312" stroke-linecap="round" stroke-linejoin="round"/>
<path d="M52.6396 52.4255L52.999 52.462C53.2749 52.4898 53.5533 52.4448 53.8064 52.3315C54.0595 52.2182 54.2785 52.0406 54.4415 51.8162C54.6045 51.5919 54.7059 51.3288 54.7355 51.053C54.7651 50.7773 54.7219 50.4986 54.6102 50.2448C54.4434 49.8633 54.2492 49.4944 54.0292 49.1408C53.829 48.8177 53.6071 48.5084 53.3651 48.2153C52.5898 47.2789 51.0882 47.5429 50.6648 48.6826L50.5329 49.0379C50.3123 49.6306 49.9012 50.1333 49.3641 50.4673L46.0139 52.5508C45.6827 52.7561 45.313 52.8915 44.9276 52.9486C44.5422 53.0057 44.1491 52.9833 43.7726 52.8828L43.732 52.872C43.4747 52.8029 43.2031 52.8077 42.9485 52.886C42.6939 52.9643 42.4665 53.1129 42.2925 53.3147C42.1186 53.5165 42.0051 53.7633 41.9652 54.0267C41.9253 54.2901 41.9605 54.5594 42.0668 54.8036C42.2744 55.2866 42.5163 55.754 42.7907 56.2023C43.0648 56.6356 43.3699 57.0484 43.7037 57.4375C44.4583 58.3282 45.9093 57.9646 46.1633 56.8249L46.1791 56.7527C46.2616 56.3823 46.4171 56.032 46.6366 55.7224C46.8561 55.4129 47.1351 55.1502 47.4574 54.9497L50.8483 52.8422C51.3829 52.509 52.0128 52.3625 52.6396 52.4255Z" fill="#272B5D" stroke="#272B5D" stroke-width="0.532312" stroke-linecap="round" stroke-linejoin="round"/>
<path d="M52.1831 52.4143L50.3719 49.3828C50.1361 49.825 49.7879 50.1972 49.3625 50.4619L46.0123 52.5454C45.4854 52.8712 44.8669 53.0169 44.25 52.9605L46.2837 56.3638C46.5037 55.7742 46.9122 55.2738 47.4458 54.9402L50.8367 52.8326C51.2435 52.5828 51.7064 52.4389 52.1831 52.4143Z" fill="white" stroke="#272B5D" stroke-width="0.532312" stroke-linecap="round" stroke-linejoin="round"/>
<path d="M44.9629 54.1612C49.6695 53.7038 51.0225 50.4648 51.0225 50.4648" stroke="#272B5D" stroke-width="0.532312" stroke-linecap="round" stroke-linejoin="round"/>
<path d="M54.8945 46.1074C54.8945 46.1074 56.5904 46.9533 56.9299 49.3829" stroke="#272B5D" stroke-width="0.532312" stroke-linecap="round" stroke-linejoin="round"/>
<path d="M57.7695 43.9121C57.7695 43.9121 59.4654 44.7588 59.8049 47.1884" stroke="#272B5D" stroke-width="0.532312" stroke-linecap="round" stroke-linejoin="round"/>
<path d="M57.7695 42.4121C57.7695 42.4121 60.6325 43.8415 61.2053 47.9413" stroke="#272B5D" stroke-width="0.532312" stroke-linecap="round" stroke-linejoin="round"/>
<path d="M41.2463 59.0392C41.2463 59.0392 39.5504 58.1925 39.2109 55.7637" stroke="#272B5D" stroke-width="0.532312" stroke-linecap="round" stroke-linejoin="round"/>
<path d="M37.9935 61.4337C37.9935 61.4337 36.2977 60.587 35.959 58.1582" stroke="#272B5D" stroke-width="0.532312" stroke-linecap="round" stroke-linejoin="round"/>
<path d="M37.9943 62.9315C37.9943 62.9315 35.1297 61.503 34.5586 57.4023" stroke="#272B5D" stroke-width="0.532312" stroke-linecap="round" stroke-linejoin="round"/>
<path d="M54.8582 28.9824C56.364 29.8341 54.4531 33.313 54.4531 33.313L56.8952 36.9371C56.8952 36.9371 59.7283 31.7366 57.9494 30.7306L54.8582 28.9824Z" fill="#31BAFF" stroke="#272B5D" stroke-width="0.532312" stroke-linecap="round" stroke-linejoin="round"/>
<path d="M27.2976 47.6465L27.7127 47.8075L29.4027 52.6627C29.4027 52.6627 27.5151 53.0246 27.3632 51.2864C27.2498 50.0765 27.2279 48.8597 27.2976 47.6465Z" fill="#31BAFF" stroke="#272B5D" stroke-width="0.532312" stroke-linecap="round" stroke-linejoin="round"/>
<path d="M29.944 46.0902C29.6819 46.1533 29.4352 46.2686 29.2186 46.4291C29.002 46.5896 28.82 46.7921 28.6833 47.0245C28.5467 47.2569 28.4582 47.5144 28.4232 47.7817C28.3882 48.0491 28.4075 48.3207 28.4797 48.5804C28.7011 49.3699 28.9626 50.1476 29.2633 50.9105C30.3308 53.634 32.3919 54.4989 35.6491 53.6497C38.9064 52.8006 41.527 51.5978 42.5496 50.3377C43.7001 48.9207 42.1819 45.6959 43.7831 44.8442C45.7704 43.7867 47.5899 48.0973 50.9551 46.4255C53.8604 44.9812 55.3371 43.2853 56.3282 41.9431C57.3401 40.5776 58.039 38.9846 56.8985 36.9343C56.3455 35.9565 55.7357 35.0119 55.0723 34.1054C54.8964 33.8726 54.6718 33.6811 54.4141 33.5443C54.1565 33.4075 53.8721 33.3287 53.5807 33.3133C53.2894 33.298 52.9983 33.3465 52.7277 33.4555C52.4571 33.5645 52.2136 33.7314 52.0142 33.9444C49.1662 36.9941 42.1412 43.1732 29.944 46.0902Z" fill="#FF4A71" stroke="#272B5D" stroke-width="0.532312" stroke-linecap="round" stroke-linejoin="round"/>
<path d="M29.2604 50.911C29.4817 51.5025 29.798 52.054 30.1967 52.5438C30.154 52.3433 30.1351 52.1386 30.1403 51.9337L30.2316 48.4108C30.2379 48.1709 30.1922 47.9325 30.0978 47.7118C30.0034 47.4912 29.8624 47.2936 29.6846 47.1325L29.0537 46.5605C28.7804 46.8107 28.5815 47.1316 28.4789 47.4877C28.3764 47.8437 28.3742 48.2212 28.4727 48.5785C28.6953 49.3689 28.9582 50.1474 29.2604 50.911Z" fill="white" stroke="#272B5D" stroke-width="0.532312" stroke-linecap="round" stroke-linejoin="round"/>
<path d="M55.0725 34.1067C54.8408 33.7993 54.5254 33.5653 54.1641 33.4328C53.8027 33.3003 53.4108 33.2749 53.0354 33.3596L52.8113 34.9658C52.7524 35.3792 52.8015 35.8008 52.9538 36.1896C53.1061 36.5784 53.3564 36.9212 53.6804 37.1846L56.1267 39.1768C56.6162 39.575 56.9488 40.1338 57.0655 40.754C57.5884 39.6616 57.7296 38.4173 56.8995 36.9356C56.3462 35.9578 55.7361 35.0132 55.0725 34.1067Z" fill="white" stroke="#272B5D" stroke-width="0.532312" stroke-linecap="round" stroke-linejoin="round"/>
<path d="M33.4888 54.6599C31.1537 54.6599 29.516 53.4903 28.6046 51.1636C28.2951 50.3787 28.0258 49.5786 27.7977 48.7663C27.7005 48.4155 27.6749 48.0487 27.7224 47.6877C27.77 47.3268 27.8897 46.9791 28.0744 46.6654C28.2592 46.3517 28.5051 46.0784 28.7977 45.8618C29.0903 45.6451 29.4235 45.4896 29.7775 45.4045C35.0269 44.1485 39.8481 42.1522 44.1072 39.4702C47.6766 37.2231 50.0963 34.9645 51.4991 33.4645C51.7687 33.1765 52.098 32.9508 52.464 32.8034C52.8299 32.656 53.2237 32.5904 53.6177 32.6112C54.0117 32.632 54.3963 32.7387 54.7447 32.9238C55.0931 33.1089 55.3969 33.368 55.6346 33.6828C56.318 34.6151 56.9452 35.5872 57.5131 36.5939C58.9184 39.1199 57.8327 41.098 56.893 42.3655C55.8596 43.7617 54.2857 45.5555 51.2667 47.0555C49.0072 48.1778 47.2956 47.0198 46.0455 46.1739C45.0494 45.4974 44.5613 45.2268 44.1122 45.4651C43.6631 45.7033 43.6673 46.4612 43.7088 47.6017C43.7486 48.6891 43.7918 49.9201 43.0953 50.7801C42.4578 51.567 40.664 53.0736 35.8246 54.3312C35.063 54.539 34.2782 54.6495 33.4888 54.6599ZM30.1062 46.7741C29.9365 46.815 29.7768 46.8896 29.6366 46.9935C29.4964 47.0974 29.3786 47.2285 29.2901 47.3789C29.2016 47.5294 29.1444 47.6961 29.1217 47.8691C29.0991 48.0422 29.1115 48.218 29.1582 48.3861C29.3726 49.1521 29.6261 49.9065 29.9178 50.6464C30.8425 53.0055 32.5549 53.7178 35.4694 52.9632C38.6718 52.1331 41.1139 50.9818 41.9996 49.8919C42.364 49.4436 42.3317 48.5339 42.2993 47.6507C42.252 46.3532 42.198 44.8832 43.449 44.2166C44.6999 43.5501 45.833 44.3237 46.8365 45.0027C48.0094 45.7963 49.1168 46.5458 50.6391 45.7896C53.3726 44.4316 54.7613 42.871 55.7591 41.5238C57.2059 39.5698 56.8648 38.328 56.2804 37.2771C55.743 36.3282 55.1513 35.4111 54.5082 34.5304C54.3944 34.3796 54.2491 34.2556 54.0823 34.167C53.9156 34.0784 53.7315 34.0273 53.5429 34.0175C53.3543 34.0076 53.1659 34.0391 52.9907 34.1097C52.8156 34.1804 52.6581 34.2886 52.5292 34.4266C51.07 35.9863 48.5548 38.3346 44.8593 40.6622C40.469 43.4264 35.5059 45.4825 30.1062 46.7741Z" fill="#FFFA92" stroke="#272B5D" stroke-width="0.532312" stroke-linecap="round" stroke-linejoin="round"/>
<path d="M30.1408 51.9286L30.1607 51.1915C30.0777 51.0255 29.9947 50.8412 29.9175 50.6486C29.6258 49.9087 29.3723 49.1542 29.1579 48.3883C29.1105 48.22 29.0979 48.0438 29.1207 47.8704C29.1436 47.697 29.2014 47.5301 29.2907 47.3797C29.368 47.2497 29.4671 47.134 29.5838 47.0378L28.532 46.084C28.3545 46.2563 28.2009 46.4518 28.0755 46.665C27.8891 46.9785 27.7683 47.3266 27.7205 47.6882C27.6727 48.0498 27.6989 48.4173 27.7974 48.7685C28.0255 49.5808 28.2948 50.3809 28.6043 51.1658C29.304 52.9529 30.4305 54.0569 31.9777 54.4728L31.9478 54.4637C31.4111 54.2966 30.9438 53.9582 30.6174 53.5004C30.2911 53.0426 30.1237 52.4906 30.1408 51.9286Z" fill="#FF9AD4" stroke="#272B5D" stroke-width="0.532312" stroke-linecap="round" stroke-linejoin="round"/>
<path d="M57.5134 36.5939C56.945 35.5871 56.3172 34.615 55.6332 33.6828C55.3467 33.303 54.965 33.0055 54.5268 32.8204C54.0885 32.6353 53.6092 32.5692 53.1372 32.6286L52.9238 34.1427C53.1176 34.0514 53.3308 34.0089 53.5447 34.019C53.7331 34.0289 53.917 34.08 54.0835 34.1687C54.25 34.2573 54.395 34.3813 54.5085 34.532C55.1516 35.4127 55.7433 36.3298 56.2807 37.2787C56.6692 37.9777 56.9497 38.7613 56.6692 39.7814C56.9472 40.1982 57.0983 40.6867 57.1042 41.1877C57.1101 41.6886 56.9705 42.1805 56.7024 42.6037C56.6783 42.6411 56.6517 42.6776 56.626 42.7141C56.719 42.5938 56.8086 42.4759 56.8933 42.3605C57.833 41.098 58.9187 39.1232 57.5134 36.5939Z" fill="#FF9AD4" stroke="#272B5D" stroke-width="0.532312" stroke-linecap="round" stroke-linejoin="round"/>
<path d="M51.0911 38.3318L47.876 40.8663C47.1571 41.4331 47.0337 42.4754 47.6005 43.1944C48.1673 43.9133 49.2096 44.0367 49.9285 43.4699L53.1436 40.9354C53.8626 40.3686 53.9859 39.3263 53.4192 38.6073C52.8524 37.8883 51.8101 37.765 51.0911 38.3318Z" fill="#FF9AD4" stroke="#272B5D" stroke-width="0.532312" stroke-linecap="round" stroke-linejoin="round"/>
<path d="M48.6973 44.4379L54.3742 39.9629" stroke="#272B5D" stroke-width="0.532312" stroke-linecap="round" stroke-linejoin="round"/>
<path d="M52.7063 41.2805C52.6892 40.9656 52.5859 40.6616 52.4078 40.4014C52.2297 40.1412 51.9835 39.935 51.6962 39.8051C51.4089 39.6753 51.0914 39.6268 50.7785 39.665C50.4655 39.7033 50.169 39.8267 49.9214 40.0219C49.6738 40.2171 49.4846 40.4765 49.3743 40.7719C49.2641 41.0673 49.237 41.3873 49.2962 41.697C49.3554 42.0067 49.4985 42.2942 49.7098 42.5282C49.9212 42.7621 50.1928 42.9335 50.4949 43.0236L52.7063 41.2805Z" fill="#272B5D" stroke="#272B5D" stroke-width="0.532312" stroke-linecap="round" stroke-linejoin="round"/>
<path d="M38.2746 45.8509L34.3853 47.1609C33.5156 47.4539 33.048 48.3965 33.341 49.2662C33.634 50.1359 34.5765 50.6035 35.4463 50.3105L39.3355 49.0005C40.2053 48.7075 40.6728 47.765 40.3799 46.8952C40.0869 46.0255 39.1444 45.5579 38.2746 45.8509Z" fill="#FF9AD4" stroke="#272B5D" stroke-width="0.533614" stroke-linecap="round" stroke-linejoin="round"/>
<path d="M33.5684 51.0735L40.4273 48.7949" stroke="#272B5D" stroke-width="0.532312" stroke-linecap="round" stroke-linejoin="round"/>
<path d="M38.4117 49.4641C38.5024 49.1623 38.5085 48.8414 38.4293 48.5364C38.3501 48.2314 38.1887 47.9541 37.9627 47.7345C37.7367 47.5149 37.4547 47.3617 37.1475 47.2914C36.8404 47.2211 36.5198 47.2365 36.2208 47.3359C35.9218 47.4354 35.6558 47.615 35.4519 47.8552C35.248 48.0954 35.1139 48.387 35.0644 48.6982C35.0148 49.0094 35.0517 49.3282 35.1709 49.6199C35.2901 49.9116 35.4871 50.1649 35.7405 50.3523L38.4117 49.4641Z" fill="#272B5D" stroke="#272B5D" stroke-width="0.532312" stroke-linecap="round" stroke-linejoin="round"/>
</svg>
