<svg width="48" height="48" viewBox="0 0 48 48" fill="none" xmlns="http://www.w3.org/2000/svg">
<path fill-rule="evenodd" clip-rule="evenodd" d="M24 48C37.2548 48 48 37.2548 48 24C48 10.7452 37.2548 0 24 0C10.7452 0 0 10.7452 0 24C0 37.2548 10.7452 48 24 48ZM19.5984 34.9995C20.1821 34.9995 20.4489 34.7398 20.7713 34.4259L23.6809 31.5966L29.6791 36.0281C30.7828 36.6371 31.5793 36.3218 31.8543 35.0034L35.7913 16.4508C36.1943 14.8347 35.1752 14.1018 34.1194 14.5811L11.0014 23.4953C9.42336 24.1283 9.43256 25.0087 10.7137 25.4009L16.6463 27.2526L30.3809 18.5876C31.0293 18.1944 31.6244 18.4058 31.136 18.8393L20.0079 28.8815L19.5984 34.9995Z" fill="white"/>
</svg>
