<svg width="743" height="425" viewBox="0 0 743 425" fill="none" xmlns="http://www.w3.org/2000/svg">
<g opacity="0.2">
<path d="M156.189 45.482C156.189 25.8793 0 24.6147 0 1.218C247.457 -1.52215 692.415 1.21729 742.37 1.218C742.37 29.6734 595.667 -5.73776 596.299 29.6734C596.931 65.0846 696.209 25.247 701.9 83.4225C707.591 141.598 433.155 140.966 438.846 175.745C444.537 210.523 569.74 201.671 577.329 238.979C584.917 276.287 413.552 282.61 412.287 300.948C411.023 319.286 490.698 314.86 491.33 331.301C491.962 347.742 410.39 365.447 364.229 369.873C318.068 374.3 285.819 369.873 283.289 345.844C280.76 321.815 335.141 350.903 331.98 322.448C328.818 293.993 190.967 296.522 190.967 270.596C190.967 244.67 290.878 265.537 290.245 238.979C289.613 212.42 101.807 209.891 104.336 175.745C106.866 141.598 226.379 152.348 225.114 132.745C223.849 113.143 55.0138 97.334 55.6461 77.0991C56.2785 56.8641 156.189 65.0846 156.189 45.482Z" fill="url(#paint0_linear)"/>
</g>
<defs>
<linearGradient id="paint0_linear" x1="371.185" y1="0" x2="371.185" y2="207.937" gradientUnits="userSpaceOnUse">
<stop stop-color="white"/>
<stop offset="1" stop-color="white" stop-opacity="0"/>
</linearGradient>
</defs>
</svg>
