<svg width="357" height="256" viewBox="0 0 357 256" fill="none" xmlns="http://www.w3.org/2000/svg">
<ellipse opacity="0.3" cx="178.43" cy="123.564" rx="123.748" ry="123.564" fill="url(#paint0_linear_16521_100415)"/>
<path d="M71.1289 103.4L181.56 157.121L285.821 103.4" stroke="#F5F5F5" stroke-width="9.80102" stroke-miterlimit="10"/>
<path opacity="0.1" d="M217.758 223.31C223.82 226.81 223.853 232.48 217.831 235.972L189.554 252.386C183.524 255.878 173.728 255.878 167.665 252.386L139.2 235.972C133.137 232.48 133.088 226.818 139.126 223.31L167.404 206.904C173.433 203.404 183.23 203.404 189.292 206.904L217.758 223.31Z" fill="#F5FBFF"/>
<path opacity="0.2" d="M217.758 203.135C223.82 206.634 223.853 212.304 217.831 215.796L189.554 232.211C183.524 235.702 173.728 235.702 167.665 232.211L139.2 215.796C133.137 212.304 133.088 206.643 139.126 203.135L167.404 186.728C173.433 183.229 183.23 183.229 189.292 186.728L217.758 203.135Z" fill="#F5FBFF"/>
<path opacity="0.3" d="M217.758 182.953C223.82 186.453 223.853 192.123 217.831 195.615L189.554 212.029C183.524 215.521 173.728 215.521 167.665 212.029L139.2 195.615C133.137 192.123 133.088 186.461 139.126 182.953L167.404 166.547C173.433 163.047 183.23 163.047 189.292 166.547L217.758 182.953Z" fill="#F5FBFF"/>
<path opacity="0.4" d="M217.758 162.775C223.82 166.275 223.853 171.945 217.831 175.437L189.554 191.851C183.524 195.343 173.728 195.343 167.665 191.851L139.2 175.437C133.137 171.945 133.088 166.283 139.126 162.775L167.404 146.369C173.433 142.869 183.23 142.869 189.292 146.369L217.758 162.775Z" fill="#F5FBFF"/>
<g filter="url(#filter0_f_16521_100415)">
<path d="M209.72 160.55C214.541 163.334 214.567 167.843 209.778 170.62L187.288 183.675C182.492 186.452 174.701 186.452 169.879 183.675L147.24 170.62C142.418 167.843 142.379 163.34 147.181 160.55L169.672 147.502C174.467 144.718 182.258 144.718 187.08 147.502L209.72 160.55Z" fill="#E9B260"/>
</g>
<path d="M217.828 155.604L189.55 172.018C183.521 175.51 173.724 175.51 167.662 172.018L139.196 155.604C136.14 153.842 134.621 151.525 134.629 149.232V152.496C134.629 154.804 136.149 157.113 139.204 158.867L167.67 175.282C173.732 178.773 183.529 178.773 189.55 175.282L217.836 158.867C220.827 157.138 222.33 154.862 222.33 152.585V149.322C222.322 151.598 220.818 153.866 217.828 155.604Z" fill="#E9B260"/>
<path d="M217.758 142.941C223.82 146.441 223.853 152.111 217.831 155.603L189.554 172.017C183.524 175.509 173.728 175.509 167.665 172.017L139.2 155.603C133.137 152.111 133.088 146.449 139.126 142.941L167.404 126.535C173.433 123.035 183.23 123.035 189.292 126.535L217.758 142.941Z" fill="#F5FBFF"/>
<path d="M172.499 138.919L170.956 151.904C170.924 152.175 171.493 152.324 171.826 152.132L178.445 148.317L182.696 154.966C182.885 155.263 183.641 155.203 183.684 154.888L185.558 141.203C185.595 140.93 185.024 140.778 184.688 140.972L177.362 145.194L173.49 138.841C173.306 138.54 172.537 138.6 172.499 138.919Z" fill="#E9B260"/>
<path opacity="0.1" d="M95.088 162.416C101.15 165.916 101.183 171.586 95.1615 175.077L66.8838 191.492C60.854 194.983 51.0577 194.983 44.9953 191.492L16.5296 175.077C10.4672 171.586 10.4181 165.924 16.4561 162.416L44.7338 146.01C50.7636 142.51 60.5599 142.51 66.6223 146.01L95.088 162.416Z" fill="white"/>
<path opacity="0.2" d="M95.088 142.496C101.15 145.996 101.183 151.666 95.1615 155.158L66.8838 171.572C60.854 175.064 51.0577 175.064 44.9953 171.572L16.5296 155.158C10.4672 151.666 10.4181 146.004 16.4561 142.496L44.7338 126.09C50.7636 122.59 60.5599 122.59 66.6223 126.09L95.088 142.496Z" fill="white"/>
<path opacity="0.3" d="M95.088 122.578C101.15 126.078 101.183 131.748 95.1615 135.24L66.8838 151.654C60.854 155.146 51.0577 155.146 44.9953 151.654L16.5296 135.24C10.4672 131.748 10.4181 126.086 16.4561 122.578L44.7338 106.172C50.7636 102.672 60.5599 102.672 66.6223 106.172L95.088 122.578Z" fill="white"/>
<path opacity="0.4" d="M95.088 102.652C101.15 106.152 101.183 111.822 95.1615 115.314L66.8838 131.728C60.854 135.22 51.0577 135.22 44.9953 131.728L16.5296 115.314C10.4672 111.822 10.4181 106.16 16.4561 102.652L44.7338 86.246C50.7636 82.7461 60.5599 82.7461 66.6223 86.246L95.088 102.652Z" fill="white"/>
<g filter="url(#filter1_f_16521_100415)">
<path d="M87.0479 100.363C91.8695 103.146 91.8955 107.656 87.1064 110.433L64.6162 123.488C59.8205 126.265 52.0292 126.265 47.2076 123.488L24.5679 110.433C19.7463 107.656 19.7073 103.153 24.5095 100.363L46.9996 87.3142C51.7953 84.5307 59.5866 84.5307 64.4082 87.3142L87.0479 100.363Z" fill="#00A3FF"/>
</g>
<path d="M95.1582 95.4184L66.8804 111.833C60.8507 115.324 51.0544 115.324 44.9919 111.833L16.5263 95.4184C13.4705 93.6563 11.9508 91.3393 11.959 89.0469V92.3102C11.959 94.6189 13.4787 96.9277 16.5344 98.6817L45.0001 115.096C51.0625 118.588 60.8588 118.588 66.8804 115.096L95.1663 98.6817C98.1567 96.9522 99.6601 94.676 99.6601 92.3999V89.1366C99.6519 91.4128 98.1485 93.6807 95.1582 95.4184Z" fill="#00A3FF"/>
<path d="M95.088 82.7557C101.15 86.2556 101.183 91.9256 95.1615 95.4173L66.8838 111.832C60.854 115.323 51.0577 115.323 44.9953 111.832L16.5296 95.4173C10.4672 91.9256 10.4181 86.2637 16.4561 82.7557L44.7338 66.3495C50.7636 62.8496 60.5599 62.8496 66.6223 66.3495L95.088 82.7557Z" fill="#F5FBFF"/>
<path fill-rule="evenodd" clip-rule="evenodd" d="M44.887 82.4417L57.7251 84.0726L55.637 88.6388L47.7161 89.842L44.887 82.4417ZM48.8777 88.7454L46.9146 83.6105L55.8226 84.7421L54.3737 87.9105L48.8777 88.7454Z" fill="#00A3FF"/>
<path d="M57.3517 89.6354L48.1627 91.0313L48.2523 91.2658C49.2631 93.9098 53.3279 95.7926 58.025 95.7923C63.5524 95.792 68.0336 93.2089 68.0341 90.0227C68.0346 87.3151 64.7684 84.972 60.1815 84.3893L59.7747 84.3376L57.3517 89.6354Z" fill="#00A3FF"/>
<path opacity="0.1" d="M340.43 162.898C346.492 166.398 346.525 172.068 340.503 175.56L312.226 191.974C306.196 195.466 296.399 195.466 290.337 191.974L261.871 175.56C255.809 172.068 255.76 166.406 261.798 162.898L290.076 146.492C296.105 142.992 305.902 142.992 311.964 146.492L340.43 162.898Z" fill="#F5FBFF"/>
<path opacity="0.2" d="M340.43 142.797C346.492 146.297 346.525 151.967 340.503 155.458L312.226 171.873C306.196 175.364 296.399 175.364 290.337 171.873L261.871 155.458C255.809 151.967 255.76 146.305 261.798 142.797L290.076 126.391C296.105 122.891 305.902 122.891 311.964 126.391L340.43 142.797Z" fill="#F5FBFF"/>
<path opacity="0.3" d="M340.43 122.689C346.492 126.189 346.525 131.859 340.503 135.351L312.226 151.765C306.196 155.257 296.399 155.257 290.337 151.765L261.871 135.351C255.809 131.859 255.76 126.197 261.798 122.689L290.076 106.283C296.105 102.783 305.902 102.783 311.964 106.283L340.43 122.689Z" fill="#F5FBFF"/>
<path opacity="0.4" d="M340.43 102.59C346.492 106.09 346.525 111.76 340.503 115.251L312.226 131.666C306.196 135.157 296.399 135.157 290.337 131.666L261.871 115.251C255.809 111.76 255.76 106.098 261.798 102.59L290.076 86.1835C296.105 82.6836 305.902 82.6836 311.964 86.1835L340.43 102.59Z" fill="#F5FBFF"/>
<g filter="url(#filter2_f_16521_100415)">
<path d="M332.388 100.365C337.209 103.148 337.235 107.658 332.446 110.435L309.956 123.49C305.16 126.267 297.369 126.267 292.547 123.49L269.908 110.435C265.086 107.658 265.047 103.155 269.849 100.365L292.339 87.3162C297.135 84.5326 304.926 84.5326 309.748 87.3162L332.388 100.365Z" fill="#01DEFA"/>
</g>
<path d="M340.5 95.4184L312.222 111.833C306.192 115.324 296.396 115.324 290.334 111.833L261.868 95.4184C258.812 93.6563 257.293 91.3393 257.301 89.0469V92.3102C257.301 94.6189 258.821 96.9277 261.876 98.6817L290.342 115.096C296.404 118.588 306.201 118.588 312.222 115.096L340.508 98.6817C343.499 96.9522 345.002 94.676 345.002 92.3999V89.1366C344.994 91.4128 343.49 93.6807 340.5 95.4184Z" fill="#01DEFA"/>
<path d="M340.43 82.7557C346.492 86.2556 346.525 91.9256 340.503 95.4173L312.226 111.832C306.196 115.323 296.399 115.323 290.337 111.832L261.871 95.4173C255.809 91.9256 255.76 86.2637 261.798 82.7557L290.076 66.3495C296.105 62.8496 305.902 62.8496 311.964 66.3495L340.43 82.7557Z" fill="#F5FBFF"/>
<path d="M309.979 78.1154C308 76.8592 305.169 76.9012 302.583 77.3L307.776 81.5216C308.472 81.0727 309.113 81.0263 309.376 81.0267C309.704 81.0271 310.608 81.0758 310.899 81.8102C311.758 81.1247 312.37 79.6329 309.979 78.1154Z" fill="url(#paint1_linear_16521_100415)"/>
<path fill-rule="evenodd" clip-rule="evenodd" d="M288.717 81.9712L286.17 81.9675C287.849 80.7309 293.193 77.9952 301.14 76.9459C301.551 77.0884 301.964 77.4205 301.964 77.4205L302.579 77.3029C303.442 77.391 305.49 77.8753 306.776 79.1082C308.063 80.3411 308.058 81.1857 307.895 81.4537C307.24 81.8315 306.504 82.6924 307.823 83.8685C309.142 85.0446 308.817 85.6534 308.488 85.8108L301.36 90.015L293.807 91.1407L287.305 88.1958L286.846 86.3722L287.287 83.8396L288.308 82.4441L288.717 81.9712ZM299.631 78.4443C299.645 78.8185 299.506 79.0814 299.464 79.1552C297.213 79.9979 295.583 79.8297 295.583 79.8297C297.324 78.8139 299.321 78.1428 301.182 77.8824C301.182 77.8824 300.353 78.1263 299.631 78.4443Z" fill="url(#paint2_linear_16521_100415)"/>
<path fill-rule="evenodd" clip-rule="evenodd" d="M307.759 83.9028C307.111 84.9966 305.964 86.0751 304.346 87.0077C299.798 89.6295 293.253 90.1079 289.729 88.0762C287.125 86.5754 286.898 84.1248 288.79 81.8898C283.619 85.2347 283.618 90.3166 289.057 93.4515C295.333 97.0695 306.114 96.834 313.016 92.8556C318.169 89.8849 319.471 85.6897 317.716 82.0922C315.324 84.2716 310.351 85.6169 307.759 83.9028Z" fill="url(#paint3_linear_16521_100415)"/>
<path d="M21.36 70.068C20.0526 70.8218 18.8915 71.1689 17.8766 71.1095C16.8703 71.0351 16.0833 70.5814 15.5156 69.7484C14.9566 68.9005 14.6771 67.7229 14.6772 66.2155L14.6774 59.3131C14.6775 57.8057 14.9571 56.3106 15.5162 54.828C16.0839 53.3305 16.871 51.9693 17.8773 50.7445C18.8923 49.5048 20.0535 48.5081 21.3608 47.7543C22.6682 47.0006 23.8251 46.6609 24.8314 46.7352C25.8463 46.7947 26.6333 47.2484 27.1923 48.0963C27.7599 48.9293 28.0437 50.0995 28.0437 51.6069L28.0434 58.5093C28.0433 60.0167 27.7595 61.5192 27.1917 63.0167C26.6326 64.4993 25.8456 65.8605 24.8306 67.1002C23.8242 68.325 22.6674 69.3143 21.36 70.068ZM21.3601 66.6615C22.0052 66.2896 22.5944 65.7714 23.1277 65.1069C23.6696 64.4375 24.0954 63.7061 24.405 62.9127C24.7147 62.1094 24.8695 61.3358 24.8696 60.592L24.8698 53.169C24.8699 52.4252 24.7151 51.8351 24.4055 51.3988C24.0958 50.9525 23.6701 50.7071 23.1282 50.6625C22.595 50.603 22.0058 50.7592 21.3607 51.1311C20.7156 51.5031 20.1221 52.0287 19.5803 52.708C19.047 53.3725 18.6255 54.1064 18.3158 54.9097C18.0062 55.7031 17.8513 56.4717 17.8513 57.2155L17.851 64.6385C17.851 65.3823 18.0058 65.9773 18.3154 66.4236C18.625 66.8599 19.0464 67.1029 19.5797 67.1524C20.1216 67.1971 20.715 67.0334 21.3601 66.6615Z" fill="white"/>
<path d="M38.0601 59.9935L34.8863 61.8233L34.887 44.3145L31.4034 48.7774L31.4035 44.8204L34.8871 40.4022L38.0609 38.5723L38.0601 59.9935Z" fill="white"/>
<path d="M139.204 134.478C137.896 135.232 136.735 135.579 135.72 135.52C134.714 135.445 133.927 134.992 133.359 134.159C132.8 133.311 132.521 132.133 132.521 130.626L132.521 123.723C132.521 122.216 132.801 120.721 133.36 119.238C133.928 117.741 134.715 116.379 135.721 115.155C136.736 113.915 137.897 112.918 139.205 112.164C140.512 111.411 141.669 111.071 142.675 111.145C143.69 111.205 144.477 111.659 145.036 112.506C145.604 113.339 145.887 114.51 145.887 116.017L145.887 122.919C145.887 124.427 145.603 125.929 145.035 127.427C144.476 128.909 143.689 130.271 142.674 131.51C141.668 132.735 140.511 133.724 139.204 134.478ZM139.204 131.072C139.849 130.7 140.438 130.182 140.971 129.517C141.513 128.848 141.939 128.116 142.249 127.323C142.558 126.52 142.713 125.746 142.713 125.002L142.714 117.579C142.714 116.835 142.559 116.245 142.249 115.809C141.94 115.363 141.514 115.117 140.972 115.073C140.439 115.013 139.85 115.169 139.204 115.541C138.559 115.913 137.966 116.439 137.424 117.118C136.891 117.783 136.469 118.517 136.16 119.32C135.85 120.113 135.695 120.882 135.695 121.626L135.695 129.049C135.695 129.792 135.85 130.387 136.159 130.834C136.469 131.27 136.89 131.513 137.423 131.563C137.965 131.607 138.559 131.444 139.204 131.072Z" fill="white"/>
<path d="M153.801 122.21L161.774 117.613L161.774 120.989L148.989 128.361L148.989 125.237L156.936 112.488C157.521 111.546 157.943 110.718 158.201 110.004C158.459 109.29 158.588 108.655 158.588 108.1C158.588 107.396 158.455 106.838 158.188 106.426C157.93 106 157.56 105.767 157.079 105.727C156.606 105.673 156.068 105.819 155.466 106.166C154.838 106.528 154.27 107.029 153.763 107.668C153.264 108.293 152.877 108.968 152.602 109.692C152.326 110.416 152.197 111.1 152.215 111.744L149.015 113.589C149.015 112.181 149.29 110.783 149.841 109.394C150.391 108.006 151.157 106.736 152.137 105.586C153.127 104.431 154.258 103.486 155.531 102.752C156.709 102.073 157.771 101.768 158.717 101.837C159.672 101.891 160.42 102.308 160.962 103.086C161.504 103.855 161.775 104.929 161.775 106.307C161.775 107.289 161.659 108.194 161.426 109.022C161.194 109.84 160.867 110.643 160.446 111.432C160.024 112.22 159.396 113.276 158.562 114.6L153.801 122.21Z" fill="white"/>
<path d="M265.282 71.5036C263.975 72.2573 262.813 72.6045 261.798 72.545C260.792 72.4707 260.005 72.017 259.438 71.184C258.878 70.3361 258.599 69.1584 258.599 67.651L258.599 60.7486C258.599 59.2412 258.879 57.7462 259.438 56.2635C260.006 54.766 260.793 53.4049 261.799 52.1801C262.814 50.9404 263.975 49.9436 265.283 49.1899C266.59 48.4361 267.747 48.0964 268.753 48.1708C269.768 48.2302 270.555 48.6839 271.114 49.5318C271.682 50.3648 271.966 51.5351 271.966 53.0425L271.965 59.9448C271.965 61.4523 271.681 62.9547 271.114 64.4522C270.554 65.9349 269.767 67.296 268.752 68.5357C267.746 69.7605 266.589 70.7498 265.282 71.5036ZM265.282 68.097C265.927 67.7251 266.516 67.2069 267.05 66.5424C267.591 65.873 268.017 65.1416 268.327 64.3482C268.637 63.5449 268.791 62.7714 268.791 62.0276L268.792 54.6045C268.792 53.8608 268.637 53.2707 268.327 52.8343C268.018 52.3881 267.592 52.1426 267.05 52.098C266.517 52.0386 265.928 52.1948 265.283 52.5667C264.638 52.9386 264.044 53.4642 263.502 54.1436C262.969 54.8081 262.547 55.542 262.238 56.3453C261.928 57.1386 261.773 57.9072 261.773 58.651L261.773 66.074C261.773 66.8178 261.928 67.4129 262.237 67.8591C262.547 68.2955 262.968 68.5384 263.502 68.588C264.043 68.6326 264.637 68.4689 265.282 68.097Z" fill="white"/>
<path d="M282.731 47.6094C283.66 47.292 284.464 47.2597 285.143 47.5126C285.823 47.7555 286.339 48.2464 286.692 48.9852C287.053 49.7092 287.233 50.6166 287.233 51.7075C287.233 53.0364 286.949 54.405 286.382 55.8132C285.814 57.2215 285.044 58.5182 284.072 59.7034C283.109 60.8736 282.051 61.791 280.898 62.4555C279.969 62.9911 279.088 63.2911 278.253 63.3556C277.428 63.4052 276.71 63.2242 276.099 62.8127C275.497 62.3863 275.067 61.7367 274.809 60.864L277.815 58.1937C278.021 58.8978 278.404 59.3267 278.963 59.4804C279.522 59.6242 280.154 59.4928 280.86 59.0861C281.462 58.739 282.004 58.2679 282.485 57.6729C282.976 57.0629 283.363 56.3935 283.647 55.6646C283.93 54.9357 284.072 54.2241 284.072 53.5299C284.072 52.8357 283.935 52.2853 283.66 51.8787C283.393 51.4572 283.015 51.2242 282.524 51.1796C282.043 51.13 281.496 51.2813 280.886 51.6334C280.344 51.9458 279.806 52.4243 279.273 53.0689L277.854 51.0608L283.221 42.6706L275.532 47.1039L275.532 43.7271L286.924 37.159L286.924 40.5507L282.731 47.6094Z" fill="white"/>
<defs>
<filter id="filter0_f_16521_100415" x="122.774" y="124.587" width="111.406" height="81.9981" filterUnits="userSpaceOnUse" color-interpolation-filters="sRGB">
<feFlood flood-opacity="0" result="BackgroundImageFix"/>
<feBlend mode="normal" in="SourceGraphic" in2="BackgroundImageFix" result="shape"/>
<feGaussianBlur stdDeviation="10.4136" result="effect1_foregroundBlur_16521_100415"/>
</filter>
<filter id="filter1_f_16521_100415" x="0.10252" y="64.3994" width="111.406" height="81.9981" filterUnits="userSpaceOnUse" color-interpolation-filters="sRGB">
<feFlood flood-opacity="0" result="BackgroundImageFix"/>
<feBlend mode="normal" in="SourceGraphic" in2="BackgroundImageFix" result="shape"/>
<feGaussianBlur stdDeviation="10.4136" result="effect1_foregroundBlur_16521_100415"/>
</filter>
<filter id="filter2_f_16521_100415" x="245.442" y="64.4013" width="111.406" height="81.9981" filterUnits="userSpaceOnUse" color-interpolation-filters="sRGB">
<feFlood flood-opacity="0" result="BackgroundImageFix"/>
<feBlend mode="normal" in="SourceGraphic" in2="BackgroundImageFix" result="shape"/>
<feGaussianBlur stdDeviation="10.4136" result="effect1_foregroundBlur_16521_100415"/>
</filter>
<linearGradient id="paint0_linear_16521_100415" x1="178.43" y1="0" x2="178.43" y2="247.127" gradientUnits="userSpaceOnUse">
<stop stop-color="white"/>
<stop offset="1" stop-color="white" stop-opacity="0"/>
</linearGradient>
<linearGradient id="paint1_linear_16521_100415" x1="305.848" y1="78.0493" x2="309.966" y2="84.1655" gradientUnits="userSpaceOnUse">
<stop stop-color="#01E8F7"/>
<stop offset="1" stop-color="#00C2FF"/>
</linearGradient>
<linearGradient id="paint2_linear_16521_100415" x1="288.591" y1="82.3104" x2="306.101" y2="89.2038" gradientUnits="userSpaceOnUse">
<stop stop-color="#01E8F7"/>
<stop offset="1" stop-color="#00B3EC"/>
</linearGradient>
<linearGradient id="paint3_linear_16521_100415" x1="297.206" y1="84.0898" x2="307.388" y2="100.563" gradientUnits="userSpaceOnUse">
<stop stop-color="#01E8F7"/>
<stop offset="1" stop-color="#00C2FF"/>
</linearGradient>
</defs>
</svg>
