<svg width="48" height="48" viewBox="0 0 48 48" fill="none" xmlns="http://www.w3.org/2000/svg">
<g id="Group 27545">
<circle id="Ellipse 1" cx="24" cy="24" r="24" fill="#EFF2F6"/>
<g id="Group 27544">
<g id="Group 27519">
<path id="Vector" d="M14.2734 21.715L16.7045 20.2969L19.1355 21.715L16.7045 23.1331L14.2734 21.715Z" fill="#54A0D8"/>
<path id="Vector_2" d="M16.707 23.1251L19.1381 21.707L21.5691 23.1251L19.1381 24.5432L16.707 23.1251Z" fill="#54A0D8"/>
<path id="Vector_3" d="M21.5664 23.1251L23.9975 21.707L26.4285 23.1251L23.9975 24.5432L21.5664 23.1251Z" fill="#54A0D8"/>
<path id="Vector_4" d="M19.1367 24.5353L21.5678 23.1172L23.9988 24.5353L21.5678 25.9534L19.1367 24.5353Z" fill="#54A0D8"/>
<path id="Vector_5" d="M28.8594 21.715L31.2904 20.2969L33.7215 21.715L31.2904 23.1331L28.8594 21.715Z" fill="#54A0D8"/>
<path id="Vector_6" d="M26.4297 23.1251L28.8607 21.707L31.2918 23.1251L28.8607 24.5432L26.4297 23.1251Z" fill="#54A0D8"/>
<path id="Vector_7" d="M24 24.5353L26.431 23.1172L28.8621 24.5353L26.431 25.9534L24 24.5353Z" fill="#54A0D8"/>
<path id="Vector_8" d="M21.5664 25.9455L23.9975 24.5273L26.4285 25.9455L23.9975 27.3636L21.5664 25.9455Z" fill="#71C3FF"/>
<path id="Vector_9" d="M24 41.8494L26.431 40.4313V38.1016L24 39.5197V41.8494Z" fill="#23CFCF"/>
<path id="Vector_10" d="M21.5664 38.1016V40.4313L23.9975 41.8494V39.5197L21.5664 38.1016Z" fill="#49F1F1"/>
<path id="Vector_11" d="M19.1367 41.8494L21.5678 40.4313V38.1016L19.1367 39.5197V41.8494Z" fill="#23CFCF"/>
<path id="Vector_12" d="M16.707 38.1016V40.4313L19.1381 41.8494V39.5197L16.707 38.1016Z" fill="#49F1F1"/>
<path id="Vector_13" d="M28.8594 41.8494L31.2904 40.4313V38.1016L28.8594 39.5197V41.8494Z" fill="#23CFCF"/>
<path id="Vector_14" d="M26.4297 38.1016V40.4313L28.8607 41.8494V39.5197L26.4297 38.1016Z" fill="#49F1F1"/>
<path id="Vector_15" d="M14.2734 34.3555V36.6852L16.7045 38.1033V35.7736L14.2734 34.3555Z" fill="#49F1F1"/>
<path id="Vector_16" d="M24 39.5135L26.431 38.0954V35.7656L24 37.1837V39.5135Z" fill="#2F83FF"/>
<path id="Vector_17" d="M21.5664 35.7656V38.0954L23.9975 39.5135V37.1837L21.5664 35.7656Z" fill="#2FA9FF"/>
<path id="Vector_18" d="M14.2734 32.0234V34.3532L16.7045 35.7713V33.4415L14.2734 32.0234Z" fill="#49F1F1"/>
<path id="Vector_19" d="M33.7227 32.0252L36.1537 30.6071V28.2773L33.7227 29.6955V32.0252Z" fill="#23CFCF"/>
<path id="Vector_20" d="M11.8438 28.2773V30.6071L14.2748 32.0252V29.6955L11.8438 28.2773Z" fill="#49F1F1"/>
<path id="Vector_21" d="M14.2734 29.6914V32.0212L16.7045 33.4393V31.1095L14.2734 29.6914Z" fill="#2FA9FF"/>
<path id="Vector_22" d="M31.293 38.1033L33.724 36.6852V34.3555L31.293 35.7736V38.1033Z" fill="#23CFCF"/>
<path id="Vector_23" d="M31.293 35.7713L33.724 34.3532V32.0234L31.293 33.4415V35.7713Z" fill="#23CFCF"/>
<path id="Vector_24" d="M31.293 33.4393L33.724 32.0212V29.6914L31.293 31.1095V33.4393Z" fill="#2F83FF"/>
<path id="Vector_25" d="M24 37.1815L26.431 35.7633V33.4336L24 34.8517V37.1815Z" fill="#2F83FF"/>
<path id="Vector_26" d="M21.5664 33.4336V35.7633L23.9975 37.1815V34.8517L21.5664 33.4336Z" fill="#2FA9FF"/>
<path id="Vector_27" d="M24 34.8455L26.431 33.4274V31.0977L24 32.5158V34.8455Z" fill="#2F83FF"/>
<path id="Vector_28" d="M21.5664 31.0977V33.4274L23.9975 34.8455V32.5158L21.5664 31.0977Z" fill="#2FA9FF"/>
<path id="Vector_29" d="M11.8438 25.457V27.7868L14.2748 29.2049V26.8751L11.8438 25.457Z" fill="#2FA9FF"/>
<path id="Vector_30" d="M11.8438 23.1251L14.2748 21.707L16.7058 23.1251L14.2748 24.5432L11.8438 23.1251Z" fill="#71C3FF"/>
<path id="Vector_31" d="M11.8438 23.125V25.4548L14.2748 26.8729V24.5431L11.8438 23.125Z" fill="#2FA9FF"/>
<path id="Vector_32" d="M19.1367 39.5135L21.5678 38.0954V35.7656L19.1367 37.1837V39.5135Z" fill="#23CFCF"/>
<path id="Vector_33" d="M16.707 35.7656V38.0954L19.1381 39.5135V37.1837L16.707 35.7656Z" fill="#49F1F1"/>
<path id="Vector_34" d="M28.8594 39.5135L31.2904 38.0954V35.7656L28.8594 37.1837V39.5135Z" fill="#23CFCF"/>
<path id="Vector_35" d="M26.4297 35.7656V38.0954L28.8607 39.5135V37.1837L26.4297 35.7656Z" fill="#49F1F1"/>
<path id="Vector_36" d="M19.1367 37.1815L21.5678 35.7633V33.4336L19.1367 34.8517V37.1815Z" fill="#2F83FF"/>
<path id="Vector_37" d="M16.707 33.4336V35.7633L19.1381 37.1815V34.8517L16.707 33.4336Z" fill="#2FA9FF"/>
<path id="Vector_38" d="M19.1367 34.8455L21.5678 33.4274V31.0977L19.1367 32.5158V34.8455Z" fill="#2F83FF"/>
<path id="Vector_39" d="M16.707 31.0977V33.4274L19.1381 34.8455V32.5158L16.707 31.0977Z" fill="#2FA9FF"/>
<path id="Vector_40" d="M33.7227 29.2049L36.1537 27.7868V25.457L33.7227 26.8751V29.2049Z" fill="#2F83FF"/>
<path id="Vector_41" d="M31.293 23.1251L33.724 21.707L36.1551 23.1251L33.724 24.5432L31.293 23.1251Z" fill="#71C3FF"/>
<path id="Vector_42" d="M33.7227 26.8729L36.1537 25.4548V23.125L33.7227 24.5431V26.8729Z" fill="#2F83FF"/>
<path id="Vector_43" d="M28.8594 37.1815L31.2904 35.7633V33.4336L28.8594 34.8517V37.1815Z" fill="#2F83FF"/>
<path id="Vector_44" d="M26.4297 33.4336V35.7633L28.8607 37.1815V34.8517L26.4297 33.4336Z" fill="#2FA9FF"/>
<path id="Vector_45" d="M28.8594 34.8455L31.2904 33.4274V31.0977L28.8594 32.5158V34.8455Z" fill="#2F83FF"/>
<path id="Vector_46" d="M26.4297 31.0977V33.4274L28.8607 34.8455V32.5158L26.4297 31.0977Z" fill="#2FA9FF"/>
<path id="Vector_47" d="M14.2734 24.5353L16.7045 23.1172L19.1355 24.5353L16.7045 25.9534L14.2734 24.5353Z" fill="#71C3FF"/>
<path id="Vector_48" d="M11.8438 25.9455L14.2748 24.5273L16.7058 25.9455L14.2748 27.3636L11.8438 25.9455Z" fill="#71C3FF"/>
<path id="Vector_49" d="M11.8438 25.9453V28.2751L14.2748 29.6932V27.3634L11.8438 25.9453Z" fill="#2FA9FF"/>
<path id="Vector_50" d="M16.707 25.9455L19.1381 24.5273L21.5691 25.9455L19.1381 27.3636L16.707 25.9455Z" fill="#71C3FF"/>
<path id="Vector_51" d="M14.2734 27.3556L16.7045 25.9375L19.1355 27.3556L16.7045 28.7737L14.2734 27.3556Z" fill="#71C3FF"/>
<path id="Vector_52" d="M14.2734 27.3555V29.6852L16.7045 31.1033V28.7736L14.2734 27.3555Z" fill="#2FA9FF"/>
<path id="Vector_53" d="M19.1367 27.3556L21.5678 25.9375L23.9988 27.3556L21.5678 28.7737L19.1367 27.3556Z" fill="#71C3FF"/>
<path id="Vector_54" d="M16.707 28.7658L19.1381 27.3477L21.5691 28.7658L19.1381 30.1839L16.707 28.7658Z" fill="#71C3FF"/>
<path id="Vector_55" d="M19.1367 32.5135L21.5678 31.0954V28.7656L19.1367 30.1837V32.5135Z" fill="#2F83FF"/>
<path id="Vector_56" d="M16.707 28.7656V31.0954L19.1381 32.5135V30.1837L16.707 28.7656Z" fill="#2FA9FF"/>
<path id="Vector_57" d="M28.8594 24.5353L31.2904 23.1172L33.7215 24.5353L31.2904 25.9534L28.8594 24.5353Z" fill="#71C3FF"/>
<path id="Vector_58" d="M26.4297 25.9455L28.8607 24.5273L31.2918 25.9455L28.8607 27.3636L26.4297 25.9455Z" fill="#71C3FF"/>
<path id="Vector_59" d="M24 27.3556L26.431 25.9375L28.8621 27.3556L26.431 28.7737L24 27.3556Z" fill="#71C3FF"/>
<path id="Vector_60" d="M21.5664 28.7658L23.9975 27.3477L26.4285 28.7658L23.9975 30.1839L21.5664 28.7658Z" fill="#71C3FF"/>
<path id="Vector_61" d="M24 32.5135L26.431 31.0954V28.7656L24 30.1837V32.5135Z" fill="#2F83FF"/>
<path id="Vector_62" d="M21.5664 28.7656V31.0954L23.9975 32.5135V30.1837L21.5664 28.7656Z" fill="#2FA9FF"/>
<path id="Vector_63" d="M31.293 25.9455L33.724 24.5273L36.1551 25.9455L33.724 27.3636L31.293 25.9455Z" fill="#71C3FF"/>
<path id="Vector_64" d="M33.7227 29.6932L36.1537 28.2751V25.9453L33.7227 27.3634V29.6932Z" fill="#2F83FF"/>
<path id="Vector_65" d="M28.8594 27.3556L31.2904 25.9375L33.7215 27.3556L31.2904 28.7737L28.8594 27.3556Z" fill="#71C3FF"/>
<path id="Vector_66" d="M31.293 31.1033L33.724 29.6852V27.3555L31.293 28.7736V31.1033Z" fill="#2F83FF"/>
<path id="Vector_67" d="M26.4297 28.7658L28.8607 27.3477L31.2918 28.7658L28.8607 30.1839L26.4297 28.7658Z" fill="#71C3FF"/>
<path id="Vector_68" d="M28.8594 32.5135L31.2904 31.0954V28.7656L28.8594 30.1837V32.5135Z" fill="#2F83FF"/>
<path id="Vector_69" d="M26.4297 28.7656V31.0954L28.8607 32.5135V30.1837L26.4297 28.7656Z" fill="#2FA9FF"/>
<g id="Vector_70">
<path d="M17.4155 21.1602H15.9974V21.7672C15.9974 21.7674 15.9974 21.7677 15.9974 21.7679C15.9974 21.9917 16.3149 22.1731 16.7065 22.1731C17.0981 22.1731 17.4155 21.9917 17.4155 21.7679V21.1602Z" fill="#2FA9FF"/>
<path d="M19.8465 22.5702H18.4284V23.1761C18.4284 23.1767 18.4284 23.1773 18.4284 23.1779C18.4284 23.4017 18.7459 23.5831 19.1375 23.5831C19.5291 23.5831 19.8465 23.4017 19.8465 23.1779L19.8465 22.5702Z" fill="#2FA9FF"/>
<path d="M24.7087 22.5702H23.2906V23.1749C23.2906 23.1759 23.2906 23.1769 23.2906 23.1779C23.2906 23.4017 23.608 23.5831 23.9996 23.5831C24.3912 23.5831 24.7087 23.4017 24.7087 23.1779L24.7087 22.5702Z" fill="#2FA9FF"/>
<path d="M22.2776 23.9802H20.8595V24.5854C20.8595 24.5863 20.8595 24.5871 20.8595 24.5879C20.8595 24.8117 21.177 24.9931 21.5686 24.9931C21.9602 24.9931 22.2776 24.8117 22.2776 24.5879L22.2776 23.9802Z" fill="#2FA9FF"/>
<path d="M32.0018 21.1602H30.5837V21.7679C30.5837 21.9917 30.9011 22.1731 31.2927 22.1731C31.6843 22.1731 32.0018 21.9917 32.0018 21.7679C32.0018 21.7675 32.0018 21.7671 32.0018 21.7667V21.1602Z" fill="#2FA9FF"/>
<path d="M29.5707 22.5702H28.1526V23.1779C28.1526 23.4017 28.4701 23.5831 28.8617 23.5831C29.2533 23.5831 29.5707 23.4017 29.5707 23.1779C29.5707 23.1772 29.5707 23.1765 29.5707 23.1758V22.5702Z" fill="#2FA9FF"/>
<path d="M27.1397 23.9802H25.7216V24.5879C25.7216 24.8117 26.039 24.9931 26.4306 24.9931C26.8222 24.9931 27.1397 24.8117 27.1397 24.5879C27.1397 24.587 27.1397 24.5861 27.1397 24.5852V23.9802Z" fill="#2FA9FF"/>
<path d="M24.7087 25.3902H23.2906V25.9949C23.2906 25.9959 23.2906 25.9969 23.2906 25.9979C23.2906 26.2217 23.608 26.4031 23.9996 26.4031C24.3912 26.4031 24.7087 26.2217 24.7087 25.9979L24.7087 25.3902Z" fill="#2FA9FF"/>
<path d="M14.9845 22.5702H13.5664V23.1779C13.5664 23.4017 13.8839 23.5831 14.2755 23.5831C14.6671 23.5831 14.9845 23.4017 14.9845 23.1779C14.9845 23.1772 14.9845 23.1766 14.9845 23.1759V22.5702Z" fill="#2FA9FF"/>
<path d="M34.4329 22.5702H33.0148V23.1779C33.0148 23.4017 33.3322 23.5831 33.7238 23.5831C34.1154 23.5831 34.4329 23.4017 34.4329 23.1779C34.4329 23.1777 34.4329 23.1775 34.4329 23.1773V22.5702Z" fill="#2FA9FF"/>
<path d="M17.4155 23.9802H15.9974V24.5872C15.9974 24.5874 15.9974 24.5877 15.9974 24.5879C15.9974 24.8117 16.3149 24.9931 16.7065 24.9931C17.0981 24.9931 17.4155 24.8117 17.4155 24.5879V23.9802Z" fill="#2FA9FF"/>
<path d="M14.9845 25.3902H13.5664V25.9979C13.5664 26.2217 13.8839 26.4031 14.2755 26.4031C14.6671 26.4031 14.9845 26.2217 14.9845 25.9979C14.9845 25.9972 14.9845 25.9966 14.9845 25.9959V25.3902Z" fill="#2FA9FF"/>
<path d="M19.8466 25.3902H18.4285V25.9967C18.4285 25.9971 18.4285 25.9975 18.4285 25.9979C18.4285 26.2217 18.746 26.4031 19.1376 26.4031C19.5292 26.4031 19.8466 26.2217 19.8466 25.9979L19.8466 25.3902Z" fill="#2FA9FF"/>
<path d="M17.4155 26.8002H15.9974V27.4072C15.9974 27.4075 15.9974 27.4077 15.9974 27.4079C15.9974 27.6317 16.3149 27.8131 16.7065 27.8131C17.0981 27.8131 17.4155 27.6317 17.4155 27.4079L17.4155 26.8002Z" fill="#2FA9FF"/>
<path d="M22.2776 26.8002H20.8595V27.4058C20.8595 27.4065 20.8595 27.4072 20.8595 27.4079C20.8595 27.6317 21.177 27.8131 21.5686 27.8131C21.9602 27.8131 22.2776 27.6317 22.2776 27.4079L22.2776 26.8002Z" fill="#2FA9FF"/>
<path d="M19.8466 28.2102H18.4285V28.8167C18.4285 28.8171 18.4285 28.8175 18.4285 28.8179C18.4285 29.0417 18.746 29.2231 19.1376 29.2231C19.5292 29.2231 19.8466 29.0417 19.8466 28.8179L19.8466 28.2102Z" fill="#2FA9FF"/>
<path d="M32.0018 23.9802H30.5837V24.5879C30.5837 24.8117 30.9012 24.9931 31.2928 24.9931C31.6844 24.9931 32.0018 24.8117 32.0018 24.5879C32.0018 24.5873 32.0018 24.5867 32.0018 24.5861V23.9802Z" fill="#2FA9FF"/>
<path d="M29.5707 25.3902H28.1526V25.9979C28.1526 26.2217 28.4701 26.4031 28.8617 26.4031C29.2533 26.4031 29.5707 26.2217 29.5707 25.9979C29.5707 25.9972 29.5707 25.9965 29.5707 25.9958V25.3902Z" fill="#2FA9FF"/>
<path d="M27.1398 26.8002H25.7217V27.4079C25.7217 27.6317 26.0391 27.8131 26.4307 27.8131C26.8223 27.8131 27.1398 27.6317 27.1398 27.4079C27.1398 27.4069 27.1398 27.4059 27.1398 27.4049V26.8002Z" fill="#2FA9FF"/>
<path d="M24.7087 28.2102H23.2906V28.8149C23.2906 28.8159 23.2906 28.8169 23.2906 28.8179C23.2906 29.0417 23.608 29.2231 23.9996 29.2231C24.3912 29.2231 24.7087 29.0417 24.7087 28.8179L24.7087 28.2102Z" fill="#2FA9FF"/>
<path d="M34.4329 25.3902H33.0148V25.9979C33.0148 26.2217 33.3322 26.4031 33.7238 26.4031C34.1154 26.4031 34.4329 26.2217 34.4329 25.9979C34.4329 25.9977 34.4329 25.9975 34.4329 25.9973V25.3902Z" fill="#2FA9FF"/>
<path d="M32.0018 26.8002H30.5837V27.4079C30.5837 27.6317 30.9012 27.8131 31.2928 27.8131C31.6844 27.8131 32.0018 27.6317 32.0018 27.4079C32.0018 27.4073 32.0018 27.4067 32.0018 27.4061V26.8002Z" fill="#2FA9FF"/>
<path d="M29.5707 28.2102H28.1526V28.8179C28.1526 29.0417 28.4701 29.2231 28.8617 29.2231C29.2533 29.2231 29.5707 29.0417 29.5707 28.8179C29.5707 28.8172 29.5707 28.8165 29.5707 28.8159V28.2102Z" fill="#2FA9FF"/>
</g>
<g id="Vector_71">
<path d="M17.4142 21.1602H15.9961V21.7672C15.9961 21.7674 15.9961 21.7677 15.9961 21.7679C15.9961 21.9917 16.3135 22.1731 16.7051 22.1731C17.0967 22.1731 17.4142 21.9917 17.4142 21.7679V21.1602Z" fill="#1884CF"/>
<path d="M19.8452 22.5702H18.4271V23.1761C18.4271 23.1767 18.4271 23.1773 18.4271 23.1779C18.4271 23.4017 18.7446 23.5831 19.1362 23.5831C19.5278 23.5831 19.8452 23.4017 19.8452 23.1779L19.8452 22.5702Z" fill="#1884CF"/>
<path d="M24.7074 22.5702H23.2893V23.1749C23.2892 23.1759 23.2892 23.1769 23.2892 23.1779C23.2892 23.4017 23.6067 23.5831 23.9983 23.5831C24.3899 23.5831 24.7074 23.4017 24.7074 23.1779L24.7074 22.5702Z" fill="#1884CF"/>
<path d="M22.2763 23.9802H20.8582V24.5854C20.8582 24.5863 20.8582 24.5871 20.8582 24.5879C20.8582 24.8117 21.1756 24.9931 21.5672 24.9931C21.9588 24.9931 22.2763 24.8117 22.2763 24.5879L22.2763 23.9802Z" fill="#1884CF"/>
<path d="M32.0005 21.1602H30.5824V21.7679C30.5824 21.9917 30.8998 22.1731 31.2914 22.1731C31.683 22.1731 32.0005 21.9917 32.0005 21.7679C32.0005 21.7675 32.0005 21.7671 32.0005 21.7667V21.1602Z" fill="#1884CF"/>
<path d="M29.5694 22.5702H28.1513V23.1779C28.1513 23.4017 28.4688 23.5831 28.8604 23.5831C29.252 23.5831 29.5694 23.4017 29.5694 23.1779C29.5694 23.1772 29.5694 23.1765 29.5694 23.1758V22.5702Z" fill="#1884CF"/>
<path d="M27.1384 23.9802H25.7203V24.5879C25.7203 24.8117 26.0377 24.9931 26.4293 24.9931C26.8209 24.9931 27.1384 24.8117 27.1384 24.5879C27.1384 24.587 27.1384 24.5861 27.1384 24.5852V23.9802Z" fill="#1884CF"/>
</g>
<g id="Vector_72">
<path d="M17.4155 21.1591C17.4155 21.3829 17.0981 21.5643 16.7065 21.5643C16.3149 21.5643 15.9974 21.3829 15.9974 21.1591C15.9974 20.9353 16.3149 20.7539 16.7065 20.7539C17.0981 20.7539 17.4155 20.9353 17.4155 21.1591Z" fill="#EFF8FF"/>
<path d="M19.8465 22.5691C19.8465 22.7929 19.5291 22.9743 19.1375 22.9743C18.7459 22.9743 18.4284 22.7929 18.4284 22.5691C18.4284 22.3453 18.7459 22.1639 19.1375 22.1639C19.5291 22.1639 19.8465 22.3453 19.8465 22.5691Z" fill="#EFF8FF"/>
<path d="M24.7087 22.5691C24.7087 22.7929 24.3912 22.9743 23.9996 22.9743C23.608 22.9743 23.2906 22.7929 23.2906 22.5691C23.2906 22.3453 23.608 22.1639 23.9996 22.1639C24.3912 22.1639 24.7087 22.3453 24.7087 22.5691Z" fill="#EFF8FF"/>
<path d="M22.2776 23.9791C22.2776 24.2029 21.9602 24.3843 21.5686 24.3843C21.177 24.3843 20.8595 24.2029 20.8595 23.9791C20.8595 23.7553 21.177 23.5739 21.5686 23.5739C21.9602 23.5739 22.2776 23.7553 22.2776 23.9791Z" fill="#EFF8FF"/>
<path d="M32.0018 21.1591C32.0018 21.3829 31.6843 21.5643 31.2927 21.5643C30.9011 21.5643 30.5837 21.3829 30.5837 21.1591C30.5837 20.9353 30.9011 20.7539 31.2927 20.7539C31.6843 20.7539 32.0018 20.9353 32.0018 21.1591Z" fill="#EFF8FF"/>
<path d="M29.5707 22.5691C29.5707 22.7929 29.2533 22.9743 28.8617 22.9743C28.4701 22.9743 28.1526 22.7929 28.1526 22.5691C28.1526 22.3453 28.4701 22.1639 28.8617 22.1639C29.2533 22.1639 29.5707 22.3453 29.5707 22.5691Z" fill="#EFF8FF"/>
<path d="M27.1397 23.9791C27.1397 24.2029 26.8222 24.3843 26.4306 24.3843C26.039 24.3843 25.7216 24.2029 25.7216 23.9791C25.7216 23.7553 26.039 23.5739 26.4306 23.5739C26.8222 23.5739 27.1397 23.7553 27.1397 23.9791Z" fill="#EFF8FF"/>
<path d="M24.7087 25.3891C24.7087 25.6129 24.3912 25.7943 23.9996 25.7943C23.608 25.7943 23.2906 25.6129 23.2906 25.3891C23.2906 25.1653 23.608 24.9839 23.9996 24.9839C24.3912 24.9839 24.7087 25.1653 24.7087 25.3891Z" fill="#EFF8FF"/>
<path d="M14.9845 22.5691C14.9845 22.7929 14.6671 22.9743 14.2755 22.9743C13.8839 22.9743 13.5664 22.7929 13.5664 22.5691C13.5664 22.3453 13.8839 22.1639 14.2755 22.1639C14.6671 22.1639 14.9845 22.3453 14.9845 22.5691Z" fill="#EFF8FF"/>
<path d="M34.4329 22.5691C34.4329 22.7929 34.1154 22.9743 33.7238 22.9743C33.3322 22.9743 33.0148 22.7929 33.0148 22.5691C33.0148 22.3453 33.3322 22.1639 33.7238 22.1639C34.1154 22.1639 34.4329 22.3453 34.4329 22.5691Z" fill="#EFF8FF"/>
<path d="M17.4155 23.9791C17.4155 24.2029 17.0981 24.3843 16.7065 24.3843C16.3149 24.3843 15.9974 24.2029 15.9974 23.9791C15.9974 23.7553 16.3149 23.5739 16.7065 23.5739C17.0981 23.5739 17.4155 23.7553 17.4155 23.9791Z" fill="#EFF8FF"/>
<path d="M14.9845 25.3891C14.9845 25.6129 14.6671 25.7943 14.2755 25.7943C13.8839 25.7943 13.5664 25.6129 13.5664 25.3891C13.5664 25.1653 13.8839 24.9839 14.2755 24.9839C14.6671 24.9839 14.9845 25.1653 14.9845 25.3891Z" fill="#EFF8FF"/>
<path d="M19.8466 25.3891C19.8466 25.6129 19.5292 25.7943 19.1376 25.7943C18.746 25.7943 18.4285 25.6129 18.4285 25.3891C18.4285 25.1653 18.746 24.9839 19.1376 24.9839C19.5292 24.9839 19.8466 25.1653 19.8466 25.3891Z" fill="#EFF8FF"/>
<path d="M17.4155 26.7991C17.4155 27.0229 17.0981 27.2043 16.7065 27.2043C16.3149 27.2043 15.9974 27.0229 15.9974 26.7991C15.9974 26.5753 16.3149 26.3939 16.7065 26.3939C17.0981 26.3939 17.4155 26.5753 17.4155 26.7991Z" fill="#EFF8FF"/>
<path d="M22.2776 26.7991C22.2776 27.0229 21.9602 27.2043 21.5686 27.2043C21.177 27.2043 20.8595 27.0229 20.8595 26.7991C20.8595 26.5753 21.177 26.3939 21.5686 26.3939C21.9602 26.3939 22.2776 26.5753 22.2776 26.7991Z" fill="#EFF8FF"/>
<path d="M19.8466 28.2091C19.8466 28.4329 19.5292 28.6143 19.1376 28.6143C18.746 28.6143 18.4285 28.4329 18.4285 28.2091C18.4285 27.9853 18.746 27.8039 19.1376 27.8039C19.5292 27.8039 19.8466 27.9853 19.8466 28.2091Z" fill="#EFF8FF"/>
<path d="M32.0018 23.9791C32.0018 24.2029 31.6844 24.3843 31.2928 24.3843C30.9012 24.3843 30.5837 24.2029 30.5837 23.9791C30.5837 23.7553 30.9012 23.5739 31.2928 23.5739C31.6844 23.5739 32.0018 23.7553 32.0018 23.9791Z" fill="#EFF8FF"/>
<path d="M29.5707 25.3891C29.5707 25.6129 29.2533 25.7943 28.8617 25.7943C28.4701 25.7943 28.1526 25.6129 28.1526 25.3891C28.1526 25.1653 28.4701 24.9839 28.8617 24.9839C29.2533 24.9839 29.5707 25.1653 29.5707 25.3891Z" fill="#EFF8FF"/>
<path d="M27.1398 26.7991C27.1398 27.0229 26.8223 27.2043 26.4307 27.2043C26.0391 27.2043 25.7217 27.0229 25.7217 26.7991C25.7217 26.5753 26.0391 26.3939 26.4307 26.3939C26.8223 26.3939 27.1398 26.5753 27.1398 26.7991Z" fill="#EFF8FF"/>
<path d="M24.7087 28.2091C24.7087 28.4329 24.3912 28.6143 23.9996 28.6143C23.608 28.6143 23.2906 28.4329 23.2906 28.2091C23.2906 27.9853 23.608 27.8039 23.9996 27.8039C24.3912 27.8039 24.7087 27.9853 24.7087 28.2091Z" fill="#EFF8FF"/>
<path d="M34.4329 25.3891C34.4329 25.6129 34.1154 25.7943 33.7238 25.7943C33.3322 25.7943 33.0148 25.6129 33.0148 25.3891C33.0148 25.1653 33.3322 24.9839 33.7238 24.9839C34.1154 24.9839 34.4329 25.1653 34.4329 25.3891Z" fill="#EFF8FF"/>
<path d="M32.0018 26.7991C32.0018 27.0229 31.6844 27.2043 31.2928 27.2043C30.9012 27.2043 30.5837 27.0229 30.5837 26.7991C30.5837 26.5753 30.9012 26.3939 31.2928 26.3939C31.6844 26.3939 32.0018 26.5753 32.0018 26.7991Z" fill="#EFF8FF"/>
<path d="M29.5707 28.2091C29.5707 28.4329 29.2533 28.6143 28.8617 28.6143C28.4701 28.6143 28.1526 28.4329 28.1526 28.2091C28.1526 27.9853 28.4701 27.8039 28.8617 27.8039C29.2533 27.8039 29.5707 27.9853 29.5707 28.2091Z" fill="#EFF8FF"/>
</g>
<g id="Vector_73">
<path d="M17.4142 21.1591C17.4142 21.3829 17.0967 21.5643 16.7051 21.5643C16.3135 21.5643 15.9961 21.3829 15.9961 21.1591C15.9961 20.9353 16.3135 20.7539 16.7051 20.7539C17.0967 20.7539 17.4142 20.9353 17.4142 21.1591Z" fill="#B5C7D6"/>
<path d="M19.8452 22.5691C19.8452 22.7929 19.5278 22.9743 19.1362 22.9743C18.7446 22.9743 18.4271 22.7929 18.4271 22.5691C18.4271 22.3453 18.7446 22.1639 19.1362 22.1639C19.5278 22.1639 19.8452 22.3453 19.8452 22.5691Z" fill="#B5C7D6"/>
<path d="M24.7074 22.5691C24.7074 22.7929 24.3899 22.9743 23.9983 22.9743C23.6067 22.9743 23.2892 22.7929 23.2892 22.5691C23.2892 22.3453 23.6067 22.1639 23.9983 22.1639C24.3899 22.1639 24.7074 22.3453 24.7074 22.5691Z" fill="#B5C7D6"/>
<path d="M22.2763 23.9791C22.2763 24.2029 21.9588 24.3843 21.5672 24.3843C21.1756 24.3843 20.8582 24.2029 20.8582 23.9791C20.8582 23.7553 21.1756 23.5739 21.5672 23.5739C21.9588 23.5739 22.2763 23.7553 22.2763 23.9791Z" fill="#B5C7D6"/>
<path d="M32.0005 21.1591C32.0005 21.3829 31.683 21.5643 31.2914 21.5643C30.8998 21.5643 30.5824 21.3829 30.5824 21.1591C30.5824 20.9353 30.8998 20.7539 31.2914 20.7539C31.683 20.7539 32.0005 20.9353 32.0005 21.1591Z" fill="#B5C7D6"/>
<path d="M29.5694 22.5691C29.5694 22.7929 29.252 22.9743 28.8604 22.9743C28.4688 22.9743 28.1513 22.7929 28.1513 22.5691C28.1513 22.3453 28.4688 22.1639 28.8604 22.1639C29.252 22.1639 29.5694 22.3453 29.5694 22.5691Z" fill="#B5C7D6"/>
<path d="M27.1384 23.9791C27.1384 24.2029 26.8209 24.3843 26.4293 24.3843C26.0377 24.3843 25.7203 24.2029 25.7203 23.9791C25.7203 23.7553 26.0377 23.5739 26.4293 23.5739C26.8209 23.5739 27.1384 23.7553 27.1384 23.9791Z" fill="#B5C7D6"/>
</g>
</g>
<g id="Group 27526">
<path id="Vector_74" d="M31.293 20.5565L33.724 19.1383V16.8086L31.293 18.2267V20.5565Z" fill="#2F83FF"/>
<path id="Vector_75" d="M28.8633 14.4728L31.2943 13.0547L33.7254 14.4728L31.2943 15.8909L28.8633 14.4728Z" fill="#71C3FF"/>
<g id="Group">
<path id="Union" fill-rule="evenodd" clip-rule="evenodd" d="M32.004 13.918H30.5859V14.5257H30.5859C30.5859 14.5259 30.5859 14.5261 30.5859 14.5263C30.5859 14.75 30.9034 14.9314 31.295 14.9314C31.6866 14.9314 32.004 14.75 32.004 14.5263C32.004 14.5261 32.004 14.5259 32.004 14.5257V13.918Z" fill="#2FA9FF"/>
<ellipse id="Ellipse" cx="31.295" cy="13.9169" rx="0.709055" ry="0.405174" fill="#EFF8FF"/>
</g>
<path id="Vector_76" d="M31.293 18.2205L33.724 16.8024V14.4727L31.293 15.8908V18.2205Z" fill="#2F83FF"/>
<path id="Vector_77" d="M28.8633 21.9627L31.2943 20.5446V18.2148L28.8633 19.633V21.9627Z" fill="#2F83FF"/>
<path id="Vector_78" d="M28.8633 19.6307L31.2943 18.2126V15.8828L28.8633 17.3009V19.6307Z" fill="#2F83FF"/>
<path id="Vector_79" d="M28.8633 17.2947L31.2943 15.8766V13.5469L28.8633 14.965V17.2947Z" fill="#2F83FF"/>
<path id="Vector_80" d="M26.4297 23.3768L28.8607 21.9587V19.6289L26.4297 21.047V23.3768Z" fill="#2F83FF"/>
<path id="Vector_81" d="M24 19.6289V21.9587L26.431 23.3768V21.047L24 19.6289Z" fill="#2FA9FF"/>
<path id="Vector_82" d="M26.4297 21.0408L28.8607 19.6227V17.293L26.4297 18.7111V21.0408Z" fill="#2F83FF"/>
<path id="Vector_83" d="M24 17.293V19.6227L26.431 21.0408V18.7111L24 17.293Z" fill="#2FA9FF"/>
</g>
<g id="Group 27527">
<path id="Vector_84" d="M26.4297 11.215L28.8607 9.79688L31.2918 11.215L28.8607 12.6331L26.4297 11.215Z" fill="#FFB8B4"/>
<path id="Vector_85" d="M28.8633 14.9627L31.2943 13.5446V11.2148L28.8633 12.633V14.9627Z" fill="#EA6463"/>
<g id="Group_2">
<path id="Union_2" fill-rule="evenodd" clip-rule="evenodd" d="M29.5705 10.6641H28.1523V11.2718H28.1523C28.1523 11.272 28.1523 11.2722 28.1523 11.2724C28.1523 11.4961 28.4698 11.6775 28.8614 11.6775C29.253 11.6775 29.5705 11.4961 29.5705 11.2724C29.5705 11.2722 29.5705 11.272 29.5705 11.2718V10.6641Z" fill="#F88887"/>
<ellipse id="Ellipse_2" cx="28.8614" cy="10.663" rx="0.709055" ry="0.405174" fill="#FFEDEF"/>
</g>
<path id="Vector_86" d="M26.4336 18.7088L28.8646 17.2907V14.9609L26.4336 16.379V18.7088Z" fill="#EA6463"/>
<path id="Vector_87" d="M26.4336 14.0408L28.8646 12.6227V10.293L26.4336 11.7111V14.0408Z" fill="#EA6463"/>
<path id="Vector_88" d="M24 14.9609V17.2907L26.431 18.7088V16.379L24 14.9609Z" fill="#F88887"/>
<path id="Vector_89" d="M26.4336 16.3729L28.8646 14.9548V12.625L26.4336 14.0431V16.3729Z" fill="#EA6463"/>
<path id="Vector_90" d="M24 12.625V14.9548L26.431 16.3729V14.0431L24 12.625Z" fill="#F88887"/>
<path id="Vector_91" d="M24 10.293V12.6227L26.431 14.0408V11.7111L24 10.293Z" fill="#F88887"/>
<path id="Vector_92" d="M24 7.95717L26.431 6.53906L28.8621 7.95717L26.431 9.37528L24 7.95717Z" fill="#FFB8B4"/>
<path id="Vector_93" d="M26.4336 11.7049L28.8646 10.2868V7.95703L26.4336 9.37514V11.7049Z" fill="#EA6463"/>
<path id="Vector_94" d="M24 7.95703V10.2868L26.431 11.7049V9.37514L24 7.95703Z" fill="#F88887"/>
<g id="Group_3">
<path id="Union_3" fill-rule="evenodd" clip-rule="evenodd" d="M27.1408 7.40234H25.7227V8.0101H25.7227C25.7227 8.01028 25.7227 8.01046 25.7227 8.01064C25.7227 8.23441 26.0401 8.41582 26.4317 8.41582C26.8233 8.41582 27.1408 8.23441 27.1408 8.01064C27.1408 8.01046 27.1408 8.01028 27.1408 8.0101V7.40234Z" fill="#F88887"/>
<ellipse id="Ellipse_3" cx="26.4317" cy="7.40127" rx="0.709055" ry="0.405174" fill="#FFEDEF"/>
</g>
</g>
<g id="Group 27529">
<path id="Vector_95" d="M14.2773 16.8086V19.1383L16.7084 20.5565V18.2267L14.2773 16.8086Z" fill="#35C16D"/>
<path id="Vector_96" d="M14.2773 14.4728L16.7084 13.0547L19.1394 14.4728L16.7084 15.8909L14.2773 14.4728Z" fill="#6EFAA6"/>
<path id="Vector_97" d="M14.2773 14.4727V16.8024L16.7084 18.2205V15.8908L14.2773 14.4727Z" fill="#35C16D"/>
<g id="Group_4">
<path id="Union_4" fill-rule="evenodd" clip-rule="evenodd" d="M17.4181 13.9141H16V14.5218H16C16 14.522 16 14.5222 16 14.5224C16 14.7461 16.3175 14.9275 16.7091 14.9275C17.1007 14.9275 17.4181 14.7461 17.4181 14.5224C17.4181 14.5222 17.4181 14.522 17.4181 14.5218V13.9141Z" fill="#35C16D"/>
<ellipse id="Ellipse_4" cx="16.7091" cy="13.9169" rx="0.709055" ry="0.405174" fill="#E7FFF0"/>
</g>
<path id="Vector_98" d="M16.7109 18.2148V20.5446L19.142 21.9627V19.633L16.7109 18.2148Z" fill="#35C16D"/>
<path id="Vector_99" d="M16.7109 15.8828V18.2126L19.142 19.6307V17.3009L16.7109 15.8828Z" fill="#35C16D"/>
<path id="Vector_100" d="M16.7109 13.5469V15.8766L19.142 17.2947V14.965L16.7109 13.5469Z" fill="#35C16D"/>
<path id="Vector_101" d="M21.5703 23.3768L24.0014 21.9587V19.6289L21.5703 21.047V23.3768Z" fill="#1FAB57"/>
<path id="Vector_102" d="M19.1406 19.6289V21.9587L21.5717 23.3768V21.047L19.1406 19.6289Z" fill="#35C16D"/>
<path id="Vector_103" d="M21.5703 21.0408L24.0014 19.6227V17.293L21.5703 18.7111V21.0408Z" fill="#1FAB57"/>
<path id="Vector_104" d="M19.1406 17.293V19.6227L21.5717 21.0408V18.7111L19.1406 17.293Z" fill="#35C16D"/>
</g>
<g id="Group 27528">
<path id="Vector_105" d="M16.707 11.215L19.1381 9.79688L21.5691 11.215L19.1381 12.6331L16.707 11.215Z" fill="#FFEE92"/>
<path id="Vector_106" d="M16.707 11.2148V13.5446L19.1381 14.9627V12.633L16.707 11.2148Z" fill="#FFDE2E"/>
<g id="Group_5">
<path id="Union_5" fill-rule="evenodd" clip-rule="evenodd" d="M19.8478 10.6641H18.4297V11.2718H18.4297C18.4297 11.272 18.4297 11.2722 18.4297 11.2724C18.4297 11.4961 18.7471 11.6775 19.1387 11.6775C19.5303 11.6775 19.8478 11.4961 19.8478 11.2724C19.8478 11.2722 19.8478 11.272 19.8478 11.2718V10.6641Z" fill="#FFDE2E"/>
<ellipse id="Ellipse_5" cx="19.1387" cy="10.663" rx="0.709055" ry="0.405174" fill="#FFF6DF"/>
</g>
<path id="Vector_107" d="M21.5703 18.7088L24.0014 17.2907V14.9609L21.5703 16.379V18.7088Z" fill="#DBBA0E"/>
<path id="Vector_108" d="M19.1367 14.9609V17.2907L21.5678 18.7088V16.379L19.1367 14.9609Z" fill="#FFDE2E"/>
<path id="Vector_109" d="M21.5703 16.3729L24.0014 14.9548V12.625L21.5703 14.0431V16.3729Z" fill="#DBBA0E"/>
<path id="Vector_110" d="M19.1367 12.625V14.9548L21.5678 16.3729V14.0431L19.1367 12.625Z" fill="#FFDE2E"/>
<path id="Vector_111" d="M21.5703 14.0408L24.0014 12.6227V10.293L21.5703 11.7111V14.0408Z" fill="#DBBA0E"/>
<path id="Vector_112" d="M19.1367 10.293V12.6227L21.5678 14.0408V11.7111L19.1367 10.293Z" fill="#FFDE2E"/>
<path id="Vector_113" d="M19.1367 7.95717L21.5678 6.53906L23.9988 7.95717L21.5678 9.37528L19.1367 7.95717Z" fill="#FFEE92"/>
<path id="Vector_114" d="M21.5703 11.7049L24.0014 10.2868V7.95703L21.5703 9.37514V11.7049Z" fill="#DBBA0E"/>
<path id="Vector_115" d="M19.1367 7.95703V10.2868L21.5678 11.7049V9.37514L19.1367 7.95703Z" fill="#FFDE2E"/>
<g id="Group_6">
<path id="Union_6" fill-rule="evenodd" clip-rule="evenodd" d="M22.2736 7.40234H20.8555V8.0101H20.8555C20.8555 8.01028 20.8555 8.01046 20.8555 8.01064C20.8555 8.23441 21.1729 8.41582 21.5645 8.41582C21.9561 8.41582 22.2736 8.23441 22.2736 8.01064C22.2736 8.01046 22.2736 8.01028 22.2736 8.0101V7.40234Z" fill="#FFDE2E"/>
<ellipse id="Ellipse_6" cx="21.5645" cy="7.40127" rx="0.709055" ry="0.405174" fill="#FFF6DF"/>
</g>
</g>
</g>
</g>
</svg>
