<svg width="24" height="24" viewBox="0 0 24 24" fill="none" xmlns="http://www.w3.org/2000/svg">
<circle cx="12" cy="12" r="12" fill="#EFF2F6"/>
<path d="M12.3278 4.62695L9.01855 9.75357L12.3278 11.7809L15.6373 9.75357L12.3278 4.62695Z" fill="#FFF86C"/>
<path d="M16.8857 11.5801L12.3287 14.2767L7.75831 11.5801C7.75831 11.5801 6.59634 13.4498 7.17733 15.5417C7.75831 17.6336 9.44862 19.0813 11.2859 19.4735C13.1232 19.8657 15.0642 19.0317 15.9049 18.1908C16.7455 17.35 17.4592 16.427 17.6085 14.7767C17.7578 13.1263 16.8857 11.5801 16.8857 11.5801Z" fill="#98FFFF"/>
<path d="M16.0591 9.35937C15.9965 9.29215 15.9188 9.24086 15.8324 9.20978C15.746 9.1787 15.6534 9.16873 15.5624 9.1807L12.8649 4.96145C12.8551 4.94667 12.8491 4.92967 12.8475 4.91199C12.8459 4.89431 12.8487 4.8765 12.8557 4.86018C12.8925 4.77736 12.9091 4.68696 12.9041 4.59645C12.8995 4.51203 12.8763 4.42966 12.8363 4.35517C12.7964 4.28067 12.7405 4.21587 12.6727 4.16532C12.6049 4.11478 12.5269 4.07974 12.4441 4.06267C12.3613 4.0456 12.2757 4.04693 12.1935 4.06654C12.1112 4.08616 12.0343 4.1236 11.9681 4.17621C11.9019 4.22882 11.8481 4.29532 11.8104 4.37102C11.7728 4.44671 11.7522 4.52976 11.7501 4.61428C11.7481 4.6988 11.7646 4.78275 11.7986 4.86018C11.8055 4.8765 11.8083 4.89427 11.8068 4.91194C11.8052 4.9296 11.7993 4.94661 11.7896 4.96145L9.10094 9.16768C9.09781 9.17192 9.09359 9.17523 9.08872 9.17724C9.08385 9.17926 9.07852 9.1799 9.07331 9.17911C9.05508 9.17738 9.03642 9.17636 9.01805 9.17636C8.93889 9.17641 8.86059 9.19267 8.78796 9.22415C8.71533 9.25562 8.64992 9.30164 8.59576 9.35937C8.52095 9.43952 8.4705 9.53932 8.45031 9.64708C8.43012 9.75485 8.44102 9.86614 8.48175 9.96794C8.52247 10.0697 8.59134 10.1578 8.68028 10.2219C8.76923 10.2861 8.8746 10.3235 8.98405 10.3299C9.08892 10.3361 9.1935 10.3136 9.28655 10.2648C9.30158 10.2565 9.31853 10.2523 9.33571 10.2525C9.35289 10.2528 9.36971 10.2575 9.38449 10.2663L11.6992 11.684C11.7146 11.6934 11.7274 11.7066 11.7362 11.7223C11.745 11.7381 11.7496 11.7558 11.7495 11.7739C11.7494 11.795 11.7503 11.8161 11.7523 11.8371C11.7665 11.9738 11.8287 12.1011 11.9279 12.1962C12.027 12.2914 12.1567 12.3483 12.2939 12.3569C12.3052 12.3569 12.3163 12.3578 12.3275 12.3578C12.4034 12.3577 12.4786 12.3427 12.5487 12.3136C12.6188 12.2845 12.6825 12.2418 12.7361 12.1881C12.7897 12.1344 12.8322 12.0706 12.8611 12.0004C12.89 11.9302 12.9049 11.855 12.9047 11.7791C12.9047 11.7596 12.9098 11.7404 12.9193 11.7234C12.9288 11.7063 12.9425 11.692 12.9591 11.6817L15.3194 10.2359C15.4374 10.3133 15.5797 10.3448 15.7194 10.3245C15.8591 10.3041 15.9866 10.2333 16.0776 10.1254C16.1687 10.0175 16.217 9.88 16.2136 9.73886C16.2102 9.59773 16.1552 9.46273 16.0591 9.35937ZM14.9966 9.85717L12.6489 11.296C12.6476 11.2968 12.6462 11.2971 12.6447 11.2971C12.6433 11.2971 12.6418 11.2968 12.6405 11.296L12.6391 11.2952C12.6379 11.2943 12.6369 11.2932 12.6363 11.2919C12.6357 11.2906 12.6354 11.2891 12.6355 11.2877L12.8709 9.36356L14.9966 9.85717ZM12.9186 8.97325L13.0283 8.07544L13.0965 8.20057C13.0612 8.24418 13.035 8.29452 13.0198 8.34854C13.0045 8.40256 13.0003 8.45912 13.0076 8.51479C13.0197 8.60659 13.0617 8.69184 13.127 8.75743C13.1924 8.82302 13.2775 8.8653 13.3692 8.87777C13.4627 8.89018 13.5575 8.87049 13.6383 8.82193C13.6458 8.81696 13.6545 8.81418 13.6635 8.81387C13.6724 8.81356 13.6813 8.81575 13.6891 8.82019L14.3881 9.25998L12.9186 8.97325ZM13.8689 8.51942C13.8605 8.51479 13.8535 8.50791 13.8488 8.49956C13.844 8.49122 13.8417 8.48172 13.842 8.47212V8.46242C13.8418 8.35336 13.7992 8.24864 13.7231 8.17049C13.647 8.09233 13.5435 8.04688 13.4345 8.04375L13.295 7.68339C13.3978 7.57617 13.4549 7.4332 13.4542 7.28468C13.4539 7.15889 13.4127 7.0366 13.3367 6.93631C13.2608 6.83601 13.1543 6.76314 13.0333 6.72872C13.0278 6.72745 13.0227 6.72469 13.0186 6.72074C13.0145 6.71679 13.0115 6.71179 13.01 6.70629L12.8312 5.82223L14.9179 9.08609L13.8689 8.51942ZM10.9624 8.34915C10.8599 8.36068 10.7652 8.40959 10.6964 8.48653C10.6277 8.56347 10.5897 8.66305 10.5897 8.76623C10.5897 8.76999 10.5897 8.77361 10.5897 8.77737L9.66978 9.19155L11.6044 6.16495L10.9624 8.34915ZM9.59556 9.75243C9.59524 9.74284 9.59752 9.73334 9.60215 9.72494C9.60679 9.71653 9.61361 9.70954 9.62189 9.70469L10.7468 9.09188C10.82 9.15053 10.9107 9.18297 11.0045 9.18403L11.8172 11.1805L9.61828 9.83345C9.61035 9.82836 9.60394 9.82122 9.59974 9.81279C9.59554 9.80436 9.5937 9.79495 9.59441 9.78556C9.59527 9.77515 9.59556 9.76444 9.59556 9.75287V9.75243ZM12.564 7.82068L12.4351 8.87892L11.4188 8.68058C11.4178 8.6761 11.4168 8.67147 11.4156 8.66684L12.564 7.82068ZM12.5206 6.83013C12.4515 6.884 12.3956 6.95297 12.3573 7.03175C12.319 7.11054 12.2992 7.19706 12.2994 7.28468C12.2994 7.33588 12.3061 7.38685 12.3194 7.43629L11.3469 8.26452L12.2687 5.52392L12.5291 6.80438C12.5302 6.80901 12.53 6.81383 12.5286 6.81836C12.5272 6.82289 12.5246 6.82695 12.521 6.83013H12.5206ZM11.3481 9.01043L12.389 9.25217L12.1872 10.9014L11.3191 9.04616C11.3294 9.0348 11.3391 9.02287 11.3481 9.01043Z" fill="url(#paint0_linear_15220_80917)"/>
<path d="M17.9015 14.2682C17.8935 14.2632 17.8868 14.2562 17.8822 14.248C17.8776 14.2397 17.8751 14.2304 17.8751 14.2209C17.8751 14.193 17.8751 14.1669 17.8751 14.1519C17.8595 13.3816 17.683 12.623 17.3569 11.925C17.3561 11.9229 17.3558 11.9206 17.3561 11.9184C17.3564 11.9162 17.3573 11.9141 17.3586 11.9123C17.4357 11.8037 17.4725 11.6716 17.4626 11.5387C17.4526 11.4001 17.3929 11.2697 17.2946 11.1714C17.1964 11.0732 17.066 11.0135 16.9273 11.0035C16.8483 10.9977 16.7689 11.0084 16.6942 11.0349C16.6195 11.0614 16.5511 11.1031 16.4933 11.1574C16.4354 11.2117 16.3893 11.2773 16.3577 11.3502C16.3261 11.423 16.3098 11.5016 16.3098 11.581C16.3098 11.5976 16.3054 11.614 16.2972 11.6284C16.289 11.6429 16.2772 11.6549 16.2629 11.6634L12.7249 13.7559C12.7048 13.7682 12.6819 13.7752 12.6584 13.7763C12.6349 13.7775 12.6114 13.7728 12.5902 13.7626C12.5089 13.7207 12.4188 13.6989 12.3273 13.6992C12.2615 13.6992 12.1961 13.7105 12.134 13.7325C12.0844 13.7494 12.0317 13.7552 11.9796 13.7494C11.9275 13.7437 11.8773 13.7265 11.8326 13.6992L8.33289 11.6341C8.34019 11.5571 8.33195 11.4794 8.30865 11.4057C8.28535 11.332 8.24746 11.2637 8.19725 11.2049C8.14703 11.1461 8.08551 11.098 8.01634 11.0634C7.94716 11.0289 7.87175 11.0086 7.79458 11.0038C7.71572 10.9985 7.63662 11.0096 7.56226 11.0364C7.4879 11.0631 7.41987 11.105 7.36245 11.1593C7.2635 11.2524 7.20055 11.3774 7.18467 11.5124C7.1688 11.6473 7.20101 11.7835 7.27565 11.8971C7.28023 11.9038 7.28299 11.9116 7.28365 11.9197C7.28431 11.9278 7.28285 11.9359 7.27941 11.9432C6.83754 12.9035 6.67741 13.9695 6.81763 15.0171C6.82013 15.0363 6.81802 15.0559 6.81148 15.0741C6.80494 15.0923 6.79416 15.1087 6.78002 15.1219C6.72277 15.1757 6.6772 15.2407 6.64617 15.3129C6.61513 15.3851 6.59928 15.4629 6.59961 15.5414C6.59971 15.6681 6.64137 15.7913 6.7182 15.892C6.79503 15.9927 6.90279 16.0654 7.02494 16.099C7.04217 16.1038 7.05799 16.1127 7.07107 16.1249C7.08416 16.1371 7.09414 16.1523 7.10017 16.1691C7.13243 16.2581 7.16758 16.3475 7.20462 16.4349C7.41343 16.9289 7.69296 17.39 8.03444 17.8036C8.04217 17.8124 8.04802 17.8228 8.05165 17.8339C8.05528 17.8451 8.05661 17.8569 8.05556 17.8686C8.04798 17.9298 8.05401 17.992 8.07322 18.0506C8.09242 18.1093 8.12432 18.163 8.16666 18.2079C8.20899 18.2528 8.26071 18.2878 8.31812 18.3104C8.37554 18.333 8.43724 18.3427 8.49882 18.3387C8.51087 18.3381 8.52293 18.3399 8.53426 18.3441C8.54558 18.3482 8.55592 18.3547 8.56464 18.363C9.03324 18.7947 9.57288 19.1422 10.1598 19.3902C10.3215 19.4586 10.4883 19.5204 10.6555 19.5726C10.6745 19.5789 10.6918 19.5896 10.7058 19.6039C10.7198 19.6181 10.7303 19.6355 10.7363 19.6546C10.768 19.7509 10.8245 19.8372 10.9001 19.9047C10.9757 19.9722 11.0678 20.0186 11.167 20.0393C11.2663 20.06 11.3692 20.0542 11.4655 20.0225C11.5618 19.9907 11.648 19.9342 11.7155 19.8586C11.7325 19.8402 11.7535 19.826 11.7769 19.8171C11.8003 19.8082 11.8254 19.8048 11.8504 19.8071C12.0059 19.8201 12.1644 19.8268 12.3215 19.8268C13.524 19.8284 14.6943 19.4383 15.6553 18.7155C15.6558 18.715 15.6564 18.7146 15.657 18.7145C15.6577 18.7143 15.6584 18.7143 15.659 18.7144C15.7615 18.7623 15.8757 18.7791 15.9876 18.7626C16.0995 18.7462 16.2041 18.6973 16.2885 18.622C16.3728 18.5467 16.4332 18.4482 16.4622 18.3389C16.4911 18.2296 16.4874 18.1142 16.4514 18.007C16.4497 18.0021 16.4495 17.9968 16.4506 17.9917C16.4517 17.9866 16.4542 17.9819 16.4578 17.9781C17.1256 17.2346 17.5798 16.3243 17.7722 15.3437C17.7737 15.3359 17.7771 15.3286 17.7822 15.3225C17.7872 15.3165 17.7938 15.3118 17.8011 15.3089C17.9047 15.2723 17.9957 15.2069 18.0634 15.1203C18.1311 15.0338 18.1727 14.9297 18.1833 14.8204C18.194 14.711 18.1732 14.6009 18.1234 14.5029C18.0737 14.405 17.997 14.3232 17.9024 14.2673L17.9015 14.2682ZM16.4708 14.9071L15.8305 15.1338C15.8269 15.1346 15.8232 15.1344 15.8198 15.1332C15.8163 15.132 15.8133 15.1298 15.8111 15.127L15.8099 15.1258C15.8072 15.1234 15.8052 15.1204 15.8042 15.117C15.8031 15.1135 15.8031 15.1099 15.804 15.1064L15.9009 14.8543L16.4708 14.9071ZM17.126 14.4461C17.1206 14.4541 17.1132 14.4604 17.1046 14.4644C17.0959 14.4685 17.0863 14.47 17.0768 14.469L16.0842 14.3773L16.9299 12.1775C17.2097 12.7913 17.3632 13.4551 17.3812 14.1295C17.3812 14.1458 17.3812 14.1713 17.3822 14.198C17.3822 14.2082 17.3794 14.2181 17.3741 14.2268C17.3688 14.2354 17.3612 14.2424 17.3522 14.2471C17.2606 14.2923 17.1825 14.361 17.126 14.4461ZM15.9076 15.5507C15.9141 15.5292 15.9185 15.5072 15.9207 15.4849C15.9211 15.4818 15.9224 15.4789 15.9245 15.4766C15.9266 15.4743 15.9293 15.4727 15.9323 15.472L17.1389 15.1468C17.1475 15.1447 17.1565 15.1449 17.165 15.1474C17.1735 15.15 17.1811 15.1547 17.1872 15.1612C17.2108 15.1863 17.2367 15.2092 17.2644 15.2297C17.2718 15.2346 17.2776 15.2416 17.2812 15.2497C17.2847 15.2579 17.2858 15.2669 17.2842 15.2757C17.1082 16.1512 16.7025 16.9642 16.1087 17.6312C16.1045 17.6356 16.0992 17.6388 16.0933 17.6403C16.0874 17.6417 16.0812 17.6415 16.0754 17.6396H16.0737C16.0685 17.6379 16.0639 17.6348 16.0605 17.6306C16.057 17.6265 16.0547 17.6215 16.054 17.6161L15.7357 15.7723C15.8169 15.7205 15.8776 15.6422 15.9076 15.5507ZM13.1065 14.1018L16.4538 12.1212L15.7036 14.3421L13.1065 14.1018ZM8.88537 17.859C8.88499 17.8552 8.8857 17.8514 8.88742 17.848C8.88914 17.8447 8.89179 17.8418 8.89507 17.8399L9.83773 17.2323C9.84977 17.2244 9.86384 17.2202 9.87823 17.2202C9.88912 17.2201 9.89986 17.2227 9.90948 17.2278C10.025 17.2896 10.1581 17.3102 10.287 17.2863C10.4158 17.2624 10.5326 17.1954 10.6184 17.0963C10.6327 17.079 10.6512 17.0656 10.6721 17.0573C10.693 17.049 10.7157 17.0462 10.738 17.049L13.5997 17.472L11.582 18.9516C11.5759 18.9563 11.5686 18.9592 11.5609 18.96C11.5532 18.9607 11.5455 18.9593 11.5386 18.9559C11.4314 18.9033 11.3105 18.8853 11.1925 18.9042C11.0746 18.9231 10.9654 18.9781 10.8801 19.0616C10.8644 19.0771 10.8448 19.088 10.8233 19.0931C10.8019 19.0982 10.7795 19.0973 10.7585 19.0906C10.075 18.87 9.44703 18.5049 8.9172 18.02C8.90697 18.0101 8.89907 17.9981 8.89407 17.9847C8.88906 17.9714 8.88708 17.9571 8.88827 17.9429C8.88827 17.9357 8.88827 17.9285 8.88827 17.9209C8.88883 17.9003 8.88786 17.8796 8.88537 17.859ZM7.70937 12.1856C7.71396 12.1768 7.72096 12.1695 7.72955 12.1646C7.73813 12.1597 7.74794 12.1573 7.75783 12.1578C7.7736 12.1578 7.78937 12.1578 7.80485 12.1559L8.98722 14.1203C8.99309 14.1296 8.99638 14.1402 8.99673 14.1512C8.99709 14.1621 8.9945 14.173 8.98925 14.1826C8.9413 14.2597 8.91996 14.3505 8.92849 14.4409C8.93622 14.518 8.96492 14.5915 9.01146 14.6534C9.05801 14.7153 9.12062 14.7632 9.19251 14.792L7.63428 15.174C7.63145 15.1747 7.62847 15.1746 7.62566 15.1739C7.62284 15.1731 7.62028 15.1716 7.61822 15.1695C7.54087 15.077 7.43635 15.0112 7.31948 14.9814C7.31619 14.9806 7.31323 14.9787 7.31101 14.9761C7.30878 14.9735 7.3074 14.9703 7.30704 14.9669C7.27563 14.7368 7.25983 14.5048 7.25974 14.2725C7.26068 13.5529 7.41392 12.8417 7.70937 12.1856ZM12.3982 14.8917L12.943 15.8373L10.714 16.3448C10.6918 16.35 10.6687 16.3495 10.6468 16.3433C10.6248 16.3371 10.6049 16.3254 10.5887 16.3093C10.4872 16.208 10.3516 16.1481 10.2084 16.1413C10.0651 16.1345 9.92447 16.1813 9.81386 16.2726C9.80352 16.2806 9.79124 16.2857 9.77828 16.2874C9.76531 16.2891 9.75213 16.2873 9.74008 16.2823L7.98076 15.5952L11.6917 14.6857C11.7435 14.6738 11.7974 14.6731 11.8495 14.6838C11.9017 14.6945 11.9509 14.7163 11.9939 14.7478C12.0918 14.8173 12.209 14.8545 12.3291 14.8541C12.3429 14.8537 12.3565 14.857 12.3687 14.8636C12.3808 14.8702 12.391 14.8799 12.3982 14.8917ZM9.72185 14.5865C9.72671 14.5778 9.7338 14.5707 9.74237 14.5657C9.75095 14.5607 9.76069 14.5582 9.7706 14.5583L10.1689 14.5528L9.66253 14.6769C9.68605 14.6494 9.70594 14.619 9.7217 14.5865H9.72185ZM11.5157 14.0875L9.75613 14.2115C9.745 14.2118 9.73398 14.2091 9.72425 14.2037C9.71451 14.1983 9.70644 14.1903 9.70087 14.1807C9.66324 14.1201 9.61072 14.0702 9.54832 14.0357C9.48591 14.0012 9.41571 13.9833 9.34441 13.9836C9.33272 13.9837 9.32125 13.9805 9.31123 13.9745C9.30121 13.9685 9.29303 13.9598 9.28755 13.9495L8.36862 12.2262L11.5165 14.0837C11.5169 14.0839 11.5172 14.0843 11.5174 14.0847C11.5175 14.085 11.5176 14.0855 11.5175 14.0859C11.5173 14.0863 11.5171 14.0867 11.5168 14.087C11.5164 14.0873 11.516 14.0874 11.5156 14.0875H11.5157ZM7.56021 15.9738L7.56195 15.9724C7.56562 15.9688 7.57053 15.9666 7.57569 15.9665C7.57757 15.9665 7.57942 15.9668 7.58119 15.9675L9.56054 16.74C9.57281 16.7445 9.58361 16.7523 9.59178 16.7625C9.59994 16.7727 9.60515 16.7849 9.60684 16.7979V16.8011C9.60837 16.8139 9.60651 16.827 9.60143 16.839C9.59636 16.8509 9.58824 16.8613 9.5779 16.8692L8.68978 17.5491C8.68712 17.5515 8.68386 17.5531 8.68036 17.5537C8.67687 17.5543 8.67327 17.5539 8.66996 17.5526C8.60827 17.5192 8.53919 17.5017 8.46902 17.5018C8.45434 17.5019 8.43984 17.4986 8.42658 17.4923C8.41332 17.4861 8.40162 17.4769 8.39234 17.4655C8.03203 17.0247 7.74945 16.5257 7.55674 15.9899C7.55587 15.9872 7.55573 15.9842 7.55633 15.9814C7.55694 15.9786 7.55828 15.976 7.56021 15.9738ZM15.0769 15.699L14.1282 16.9333C14.1225 16.9413 14.1147 16.9476 14.1057 16.9516C14.0967 16.9556 14.0869 16.9571 14.0771 16.956C14.0556 16.9525 14.0338 16.9508 14.012 16.9508C14.001 16.9508 13.9899 16.9508 13.9791 16.9521L13.5402 16.0985L15.0769 15.699ZM15.5 14.9442C15.4939 14.9618 15.483 14.9773 15.4686 14.9891C15.4542 15.0009 15.4369 15.0085 15.4185 15.0111C15.407 15.0127 15.3958 15.0153 15.3847 15.0187C15.3219 15.0386 15.2646 15.073 15.2175 15.1192C15.1704 15.1653 15.1349 15.2219 15.1138 15.2844C15.1075 15.3043 15.1031 15.3249 15.1006 15.3457L13.3579 15.743L12.8062 14.6694C12.8 14.658 12.7971 14.6452 12.7976 14.6323C12.798 14.6194 12.802 14.6069 12.8089 14.596L12.8105 14.5937C12.8147 14.5872 12.8204 14.5818 12.8272 14.578C12.8339 14.5743 12.8415 14.5722 12.8493 14.5721H12.8533L15.5419 14.8208L15.5 14.9442ZM11.2961 16.6823L13.1516 16.1995L13.6797 17.1159C13.6742 17.1231 13.669 17.1303 13.6639 17.138L11.2961 16.6823ZM13.8134 17.7384C13.814 17.7382 13.8146 17.7382 13.8152 17.7384C13.8758 17.7706 13.9433 17.7875 14.0118 17.7875C14.1035 17.7878 14.1927 17.7577 14.2654 17.7019C14.2737 17.6962 14.2834 17.6929 14.2934 17.6923C14.3034 17.6917 14.3134 17.6938 14.3223 17.6984L15.3205 18.1815C15.322 18.1823 15.3233 18.1835 15.3242 18.1851C15.325 18.1866 15.3255 18.1883 15.3254 18.19C15.3257 18.2371 15.3317 18.2839 15.3434 18.3295C15.3438 18.3306 15.3438 18.3319 15.3435 18.333C15.3432 18.3342 15.3426 18.3353 15.3418 18.3361C14.4667 18.9895 13.4225 19.3343 12.3218 19.3343C12.1733 19.3343 12.0219 19.3275 11.8713 19.3144L13.8134 17.7384ZM14.4065 17.2286C14.4039 17.2213 14.4011 17.2141 14.3981 17.2071C14.3933 17.1972 14.3913 17.1861 14.3923 17.1751C14.3932 17.164 14.3972 17.1535 14.4036 17.1445L15.396 15.8523L15.5993 17.6798C15.6 17.6851 15.5993 17.6905 15.5972 17.6954C15.5951 17.7003 15.5917 17.7045 15.5873 17.7075C15.5626 17.7237 15.5392 17.7418 15.5173 17.7615C15.5132 17.765 15.5082 17.7673 15.5029 17.7682C15.4976 17.769 15.4921 17.7684 15.4872 17.7663L14.46 17.3695C14.4497 17.3655 14.4407 17.3587 14.4339 17.35C14.4272 17.3412 14.423 17.3307 14.4218 17.3197C14.4209 17.2889 14.4159 17.2583 14.4068 17.2288L14.4065 17.2286Z" fill="url(#paint1_linear_15220_80917)"/>
<defs>
<linearGradient id="paint0_linear_15220_80917" x1="8.44039" y1="8.20434" x2="16.2144" y2="8.20434" gradientUnits="userSpaceOnUse">
<stop stop-color="#FF7F72"/>
<stop offset="1" stop-color="#FF7F72"/>
</linearGradient>
<linearGradient id="paint1_linear_15220_80917" x1="6.59933" y1="15.527" x2="18.1849" y2="15.527" gradientUnits="userSpaceOnUse">
<stop stop-color="#4C8AED"/>
<stop offset="1" stop-color="#4C8AED"/>
</linearGradient>
</defs>
</svg>
